# Blender 4.5.3 LTS
# www.blender.org
mtllib aladerechaave1.mtl
g aladerecha_Mesh
v 0.121833 0.546089 -0.278175
v 0.121833 0.503266 -0.460720
v 0.121833 0.241848 -0.206804
v 0.121833 0.199026 -0.389349
v 0.059333 0.503266 -0.460720
v 0.059333 0.546089 -0.278175
v 0.059333 0.199026 -0.389349
v 0.059333 0.241848 -0.206804
v 0.059333 0.503266 -0.460720
v 0.121833 0.503266 -0.460720
v 0.059333 0.546089 -0.278175
v 0.121833 0.546089 -0.278175
v 0.059333 0.241848 -0.206804
v 0.121833 0.241848 -0.206804
v 0.059333 0.199026 -0.389349
v 0.121833 0.199026 -0.389349
v 0.059333 0.546089 -0.278175
v 0.121833 0.546089 -0.278175
v 0.059333 0.241848 -0.206804
v 0.121833 0.241848 -0.206804
v 0.121833 0.503266 -0.460720
v 0.059333 0.503266 -0.460720
v 0.121833 0.199026 -0.389349
v 0.059333 0.199026 -0.389349
vn 1.0000 -0.0000 -0.0000
vn -1.0000 -0.0000 -0.0000
vn -0.0000 0.9736 -0.2284
vn -0.0000 -0.9736 0.2284
vn -0.0000 0.2284 0.9736
vn -0.0000 -0.2284 -0.9736
vt 0.594238 0.344238
vt 0.594238 0.499512
vt 0.687012 0.344238
vt 0.687012 0.499512
vt 0.719238 0.344238
vt 0.719238 0.499512
vt 0.812012 0.344238
vt 0.812012 0.499512
vt 0.718262 0.343262
vt 0.718262 0.250488
vt 0.687988 0.343262
vt 0.687988 0.250488
vt 0.749512 0.250488
vt 0.749512 0.343262
vt 0.719238 0.250488
vt 0.719238 0.343262
vt 0.812988 0.344238
vt 0.812988 0.499512
vt 0.843262 0.344238
vt 0.843262 0.499512
vt 0.687988 0.344238
vt 0.687988 0.499512
vt 0.718262 0.344238
vt 0.718262 0.499512
s 0
g off
g aladerecha_material_0
usemtl material_0
f 1/1/1 3/2/1 2/3/1
f 3/2/1 4/4/1 2/3/1
f 5/5/2 7/6/2 6/7/2
f 7/6/2 8/8/2 6/7/2
f 9/9/3 11/10/3 10/11/3
f 11/10/3 12/12/3 10/11/3
f 13/13/4 15/14/4 14/15/4
f 15/14/4 16/16/4 14/15/4
f 17/17/5 19/18/5 18/19/5
f 19/18/5 20/20/5 18/19/5
f 21/21/6 23/22/6 22/23/6
f 23/22/6 24/24/6 22/23/6
