# Blender 4.5.3 LTS
# www.blender.org
mtllib alaizquierdaave1.mtl
g alaizquierda_Mesh
v -0.105819 0.541292 -0.278801
v -0.105819 0.495734 -0.460682
v -0.105819 0.238157 -0.202872
v -0.105819 0.192599 -0.384753
v -0.168319 0.495734 -0.460682
v -0.168319 0.541292 -0.278801
v -0.168319 0.192599 -0.384753
v -0.168319 0.238157 -0.202872
v -0.168319 0.495734 -0.460682
v -0.105819 0.495734 -0.460682
v -0.168319 0.541292 -0.278801
v -0.105819 0.541292 -0.278801
v -0.168319 0.238157 -0.202872
v -0.105819 0.238157 -0.202872
v -0.168319 0.192599 -0.384753
v -0.105819 0.192599 -0.384753
v -0.168319 0.541292 -0.278801
v -0.105819 0.541292 -0.278801
v -0.168319 0.238157 -0.202872
v -0.105819 0.238157 -0.202872
v -0.105819 0.495734 -0.460682
v -0.168319 0.495734 -0.460682
v -0.105819 0.192599 -0.384753
v -0.168319 0.192599 -0.384753
vn 1.0000 -0.0000 -0.0000
vn -1.0000 -0.0000 -0.0000
vn -0.0000 0.9700 -0.2430
vn -0.0000 -0.9700 0.2430
vn -0.0000 0.2430 0.9700
vn -0.0000 -0.2430 -0.9700
vt 0.594238 0.344238
vt 0.594238 0.499512
vt 0.687012 0.344238
vt 0.687012 0.499512
vt 0.719238 0.344238
vt 0.719238 0.499512
vt 0.812012 0.344238
vt 0.812012 0.499512
vt 0.718262 0.343262
vt 0.718262 0.250488
vt 0.687988 0.343262
vt 0.687988 0.250488
vt 0.749512 0.250488
vt 0.749512 0.343262
vt 0.719238 0.250488
vt 0.719238 0.343262
vt 0.812988 0.344238
vt 0.812988 0.499512
vt 0.843262 0.344238
vt 0.843262 0.499512
vt 0.687988 0.344238
vt 0.687988 0.499512
vt 0.718262 0.344238
vt 0.718262 0.499512
s 0
g off
g alaizquierda_material_0
usemtl material_0
f 1/1/1 3/2/1 2/3/1
f 3/2/1 4/4/1 2/3/1
f 5/5/2 7/6/2 6/7/2
f 7/6/2 8/8/2 6/7/2
f 9/9/3 11/10/3 10/11/3
f 11/10/3 12/12/3 10/11/3
f 13/13/4 15/14/4 14/15/4
f 15/14/4 16/16/4 14/15/4
f 17/17/5 19/18/5 18/19/5
f 19/18/5 20/20/5 18/19/5
f 21/21/6 23/22/6 22/23/6
f 23/22/6 24/24/6 22/23/6
