# Blender 4.5.3 LTS
# www.blender.org
mtllib patasave1.mtl
g patas_Mesh
v -0.039769 0.237064 -0.268300
v -0.039769 0.237064 -0.330800
v -0.039769 0.112064 -0.268300
v -0.039769 0.112064 -0.330800
v -0.102269 0.237064 -0.330800
v -0.102269 0.237064 -0.268300
v -0.102269 0.112064 -0.330800
v -0.102269 0.112064 -0.268300
v -0.102269 0.237064 -0.330800
v -0.039769 0.237064 -0.330800
v -0.102269 0.237064 -0.268300
v -0.039769 0.237064 -0.268300
v -0.102269 0.112064 -0.268300
v -0.039769 0.112064 -0.268300
v -0.102269 0.112064 -0.330800
v -0.039769 0.112064 -0.330800
v -0.102269 0.237064 -0.268300
v -0.039769 0.237064 -0.268300
v -0.102269 0.112064 -0.268300
v -0.039769 0.112064 -0.268300
v -0.039769 0.237064 -0.330800
v -0.102269 0.237064 -0.330800
v -0.039769 0.112064 -0.330800
v -0.102269 0.112064 -0.330800
v 0.052411 0.235037 -0.267444
v 0.052411 0.235037 -0.329944
v 0.052411 0.110037 -0.267444
v 0.052411 0.110037 -0.329944
v -0.010089 0.235037 -0.329944
v -0.010089 0.235037 -0.267444
v -0.010089 0.110037 -0.329944
v -0.010089 0.110037 -0.267444
v -0.010089 0.235037 -0.329944
v 0.052411 0.235037 -0.329944
v -0.010089 0.235037 -0.267444
v 0.052411 0.235037 -0.267444
v -0.010089 0.110037 -0.267444
v 0.052411 0.110037 -0.267444
v -0.010089 0.110037 -0.329944
v 0.052411 0.110037 -0.329944
v -0.010089 0.235037 -0.267444
v 0.052411 0.235037 -0.267444
v -0.010089 0.110037 -0.267444
v 0.052411 0.110037 -0.267444
v 0.052411 0.235037 -0.329944
v -0.010089 0.235037 -0.329944
v 0.052411 0.110037 -0.329944
v -0.010089 0.110037 -0.329944
vn 1.0000 -0.0000 -0.0000
vn -1.0000 -0.0000 -0.0000
vn -0.0000 1.0000 -0.0000
vn -0.0000 -1.0000 -0.0000
vn -0.0000 -0.0000 1.0000
vn -0.0000 -0.0000 -1.0000
vt 0.437988 0.594238
vt 0.437988 0.655762
vt 0.468262 0.594238
vt 0.468262 0.655762
vt 0.500488 0.594238
vt 0.500488 0.655762
vt 0.530762 0.594238
vt 0.530762 0.655762
vt 0.499512 0.593262
vt 0.499512 0.562988
vt 0.469238 0.593262
vt 0.469238 0.562988
vt 0.530762 0.562988
vt 0.530762 0.593262
vt 0.500488 0.562988
vt 0.500488 0.593262
vt 0.531738 0.594238
vt 0.531738 0.655762
vt 0.562012 0.594238
vt 0.562012 0.655762
vt 0.469238 0.594238
vt 0.469238 0.655762
vt 0.499512 0.594238
vt 0.499512 0.655762
s 0
g off
g patas_material_0
usemtl material_0
f 1/1/1 3/2/1 2/3/1
f 3/2/1 4/4/1 2/3/1
f 5/5/2 7/6/2 6/7/2
f 7/6/2 8/8/2 6/7/2
f 9/9/3 11/10/3 10/11/3
f 11/10/3 12/12/3 10/11/3
f 13/13/4 15/14/4 14/15/4
f 15/14/4 16/16/4 14/15/4
f 17/17/5 19/18/5 18/19/5
f 19/18/5 20/20/5 18/19/5
f 21/21/6 23/22/6 22/23/6
f 23/22/6 24/24/6 22/23/6
f 25/1/1 27/2/1 26/3/1
f 27/2/1 28/4/1 26/3/1
f 29/5/2 31/6/2 30/7/2
f 31/6/2 32/8/2 30/7/2
f 33/9/3 35/10/3 34/11/3
f 35/10/3 36/12/3 34/11/3
f 37/13/4 39/14/4 38/15/4
f 39/14/4 40/16/4 38/15/4
f 41/17/5 43/18/5 42/19/5
f 43/18/5 44/20/5 42/19/5
f 45/21/6 47/22/6 46/23/6
f 47/22/6 48/24/6 46/23/6
