# Blender 4.5.2 LTS
# www.blender.org
mtllib elefante_pata_izq_enfr.mtl
o elefante_pata_izq_enfr
v 0.520760 1.549975 0.685925
v 0.462953 1.538539 0.662207
v 0.573626 1.552176 0.756493
v 0.570965 1.560870 0.877186
v 0.557608 1.385043 0.881430
v 0.494208 1.289129 0.734618
v 0.484493 1.107983 0.854291
v 0.444400 1.044903 0.794866
v 0.562889 1.568022 0.984896
v 0.474527 1.043563 0.944595
v 0.434393 0.783243 0.997203
v 0.454055 1.187410 1.161183
v 0.511379 1.406428 1.046829
v 0.395917 0.684271 1.094815
v 0.423267 1.571054 1.256294
v 0.494676 1.573300 1.169254
v 0.403902 1.217920 1.229313
v 0.343110 1.327918 1.268763
v 0.246910 1.579211 1.297303
v 0.235748 1.522013 1.271978
v 0.254820 1.281932 1.246637
v 0.148676 1.370014 1.213056
v 0.164792 1.468204 1.259233
v 0.175785 1.523399 1.281161
v 0.246901 0.758370 1.158485
v 0.196418 0.746813 1.121298
v 0.186886 1.110023 1.168012
v 0.144454 1.285167 1.159878
v 0.107104 1.472901 1.273104
v 0.152458 0.937184 1.063143
v 0.079229 1.384658 1.198171
v 0.065085 1.360471 1.131982
v 0.083529 1.326560 1.067647
v 0.060618 1.345450 1.056262
v 0.028957 1.342270 1.056669
v 0.100778 1.312982 0.979171
v 0.108958 1.108937 0.961791
v 0.069257 1.323917 0.973296
v 0.069257 1.323917 0.973296
v 0.091180 1.304406 0.876942
v 0.412756 1.498691 0.666412
v 0.335846 1.409673 0.686784
v 0.306041 1.363351 0.700587
v 0.222504 1.329835 0.713254
v 0.418776 1.310274 0.675400
v 0.245618 1.310013 0.756088
v 0.158254 1.328493 0.811084
v 0.096839 1.313632 0.978125
v 0.163149 1.288687 0.858758
v 0.414423 1.123021 0.729514
v 0.349015 1.100245 0.720091
v 0.136839 1.091085 0.888096
v 0.122750 1.022828 0.959680
v 0.398151 1.061498 0.750099
v 0.341753 0.648537 0.820235
v 0.301638 0.895792 0.771560
v 0.208585 0.944120 0.807410
v 0.407627 0.659364 0.896962
v 0.425747 0.523081 0.999543
v 0.234849 0.419389 1.099292
v 0.316864 0.417081 1.101787
v 0.394863 0.422624 1.045074
v 0.427852 0.419818 0.966206
v 0.388513 0.422672 0.883249
v 0.249925 0.556487 0.802472
v 0.173022 0.657194 0.860883
v 0.195440 0.423447 0.819391
v 0.266780 0.420824 0.796481
v 0.124178 0.432160 0.924095
v 0.138762 0.530201 0.939345
v 0.148442 0.727908 0.954644
v 0.305258 0.783082 1.176121
v 0.181366 0.426620 1.066837
v 0.151676 0.634995 1.043593
v 0.128672 0.431825 0.997255
v 0.123184 0.433218 0.924950
v 0.144964 0.565352 0.943508
v 0.146490 0.799534 0.957183
v 0.358046 0.709354 1.146769
v 0.370755 0.163670 0.812431
v 0.306416 0.056802 0.709565
v 0.425304 0.031370 0.784426
v 0.234426 0.190008 0.787730
v 0.306100 0.215283 0.797953
v 0.228493 0.312527 0.786514
v 0.174282 0.055922 0.726297
v 0.233205 -0.004395 0.711412
v 0.386548 -0.014715 0.760169
v 0.484873 -0.007020 0.935965
v 0.136247 -0.003919 0.759861
v 0.131208 0.177609 0.819306
v 0.072712 -0.008130 0.848696
v 0.074085 0.059258 0.828269
v 0.136767 0.295949 0.843465
v 0.229809 0.420764 0.802656
v 0.105469 0.215474 0.909393
v 0.078276 0.113021 0.923753
v 0.052869 0.000024 0.952439
v 0.154322 0.427986 0.860427
v 0.118969 0.335417 0.912515
v 0.124033 0.433053 0.924334
v 0.339575 0.192194 1.045809
v 0.386965 0.205950 0.985862
v 0.405677 0.422909 0.919160
v 0.374518 0.283275 0.863428
v 0.297746 0.420668 0.808826
v 0.421976 0.420798 0.985287
v 0.406466 0.176211 0.877830
v 0.478885 0.085572 0.986349
v 0.488167 -0.002202 0.996135
v 0.460155 0.006420 1.050936
v 0.440498 0.006202 1.093843
v 0.438407 0.045661 1.105495
v 0.389036 0.025714 1.160153
v 0.400016 -0.003356 1.143408
v 0.341103 0.005781 1.175216
v 0.291675 0.004580 1.187917
v 0.278163 0.089012 1.173623
v 0.397341 0.112814 1.115500
v 0.222827 0.021213 1.204321
v 0.204099 0.108316 1.151026
v 0.238870 0.198560 1.072968
v 0.342030 0.338381 1.066417
v 0.392996 0.421914 1.053223
v 0.282762 0.418336 1.105673
v 0.242841 0.278202 1.067657
v 0.146423 0.207615 1.022850
v 0.109518 0.174037 0.968079
v 0.114538 0.433195 0.925520
v 0.115470 0.286107 0.907150
v 0.097346 0.162313 0.915246
v 0.045613 0.053823 0.937896
v 0.056298 0.060312 1.040831
v 0.052979 -0.000495 0.951309
v 0.055287 0.001760 1.043882
v 0.080363 0.002012 1.097109
v 0.111452 0.069293 1.123000
v 0.116699 0.009306 1.132788
v 0.165884 0.006983 1.165209
v 0.241343 -0.005048 1.198121
v 0.308404 0.003114 1.180311
v 0.250198 -0.000255 1.196968
v 0.191798 0.001674 1.187989
v 0.152448 -0.044441 1.017750
v 0.082584 0.004203 1.103571
v 0.059201 -0.011090 0.888940
v 0.199250 -0.012724 0.718036
v 0.375927 -0.039398 0.831385
v 0.052979 -0.000495 0.951309
v 0.089663 -0.007530 0.820363
v 0.136247 -0.003919 0.759861
v 0.488474 -0.006831 0.956672
v 0.437985 -0.016134 0.833485
v 0.276018 -0.006943 0.713655
v 0.346223 -0.011256 0.735235
v 0.401958 -0.015215 0.777314
v 0.311908 -0.035528 1.103140
v 0.423684 -0.013654 1.068821
v 0.479707 0.001624 1.006170
v 0.447243 0.006549 1.080262
v 0.420126 0.002017 1.125366
v 0.361467 0.002954 1.168925
v 0.175575 0.429953 1.048590
v 0.151599 0.005133 1.160044
v 0.061882 0.001947 1.050567
v 0.508019 1.642788 0.676895
v 0.475970 1.523904 0.673878
v 0.520118 1.508849 0.707300
v 0.558539 1.650695 0.737040
v 0.552849 1.509146 0.765618
v 0.565754 1.661015 0.837107
v 0.542504 1.542273 1.018687
v 0.504806 1.551759 1.121195
v 0.417512 1.552494 1.256274
v 0.564921 1.684086 0.928429
v 0.503829 1.698716 1.154279
v 0.367504 1.695729 1.283174
v 0.318213 1.564093 1.283946
v 0.265539 1.713877 1.294527
v 0.254572 1.581439 1.275121
v 0.221289 1.449919 1.255372
v 0.202505 1.310255 1.234484
v 0.164792 1.461946 1.259233
v 0.175785 1.586886 1.281161
v 0.461482 1.621300 0.666128
v 0.440118 1.402083 0.670436
v 0.377372 1.443984 0.671070
vn -0.4925 -0.8525 0.1750
vn -0.8675 -0.4951 0.0477
vn -0.2358 -0.9704 -0.0514
vn -0.3044 -0.9282 0.2138
vn -0.1459 -0.9444 0.2947
vn -0.5528 -0.3826 0.7403
vn 0.4224 -0.2213 0.8789
vn 0.6927 -0.2037 0.6918
vn -0.0330 -0.2342 0.9716
vn 0.9012 0.2522 0.3526
vn 0.9852 -0.1642 0.0490
vn -0.6991 -0.0485 0.7134
vn -0.1728 -0.0891 0.9809
vn 0.3141 -0.5390 0.7815
vn -0.0703 -0.8431 0.5331
vn 0.0849 -0.9669 0.2404
vn 0.3550 -0.9199 0.1663
vn 0.6135 -0.5351 0.5808
vn 0.7790 -0.5127 0.3609
vn 0.8578 -0.4415 0.2631
vn 0.0972 -0.9588 0.2669
vn 0.1549 -0.9770 -0.1465
vn -0.2085 -0.9724 0.1049
vn 0.5385 -0.6354 -0.5534
vn 0.6821 -0.6531 -0.3290
vn 0.3148 -0.6539 -0.6880
vn -0.0902 -0.9824 -0.1638
vn 0.0990 -0.6227 -0.7762
vn -0.5474 -0.7443 -0.3826
vn -0.6019 -0.5120 -0.6128
vn 0.0262 -0.9451 0.3258
vn 0.0218 -0.7200 0.6936
vn 0.3708 0.1882 0.9095
vn -0.1879 0.0420 0.9813
vn -0.2830 -0.0623 0.9571
vn -0.6228 0.4138 0.6640
vn -0.5974 0.1322 0.7910
vn -0.2791 0.5902 0.7574
vn -0.9005 0.3258 0.2879
vn -0.9171 0.2644 0.2982
vn -0.8311 0.1393 0.5384
vn -0.8976 -0.0480 0.4382
vn -0.7313 0.1552 0.6642
vn -0.8937 -0.4476 -0.0312
vn -0.9882 0.1516 -0.0232
vn -0.9403 0.3376 0.0434
vn -0.9664 0.0264 -0.2558
vn -0.9190 0.0497 0.3912
vn -0.0897 0.4365 0.8952
vn 0.4599 0.4359 0.7736
vn 0.5535 0.5617 0.6150
vn 0.1084 0.4807 0.8702
vn 0.4903 0.0399 0.8707
vn 0.8075 0.1264 0.5761
vn 0.9426 0.3309 0.0458
vn 0.2347 -0.4445 0.8645
vn 0.5459 -0.6578 0.5189
vn 0.7168 -0.5420 0.4388
vn 0.9169 0.0834 0.3903
vn 0.9659 0.1637 0.2006
vn 0.9141 0.2616 -0.3097
vn 0.9129 0.3011 -0.2756
vn 0.7911 0.0080 -0.6116
vn 0.5717 0.3841 -0.7250
vn 0.6831 0.1535 -0.7140
vn 0.2916 0.0546 -0.9550
vn 0.4510 0.0724 -0.8896
vn -0.2103 0.0437 -0.9766
vn -0.3036 0.1173 -0.9455
vn 0.9098 -0.0275 -0.4141
vn -0.9708 0.1318 -0.2006
vn -0.7702 0.1154 -0.6272
vn -0.9819 0.1004 -0.1604
vn -0.7579 0.1289 -0.6395
vn -0.9680 0.2078 -0.1409
vn -0.9975 0.0650 -0.0284
vn -0.8913 0.1460 -0.4292
vn -0.7707 -0.5472 -0.3265
vn -0.9638 0.2666 0.0027
vn -0.6494 0.3283 -0.6859
vn -0.0865 0.2687 -0.9593
vn -0.4066 0.1896 -0.8937
vn -0.5867 -0.5122 -0.6273
vn -0.1070 -0.5515 -0.8273
vn 0.4533 -0.6530 -0.6067
vn 0.2418 0.1565 -0.9576
vn 0.9852 -0.0594 0.1605
vn 0.9909 -0.1110 0.0765
vn 0.8347 -0.1288 0.5354
vn 0.7795 -0.1001 0.6183
vn 0.2880 -0.1591 0.9443
vn 0.5550 -0.1924 0.8093
vn 0.0098 -0.1811 0.9834
vn 0.5602 -0.1206 0.8195
vn 0.1180 -0.1155 0.9863
vn 0.8890 -0.1631 0.4278
vn -0.9373 -0.1097 0.3307
vn -0.8165 -0.5462 0.1873
vn -0.9899 -0.1042 -0.0958
vn -0.9999 -0.0055 -0.0129
vn -0.9497 -0.0217 0.3123
vn -0.9945 0.0879 -0.0567
vn -0.9520 0.0730 0.2974
vn -0.9988 0.0457 -0.0200
vn -0.6808 -0.0814 0.7279
vn -0.7036 -0.0732 0.7068
vn -0.2604 -0.1334 0.9562
vn 0.9960 -0.0417 -0.0792
vn -0.3963 -0.1396 0.9074
vn -0.3594 -0.1551 0.9202
vn 0.5229 -0.1220 -0.8437
vn 0.7929 -0.2515 -0.5551
vn 0.9065 -0.1268 -0.4027
vn 0.4261 -0.3062 -0.8513
vn 0.9791 -0.1737 0.1061
vn 0.9539 -0.2243 -0.1997
vn -0.9880 -0.1062 -0.1117
vn -0.8865 -0.0597 -0.4589
vn -0.9914 -0.0200 -0.1291
vn -0.8375 -0.0154 -0.5462
vn -0.9840 0.1376 -0.1134
vn -0.8711 0.0798 -0.4845
vn -0.6069 0.0373 -0.7939
vn -0.2170 0.0402 -0.9754
vn 0.1266 -0.0670 -0.9897
vn 0.7889 -0.0292 -0.6138
vn -0.6187 -0.0384 -0.7847
vn -0.1349 -0.1085 -0.9849
vn -0.1015 -0.1890 -0.9767
vn -0.5195 -0.5237 -0.6751
vn 0.4776 -0.2870 -0.8304
vn 0.7953 -0.2452 -0.5544
vn -0.2860 -0.2829 -0.9155
vn -0.7063 -0.6651 -0.2423
vn -0.8242 -0.2365 -0.5146
vn 0.1466 -0.1564 -0.9768
vn 0.6524 -0.1799 -0.7363
vn 0.9324 -0.1909 -0.3070
vn 0.2736 -0.1260 -0.9536
vn -0.4429 -0.8148 -0.3740
vn -0.1422 -0.9794 -0.1433
vn 0.5729 -0.7671 0.2885
vn -0.0142 -0.9383 -0.3454
vn -0.2187 -0.0786 -0.9726
vn -0.0237 -0.0271 -0.9994
vn -0.4513 -0.8749 0.1756
vn -0.3243 -0.9385 0.1185
vn -0.7726 -0.6049 -0.1927
vn 0.1229 -0.9688 0.2153
vn -0.5178 -0.7540 0.4042
vn -0.6909 -0.3397 0.6382
vn -0.7304 -0.1584 0.6644
vn -0.3733 -0.4513 0.8105
vn -0.2418 -0.7877 0.5665
vn 0.0401 -0.5177 0.8546
vn 0.6720 -0.4220 0.6085
vn -0.2982 -0.3098 0.9028
vn 0.1536 -0.4323 0.8885
vn -0.0236 -0.1430 0.9894
vn 0.5313 -0.0915 0.8422
vn 0.8670 -0.1353 0.4796
vn 0.9415 -0.1381 0.3075
vn 0.9567 -0.1491 0.2502
vn 0.9801 -0.1983 0.0036
vn 0.9945 -0.0924 0.0488
vn -0.0000 0.0493 -0.9988
vn 0.2351 -0.0604 -0.9701
vn -0.0081 0.0251 -0.9997
vn 0.3580 -0.0729 -0.9309
vn 0.5866 -0.1105 -0.8023
vn 0.0600 -0.1662 0.9843
vn 0.0612 -0.1771 0.9823
vn 0.0413 -0.1653 0.9854
vn 0.0487 -0.1674 0.9847
vn 0.0273 -0.0776 0.9966
vn -0.1665 -0.1271 0.9778
vn 0.1058 -0.0909 0.9902
vn 0.3578 -0.0064 0.9338
vn 0.5950 -0.0157 0.8036
vn 0.8723 -0.0471 0.4867
vn 0.9131 -0.0314 0.4066
vn 0.9840 -0.0955 0.1507
vn 0.9742 0.0103 0.2256
vn 0.9945 -0.1046 -0.0000
vn 0.9739 -0.0899 -0.2083
vn 0.9322 -0.0934 -0.3496
vn 0.7638 -0.0958 -0.6383
vt 0.337314 0.366507
vt 0.354888 0.355431
vt 0.367449 0.351824
vt 0.329575 0.375498
vt 0.323542 0.403364
vt 0.324776 0.393179
vt 0.429732 0.748664
vt 0.439164 0.737755
vt 0.444154 0.755008
vt 0.406133 0.743374
vt 0.435203 0.727953
vt 0.449532 0.768689
vt 0.426630 0.764964
vt 0.343426 0.433245
vt 0.335872 0.424800
vt 0.352841 0.415726
vt 0.368126 0.434123
vt 0.356638 0.440017
vt 0.367352 0.441816
vt 0.384190 0.440521
vt 0.393823 0.436695
vt 0.405593 0.403550
vt 0.353256 0.382728
vt 0.419341 0.404259
vt 0.412505 0.415978
vt 0.422271 0.390099
vt 0.411356 0.361891
vt 0.419829 0.374962
vt 0.382720 0.350548
vt 0.398345 0.353478
vt 0.328157 0.414757
vt 0.386899 0.790371
vt 0.385065 0.783959
vt 0.390907 0.789695
vt 0.394118 0.797532
vt 0.406021 0.798002
vt 0.398649 0.802093
vt 0.403682 0.784083
vt 0.428250 0.797092
vt 0.413794 0.806375
vt 0.402303 0.807877
vt 0.407814 0.812740
vt 0.426691 0.786575
vt 0.417388 0.820763
vt 0.423105 0.815348
vt 0.432773 0.803545
vt 0.442623 0.794579
vt 0.455941 0.787015
vt 0.415859 0.771501
vt 0.408763 0.757174
vt 0.392566 0.763343
vt 0.395919 0.779320
vt 0.382827 0.772031
vt 0.381693 0.763624
vt 0.383560 0.748041
vt 0.382430 0.778825
vt 0.377837 0.771935
vt 0.376856 0.764072
vt 0.375291 0.758947
vt 0.372175 0.752502
vt 0.369905 0.745268
vt 0.395547 0.730604
vt 0.371144 0.726897
vt 0.389332 0.719175
vt 0.409446 0.720881
vt 0.394974 0.708652
vt 0.423145 0.703242
vt 0.405084 0.695875
vt 0.419376 0.690623
vt 0.429568 0.717484
vt 0.412505 0.668907
vt 0.415282 0.677933
vt 0.402008 0.671992
vt 0.400130 0.682477
vt 0.388270 0.671952
vt 0.359317 0.661591
vt 0.367392 0.677870
vt 0.358038 0.675723
vt 0.375620 0.667433
vt 0.383962 0.686027
vt 0.389647 0.700962
vt 0.366912 0.695645
vt 0.358794 0.690392
vt 0.359708 0.703715
vt 0.363290 0.723172
vt 0.369947 0.711679
vt 0.450713 0.723169
vt 0.487351 0.704777
vt 0.474904 0.725064
vt 0.438857 0.736295
vt 0.442683 0.748448
vt 0.481984 0.732591
vt 0.493266 0.738444
vt 0.551149 0.722462
vt 0.566454 0.732796
vt 0.549725 0.708215
vt 0.513214 0.766492
vt 0.557907 0.785072
vt 0.529527 0.785282
vt 0.495444 0.780336
vt 0.478582 0.769929
vt 0.469620 0.782421
vt 0.452300 0.776819
vt 0.455974 0.787066
vt 0.448647 0.766072
vt 0.489377 0.755754
vt 0.446195 0.759240
vt 0.433845 0.725038
vt 0.490686 0.747555
vt 0.560344 0.745545
vt 0.455369 0.688884
vt 0.511492 0.663912
vt 0.463359 0.701154
vt 0.509828 0.655250
vt 0.522675 0.689142
vt 0.524339 0.671345
vt 0.464626 0.626281
vt 0.478276 0.624295
vt 0.441606 0.650827
vt 0.441671 0.666368
vt 0.422872 0.663813
vt 0.412522 0.668959
vt 0.417729 0.685781
vt 0.438456 0.684629
vt 0.421249 0.695361
vt 0.429399 0.714390
vt 0.482914 0.647498
vt 0.482234 0.661928
vt 0.510632 0.643500
vt 0.516207 0.606568
vt 0.517325 0.648326
vt 0.543147 0.643359
vt 0.532833 0.606016
vt 0.474122 0.597756
vt 0.494036 0.602742
vt 0.539419 0.627512
vt 0.580634 0.628427
vt 0.584792 0.644418
vt 0.574613 0.617638
vt 0.500189 0.597060
vt 0.473052 0.593224
vt 0.486724 0.591271
vt 0.518462 0.596642
vt 0.543853 0.608360
vt 0.564134 0.613656
vt 0.560942 0.787560
vt 0.553618 0.796349
vt 0.550126 0.793185
vt 0.563872 0.790978
vt 0.567293 0.780239
vt 0.559786 0.765854
vt 0.533540 0.757873
vt 0.573161 0.764421
vt 0.574555 0.773673
vt 0.588286 0.767540
vt 0.585845 0.759728
vt 0.592729 0.749500
vt 0.593657 0.757774
vt 0.601480 0.748044
vt 0.597008 0.719626
vt 0.593756 0.700260
vt 0.571504 0.688517
vt 0.592274 0.677029
vt 0.564270 0.665545
vt 0.588944 0.661011
vt 0.555571 0.610802
vt 0.574576 0.617623
vt 0.558501 0.621056
vt 0.569731 0.623497
vt 0.579985 0.625939
vt 0.592681 0.749474
vt 0.584380 0.751915
vt 0.601470 0.748009
vt 0.591704 0.739708
vt 0.599344 0.732124
vt 0.590119 0.723558
vt 0.596549 0.703576
vt 0.586987 0.698984
vt 0.590759 0.668835
vt 0.584120 0.682844
vt 0.587310 0.654747
vt 0.575321 0.643868
vt 0.583954 0.638883
vt 0.572173 0.632774
s 1
usemtl African_Elephant_Male_Skin.001
f 165/1/1 149/2/2 146/3/3
f 146/3/3 145/4/4 165/1/1
f 145/4/4 143/5/5 164/6/6
f 123/7/7 124/8/8 125/9/9
f 124/8/8 103/10/10 107/11/11
f 125/9/9 163/12/12 126/13/13
f 162/14/14 141/15/15 157/16/16
f 162/14/14 157/16/16 158/17/17
f 161/18/18 162/14/14 158/17/17
f 158/17/17 160/19/19 161/18/18
f 159/20/20 160/19/19 158/17/17
f 159/20/20 158/17/17 152/21/21
f 152/21/21 158/17/17 157/16/16
f 148/22/22 152/21/21 157/16/16
f 157/16/16 144/23/23 148/22/22
f 156/24/24 153/25/25 148/22/22
f 148/22/22 155/26/26 156/24/24
f 155/26/26 148/22/22 147/27/27
f 154/28/28 155/26/26 147/27/27
f 153/25/25 152/21/21 148/22/22
f 147/27/27 150/29/29 151/30/30
f 150/29/29 147/27/27 146/3/3
f 148/22/22 144/23/23 147/27/27
f 146/3/3 147/27/27 144/23/23
f 146/3/3 144/23/23 145/4/4
f 144/23/23 143/5/5 145/4/4
f 143/5/5 144/23/23 157/16/16
f 157/16/16 142/31/31 143/5/5
f 142/31/31 157/16/16 141/15/15
f 140/32/32 117/33/33 120/34/34
f 139/35/35 140/32/32 120/34/34
f 137/36/36 138/37/37 139/35/35
f 120/34/34 121/38/38 137/36/36
f 121/38/38 128/39/39 137/36/36
f 128/39/39 133/40/40 137/36/36
f 139/35/35 120/34/34 137/36/36
f 136/41/41 138/37/37 137/36/36
f 137/36/36 133/40/40 136/41/41
f 133/40/40 135/42/42 136/41/41
f 127/43/43 128/39/39 121/38/38
f 135/42/42 133/40/40 134/44/44
f 133/40/40 132/45/45 134/44/44
f 133/40/40 128/39/39 132/45/45
f 128/39/39 131/46/46 132/45/45
f 131/46/46 128/39/39 130/47/47
f 128/39/39 129/48/48 130/47/47
f 128/39/39 127/43/43 129/48/48
f 127/43/43 163/12/12 129/48/48
f 127/43/43 126/13/13 163/12/12
f 122/49/49 126/13/13 127/43/43
f 121/38/38 122/49/49 127/43/43
f 126/13/13 122/49/49 102/50/50
f 123/7/7 126/13/13 102/50/50
f 125/9/9 126/13/13 123/7/7
f 123/7/7 103/10/10 124/8/8
f 123/7/7 102/50/50 103/10/10
f 119/51/51 102/50/50 122/49/49
f 118/52/52 119/51/51 122/49/49
f 121/38/38 118/52/52 122/49/49
f 120/34/34 118/52/52 121/38/38
f 119/51/51 118/52/52 114/53/53
f 119/51/51 114/53/53 113/54/54
f 118/52/52 117/33/33 114/53/53
f 117/33/33 118/52/52 120/34/34
f 113/54/54 109/55/55 119/51/51
f 114/53/53 117/33/33 116/56/56
f 114/53/53 116/56/56 115/57/57
f 114/53/53 115/57/57 112/58/58
f 113/54/54 114/53/53 112/58/58
f 111/59/59 113/54/54 112/58/58
f 113/54/54 111/59/59 109/55/55
f 110/60/60 109/55/55 111/59/59
f 89/61/61 109/55/55 110/60/60
f 108/62/62 89/61/61 82/63/63
f 80/64/64 108/62/62 82/63/63
f 109/55/55 89/61/61 108/62/62
f 109/55/55 103/10/10 119/51/51
f 108/62/62 103/10/10 109/55/55
f 80/64/64 105/65/65 108/62/62
f 105/65/65 80/64/64 84/66/66
f 84/66/66 106/67/67 105/65/65
f 85/68/68 106/67/67 84/66/66
f 85/68/68 95/69/69 106/67/67
f 103/10/10 108/62/62 104/70/70
f 104/70/70 108/62/62 105/65/65
f 107/11/11 103/10/10 104/70/70
f 106/67/67 104/70/70 105/65/65
f 103/10/10 102/50/50 119/51/51
f 101/71/71 99/72/72 100/73/73
f 99/72/72 94/74/74 100/73/73
f 100/73/73 94/74/74 96/75/75
f 94/74/74 99/72/72 95/69/69
f 98/76/76 93/77/77 92/78/78
f 98/76/76 97/79/79 93/77/77
f 97/79/79 96/75/75 93/77/77
f 96/75/75 91/80/80 93/77/77
f 96/75/75 94/74/74 91/80/80
f 85/68/68 94/74/74 95/69/69
f 85/68/68 83/81/81 94/74/74
f 83/81/81 91/80/80 94/74/74
f 91/80/80 86/82/82 93/77/77
f 93/77/77 86/82/82 90/83/83
f 92/78/78 93/77/77 90/83/83
f 83/81/81 86/82/82 91/80/80
f 90/83/83 86/82/82 87/84/84
f 89/61/61 88/85/85 82/63/63
f 81/86/86 82/63/63 88/85/85
f 81/86/86 88/85/85 87/84/84
f 87/84/84 86/82/82 81/86/86
f 81/86/86 86/82/82 83/81/81
f 83/81/81 85/68/68 84/66/66
f 80/64/64 83/81/81 84/66/66
f 83/81/81 80/64/64 81/86/86
f 82/63/63 81/86/86 80/64/64
f 59/87/87 11/88/88 14/89/89
f 14/89/89 62/90/90 59/87/87
f 62/90/90 14/89/89 61/91/91
f 14/89/89 79/92/92 61/91/91
f 72/93/93 61/91/91 79/92/92
f 79/92/92 17/94/94 72/93/93
f 72/93/93 17/94/94 18/95/95
f 17/94/94 79/92/92 12/96/96
f 79/92/92 14/89/89 12/96/96
f 30/97/97 33/98/98 37/99/99
f 78/100/100 30/97/97 37/99/99
f 74/101/101 30/97/97 78/100/100
f 77/102/102 74/101/101 78/100/100
f 75/103/103 74/101/101 77/102/102
f 76/104/104 75/103/103 77/102/102
f 75/103/103 73/105/105 74/101/101
f 74/101/101 26/106/106 30/97/97
f 73/105/105 26/106/106 74/101/101
f 26/106/106 73/105/105 60/107/107
f 63/108/108 59/87/87 62/90/90
f 60/107/107 61/91/91 25/109/109
f 25/109/109 26/106/106 60/107/107
f 25/109/109 72/93/93 21/110/110
f 72/93/93 18/95/95 21/110/110
f 61/91/91 72/93/93 25/109/109
f 55/111/111 8/112/112 58/113/113
f 54/114/114 8/112/112 55/111/111
f 10/115/115 11/88/88 7/116/116
f 8/112/112 7/116/116 58/113/113
f 11/88/88 58/113/113 7/116/116
f 53/117/117 52/118/118 71/119/119
f 52/118/118 66/120/120 71/119/119
f 71/119/119 66/120/120 70/121/121
f 66/120/120 69/122/122 70/121/121
f 66/120/120 67/123/123 69/122/122
f 65/124/124 68/125/125 67/123/123
f 55/111/111 68/125/125 65/124/124
f 68/125/125 55/111/111 64/126/126
f 65/124/124 67/123/123 66/120/120
f 57/127/127 66/120/120 52/118/118
f 57/127/127 65/124/124 66/120/120
f 55/111/111 58/113/113 64/126/126
f 65/124/124 56/128/128 55/111/111
f 56/128/128 65/124/124 57/127/127
f 64/126/126 58/113/113 63/108/108
f 58/113/113 59/87/87 63/108/108
f 58/113/113 11/88/88 59/87/87
f 56/128/128 54/114/114 55/111/111
f 54/114/114 56/128/128 51/129/129
f 56/128/128 57/127/127 51/129/129
f 51/129/129 57/127/127 46/130/130
f 50/131/131 8/112/112 54/114/114
f 51/129/129 50/131/131 54/114/114
f 50/131/131 6/132/132 8/112/112
f 46/130/130 57/127/127 52/118/118
f 43/133/133 51/129/129 46/130/130
f 48/134/134 52/118/118 53/117/117
f 49/135/135 52/118/118 48/134/134
f 46/130/130 52/118/118 49/135/135
f 43/133/133 45/136/136 51/129/129
f 51/129/129 45/136/136 50/131/131
f 45/136/136 6/132/132 50/131/131
f 6/132/132 45/136/136 1/137/137
f 3/138/138 6/132/132 1/137/137
f 2/139/139 1/137/137 45/136/136
f 47/140/140 46/130/130 49/135/135
f 49/135/135 48/134/134 47/140/140
f 48/134/134 39/141/141 47/140/140
f 39/141/141 40/142/142 47/140/140
f 46/130/130 47/140/140 44/143/143
f 46/130/130 44/143/143 43/133/133
f 43/133/133 42/144/144 45/136/136
f 42/144/144 41/145/145 45/136/136
f 41/145/145 2/139/139 45/136/136
f 34/146/146 38/147/147 33/98/98
f 36/148/148 33/98/98 38/147/147
f 37/99/99 33/98/98 36/148/148
f 35/149/149 34/146/146 32/150/150
f 32/150/150 34/146/146 33/98/98
f 28/151/151 32/150/150 33/98/98
f 27/152/152 28/151/151 33/98/98
f 30/97/97 27/152/152 33/98/98
f 22/153/153 32/150/150 28/151/151
f 32/150/150 22/153/153 31/154/154
f 29/155/155 31/154/154 22/153/153
f 26/106/106 27/152/152 30/97/97
f 23/156/156 29/155/155 22/153/153
f 22/153/153 28/151/151 21/110/110
f 28/151/151 27/152/152 21/110/110
f 21/110/110 27/152/152 25/109/109
f 27/152/152 26/106/106 25/109/109
f 20/157/157 24/158/158 22/153/153
f 24/158/158 23/156/156 22/153/153
f 20/157/157 22/153/153 21/110/110
f 20/157/157 21/110/110 18/95/95
f 19/159/159 20/157/157 18/95/95
f 15/160/160 19/159/159 18/95/95
f 16/161/161 13/162/162 9/163/163
f 15/160/160 18/95/95 17/94/94
f 15/160/160 17/94/94 12/96/96
f 12/96/96 14/89/89 11/88/88
f 12/96/96 11/88/88 10/115/115
f 12/96/96 13/162/162 16/161/161
f 12/96/96 16/161/161 15/160/160
f 13/162/162 5/164/164 9/163/163
f 5/164/164 13/162/162 12/96/96
f 12/96/96 10/115/115 5/164/164
f 7/116/116 5/164/164 10/115/115
f 9/163/163 5/164/164 4/165/165
f 5/164/164 7/116/116 6/132/132
f 8/112/112 6/132/132 7/116/116
f 5/164/164 6/132/132 3/138/138
f 4/165/165 5/164/164 3/138/138
f 187/166/166 185/167/167 186/168/168
f 186/168/168 185/167/167 167/169/169
f 185/167/167 166/170/170 167/169/169
f 180/171/171 184/158/172 181/172/173
f 184/158/172 183/156/174 181/172/173
f 179/173/175 180/171/176 178/174/177
f 177/175/178 179/173/175 178/174/177
f 177/175/178 178/174/177 174/176/179
f 176/177/180 177/175/178 174/176/179
f 174/176/179 173/178/181 176/177/180
f 176/177/180 173/178/181 175/179/182
f 173/178/181 172/180/183 175/179/182
f 175/179/182 172/180/183 171/181/184
f 172/180/183 170/182/185 171/181/184
f 171/181/184 170/182/185 169/183/186
f 170/182/185 168/184/187 169/183/186
f 169/183/186 168/184/187 166/170/170
f 166/170/170 168/184/187 167/169/169
l 182 183
