# Blender 4.5.2 LTS
# www.blender.org
mtllib elefante_pata_der_atras.mtl
o elefante_pata_der_atras
v -0.224215 1.110489 -0.374652
v -0.350398 1.200787 -0.367704
v -0.211405 1.233562 -1.070130
v -0.383630 1.213194 -1.056119
v -0.498308 1.203664 -0.909237
v -0.495750 1.208523 -0.577508
v -0.466551 1.048717 -0.729914
v -0.398271 0.898668 -0.986893
v -0.306409 0.905849 -1.037948
v -0.449379 0.881070 -0.843334
v -0.212561 0.906964 -1.025848
v -0.136230 1.174517 -1.006871
v -0.106191 1.113888 -0.942239
v -0.054280 1.040538 -0.803837
v -0.095186 1.047920 -0.866468
v -0.100522 1.005822 -0.866169
v -0.081184 0.992616 -0.785011
v -0.063665 0.884913 -0.807429
v -0.378547 0.855558 -0.623726
v -0.448084 1.241052 -0.458105
v -0.294716 0.848129 -0.544355
v -0.200185 1.034240 -0.457842
v -0.185004 0.865592 -0.562433
v -0.128558 0.989633 -0.562292
v -0.098424 0.878619 -0.666416
v -0.081620 0.992981 -0.785000
v -0.080013 0.992071 -0.702577
v -0.088638 1.039636 -0.628640
v -0.085815 0.884603 -0.801602
v -0.125160 1.100764 -0.406464
v -0.125946 1.055327 -0.460871
v -0.112383 1.080425 -0.474696
v -0.441877 0.051738 -0.792563
v -0.405034 0.048188 -0.752064
v -0.415202 0.024523 -0.752419
v -0.398828 0.005788 -0.740999
v -0.400430 0.019158 -0.741575
v -0.454781 0.021266 -0.821163
v -0.454057 -0.000358 -0.804591
v -0.399253 0.004997 -0.739473
v -0.391936 -0.012431 -0.763934
v -0.425343 -0.008721 -0.805897
v -0.448425 0.004930 -0.805461
v -0.283251 0.847098 -0.537387
v -0.272411 0.596967 -0.712954
v -0.158432 0.669822 -0.704359
v -0.094293 0.625594 -0.866785
v -0.076087 0.884760 -0.800644
v -0.133894 0.875905 -0.615262
v -0.176366 0.351362 -0.755186
v -0.122956 0.461118 -0.822448
v -0.074085 0.261448 -0.943545
v -0.115719 0.421437 -0.914237
v -0.300371 0.229342 -0.738169
v -0.142616 0.177693 -0.770918
v -0.088906 0.154537 -0.950136
v -0.078417 0.068484 -0.745797
v -0.365748 0.182623 -0.779398
v -0.384029 0.484935 -0.936152
v -0.416981 0.114077 -0.974115
v -0.316013 0.624610 -1.020504
v -0.212876 0.239286 -1.108685
v -0.211291 0.424792 -1.062393
v -0.352227 0.614258 -0.740787
v -0.378166 0.536275 -0.818134
v -0.451714 0.879536 -0.832687
v -0.204488 0.859444 -0.548192
v -0.409072 0.856404 -0.645963
v -0.401107 0.898646 -0.965999
v -0.281789 0.907211 -1.041360
v -0.210490 0.732614 -1.016225
v -0.137128 0.481307 -0.984403
v -0.104962 0.356876 -0.928256
v -0.119976 0.899678 -0.936897
v -0.107504 0.576513 -0.878971
v -0.082154 0.883830 -0.802391
v -0.261368 -0.041286 -0.797014
v -0.345012 0.002684 -0.657454
v -0.279942 0.008294 -0.632903
v -0.153447 0.002648 -0.720082
v -0.118423 -0.027522 -0.823470
v -0.124427 0.005221 -0.717973
v -0.350649 0.000610 -0.686222
v -0.083070 -0.002817 -0.750546
v -0.060664 -0.003479 -0.798625
v -0.257226 -0.039812 -0.841588
v -0.184873 0.008702 -0.683586
v -0.216244 -0.003747 -0.651495
v -0.337145 0.164583 -0.712614
v -0.273754 0.113721 -0.650183
v -0.341068 0.086006 -0.667407
v -0.360008 -0.002075 -0.683853
v -0.271517 0.002910 -0.627736
v -0.229201 0.010676 -0.647818
v -0.349543 0.005782 -0.659840
v -0.433477 0.111680 -0.888620
v -0.394265 0.174970 -0.834742
v -0.191001 0.003187 -0.660099
v -0.153526 0.004726 -0.720592
v -0.124954 0.007461 -0.719671
v -0.077531 0.060550 -0.942265
v -0.089297 0.002052 -0.948635
v -0.081024 -0.006935 -0.884326
v -0.055611 -0.004232 -0.847792
v -0.057306 -0.002747 -0.797413
v -0.071856 -0.009122 -0.825001
v -0.087687 -0.003919 -0.905765
v -0.086466 -0.005619 -0.984660
v -0.116108 -0.013881 -1.069990
v -0.162159 -0.006050 -1.107434
v -0.254349 -0.000003 -1.116696
v -0.299929 -0.050701 -1.044653
v -0.062272 -0.002212 -0.845719
v -0.071856 -0.009122 -0.825001
v -0.323149 -0.042953 -0.898926
v -0.386302 -0.029878 -0.908873
v -0.415446 -0.003382 -0.969958
v -0.399435 -0.004680 -1.024827
v -0.355589 -0.005322 -1.077391
v -0.069838 1.055943 -0.789643
v -0.098796 1.005833 -0.866811
v -0.082303 0.993510 -0.786876
v -0.095186 1.047920 -0.866468
v -0.362759 0.180664 -1.050287
v -0.274016 -0.010148 -1.123961
v -0.382283 -0.004593 -1.059878
v -0.426606 -0.006631 -0.973280
v -0.144792 -0.005682 -1.101851
v -0.100912 0.257119 -1.030186
v -0.075006 -0.001371 -0.951551
v -0.251868 0.150028 -1.098209
v -0.079939 0.175853 -0.951612
v -0.078164 0.058644 -0.942332
v -0.087378 1.040725 -0.626932
v -0.066939 1.054431 -0.790404
v -0.084365 1.068754 -0.635400
v -0.082303 0.993510 -0.786876
v -0.080013 0.992071 -0.702577
v -0.392219 -0.010675 -0.763339
v -0.398720 0.006855 -0.740875
v -0.378594 -0.001103 -0.735352
v -0.305901 -0.031305 -0.747261
v -0.427283 -0.014921 -0.805268
v -0.352489 0.001374 -0.686380
v -0.438160 0.010003 -0.812045
v -0.442552 0.000149 -0.880311
v -0.386302 -0.029878 -0.908873
v -0.323149 -0.042953 -0.898926
v -0.257281 -0.038408 -0.841855
v -0.259781 -0.035086 -0.794881
v -0.415446 -0.003382 -0.969958
v -0.357989 0.000325 -0.683117
v -0.346882 0.087119 -0.662519
v -0.405034 0.048188 -0.752064
v -0.399475 0.019336 -0.742617
v -0.415202 0.024523 -0.752419
v -0.377367 0.004898 -0.759592
v -0.423207 -0.005739 -0.974019
v -0.445056 -0.006106 -0.832249
v -0.465157 0.017335 -0.823095
v -0.438512 0.052173 -0.792205
v -0.337239 0.166861 -0.711305
v -0.448177 0.002314 -0.807574
v -0.365786 0.182591 -0.779430
v -0.404034 0.175583 -0.835138
v -0.440718 0.112939 -0.887702
v -0.413923 0.113282 -0.972260
v -0.245813 1.070857 -0.431948
v -0.213547 1.130322 -0.403170
v -0.347645 1.274543 -0.399506
v -0.255427 1.191951 -1.045677
v -0.209797 1.333020 -1.047037
v -0.457580 1.292213 -0.992500
v -0.450639 1.173956 -0.979999
v -0.508645 1.284509 -0.605087
v -0.458310 1.140584 -0.601770
v -0.169899 1.185381 -1.001790
v -0.134516 1.266427 -0.985677
v -0.097634 1.131202 -0.927653
v -0.117480 1.105661 -0.926757
v -0.072393 1.101604 -0.859561
v -0.092847 1.051653 -0.853679
v -0.063296 1.062297 -0.784268
v -0.451173 1.332709 -0.479930
v -0.381983 1.152409 -0.462567
v -0.094010 0.991629 -0.622161
v -0.084919 1.043292 -0.632300
v -0.098461 1.069258 -0.560222
v -0.112380 1.027052 -0.547950
v -0.149645 1.100647 -0.418676
v -0.159071 1.043698 -0.465973
v -0.124080 1.061526 -0.479032
v -0.110308 1.098437 -0.492282
v -0.119765 1.127698 -0.427865
v -0.084919 1.043292 -0.632300
v -0.072971 1.031356 -0.781131
v -0.074565 1.028709 -0.706272
v -0.067139 1.067122 -0.711253
v -0.078508 1.087938 -0.640126
v -0.063296 1.066105 -0.784400
v -0.097634 1.130383 -0.951259
v -0.117480 1.104842 -0.950362
v -0.072393 1.090374 -0.882805
vn -0.9459 0.0266 -0.3235
vn -0.9878 -0.1556 0.0003
vn -0.9289 -0.0227 -0.3697
vn -0.9816 0.1849 -0.0469
vn -0.8383 0.3464 0.4211
vn -0.8377 0.3451 0.4232
vn -0.8118 0.3897 0.4348
vn -0.7801 0.3380 0.5265
vn -0.4280 -0.9018 0.0606
vn -0.5282 -0.7515 0.3954
vn -0.6587 0.2401 0.7130
vn -0.2220 -0.9175 -0.3300
vn -0.8332 -0.1267 0.5382
vn -0.7339 -0.2562 0.6291
vn 0.7793 -0.2769 -0.5622
vn -0.4927 0.1105 0.8631
vn -0.3739 -0.9272 -0.0234
vn -0.8683 -0.4828 -0.1137
vn -0.8421 -0.5015 -0.1983
vn 0.0266 -0.9959 0.0868
vn -0.2009 -0.9655 0.1655
vn 0.0583 -0.9923 0.1092
vn -0.1183 -0.9927 0.0224
vn -0.4697 -0.8794 0.0783
vn -0.9462 -0.1512 0.2860
vn -0.4875 -0.7365 0.4690
vn -0.3056 -0.7295 0.6120
vn -0.3329 -0.8606 0.3854
vn -0.4849 -0.4304 0.7614
vn -0.6659 0.1034 -0.7388
vn 0.1037 0.1237 -0.9869
vn -0.2237 0.0461 -0.9736
vn 0.9916 -0.0972 0.0858
vn 0.9824 -0.0522 0.1794
vn 0.9974 0.0061 0.0721
vn 0.9987 -0.0397 -0.0321
vn 0.9955 -0.0940 0.0089
vn 0.9870 0.1442 -0.0715
vn 0.8379 0.1244 -0.5315
vn 0.8240 0.1393 -0.5493
vn 0.9936 0.0525 -0.1004
vn 0.3391 0.2205 -0.9145
vn 0.9935 0.0750 -0.0861
vn 0.9344 -0.0082 -0.3561
vn -0.1520 0.1591 -0.9755
vn 0.5516 0.0534 -0.8324
vn -0.9858 0.1650 0.0310
vn -0.8717 0.1712 0.4592
vn -0.9666 0.0444 -0.2523
vn -0.8969 0.1258 -0.4240
vn -0.9006 0.0510 -0.4317
vn -0.7280 0.1429 -0.6705
vn 0.9453 -0.1062 -0.3084
vn 0.8858 -0.3003 -0.3537
vn 0.9835 -0.0755 -0.1647
vn 0.9916 -0.0547 -0.1174
vn -0.5181 -0.4068 -0.7524
vn -0.0573 -0.4491 -0.8917
vn -0.1179 -0.9476 -0.2970
vn -0.7301 -0.5636 -0.3865
vn -0.7022 -0.6498 -0.2908
vn -0.3335 -0.9410 -0.0566
vn -0.0889 -0.9954 0.0347
vn 0.3324 -0.9352 0.1219
vn 0.2188 -0.9693 0.1119
vn 0.5696 -0.8215 -0.0261
vn 0.0718 -0.9974 -0.0060
vn 0.6970 -0.7144 -0.0611
vn 0.8401 -0.5396 -0.0560
vn 0.1670 -0.9756 -0.1422
vn 0.1107 -0.8199 -0.5618
vn 0.7446 -0.6518 -0.1444
vn 0.9836 -0.0234 0.1788
vn -0.1503 -0.9882 -0.0292
vn 0.9961 -0.0309 -0.0829
vn 0.8097 0.2643 0.5240
vn 0.9950 0.0960 0.0292
vn 0.6570 -0.6899 -0.3039
vn 0.8972 -0.4334 -0.0848
vn 0.9468 -0.0053 0.3219
vn 0.7185 0.3212 0.6169
vn 0.3834 0.1220 0.9155
vn 0.5073 -0.7406 0.4406
vn 0.5159 0.0161 0.8565
vn 0.0337 0.3986 0.9165
vn -0.2973 0.2925 0.9089
vn 0.4194 0.2509 0.8724
vn -0.6070 0.5304 0.5918
vn -0.5645 0.7753 0.2831
vn -0.3819 0.1808 0.9063
vn -0.8944 0.1645 0.4159
vn -0.7552 0.1566 0.6366
vn 0.0151 0.2053 0.9786
vn 0.1335 -0.9500 0.2822
vn -0.0287 -0.9993 -0.0252
vn -0.0095 -0.9805 0.1965
vn 0.6838 0.2151 0.6972
vn 0.1254 -0.9763 0.1763
vn 0.0986 -0.9605 0.2602
vn 0.0613 -0.9543 0.2925
vn -0.1000 -0.9733 0.2068
vn -0.2914 -0.9428 0.1622
vn 0.9827 0.0157 -0.1845
vn 0.9874 -0.0130 -0.1580
vn 0.8197 0.0308 -0.5719
vn 0.3599 0.0308 -0.9325
vn -0.4283 0.0355 -0.9030
vn -0.0138 -0.0354 -0.9993
vn -0.7598 -0.0589 -0.6475
vn -0.9783 -0.1990 -0.0580
vn -0.9680 -0.0652 0.2424
vn -0.8105 -0.3949 0.4326
vn -0.7272 -0.2405 0.6430
vn -0.1387 -0.5750 0.8063
vn 0.6688 -0.3413 0.6605
vn 0.4360 -0.4512 0.7786
vn 0.7942 -0.3288 0.5111
vn -0.0920 -0.2989 0.9498
vn 0.4754 -0.0170 0.8796
vn 0.9436 -0.0025 0.3312
vn 0.9324 -0.0488 0.3582
vn 0.9867 0.1307 -0.0966
vn 0.9154 -0.0802 0.3945
vn 0.9118 -0.2277 0.3417
vn -0.8100 -0.5740 0.1201
vn -0.4690 -0.8260 0.3127
vn -0.3760 -0.5780 0.7243
vn -0.5138 -0.8112 0.2793
vn -0.8335 0.1081 0.5419
vn -0.9830 0.0543 0.1756
vn -0.8797 -0.3859 0.2779
vn -0.7325 0.0063 0.6807
vn -0.3075 -0.4483 0.8393
vn -0.6187 -0.0651 0.7829
vn -0.8112 0.1575 0.5632
vn 0.3406 -0.6151 0.7111
vn 0.4967 -0.7069 0.5035
vn 0.1228 -0.7543 0.6450
vn 0.9153 -0.2385 0.3246
vn 0.9129 -0.3659 0.1808
vn 0.7844 -0.3943 0.4789
vn -0.1044 -0.6065 0.7882
vn 0.9993 -0.0275 0.0241
vn 0.9949 -0.0717 -0.0711
vn 0.9451 -0.1692 0.2795
vn 0.5132 -0.4871 0.7067
vn -0.2386 -0.5094 0.8268
vn 0.9775 -0.1870 0.0977
vn -0.5631 -0.4369 0.7015
vn -0.8200 -0.3437 0.4577
vn -0.9677 -0.2195 0.1236
vn -0.9695 -0.2445 -0.0159
vn -0.7589 -0.3799 0.5289
vn -0.9023 -0.3186 0.2903
vn 0.9677 0.2386 -0.0818
vn 0.8984 0.0177 -0.4389
vn 0.8302 0.3723 0.4150
vn 0.8244 -0.1846 -0.5351
vn 0.9144 -0.2098 -0.3462
vn 0.5093 -0.1397 -0.8492
vn 0.7450 -0.5120 -0.4275
vn 0.6831 -0.1783 -0.7082
vn 0.2187 -0.1102 -0.9696
vn -0.1792 -0.1439 -0.9732
vn -0.9346 -0.1741 -0.3103
vn -0.7442 -0.1800 -0.6432
vn -0.4565 -0.1204 -0.8815
vn 0.9824 -0.1620 -0.0931
vn 0.9628 -0.2687 0.0298
vn 0.9133 -0.4024 -0.0633
vn 0.9595 -0.1751 0.2209
vn 0.9799 -0.1375 0.1442
vn 0.9721 -0.1176 0.2030
vn 0.9732 -0.1092 0.2025
vn 0.3995 -0.5535 0.7308
vn 0.5533 -0.5571 0.6192
vn 0.2955 -0.6777 0.6734
vn 0.6152 -0.5523 0.5626
vn 0.9464 -0.2497 0.2048
vn 0.9444 -0.2352 0.2298
vn 0.9274 -0.2138 0.3069
vn 0.9333 -0.2448 0.2628
vn -0.1080 -0.5035 0.8572
vn -0.0734 -0.3646 0.9282
vn 0.9672 -0.1337 0.2158
vn 0.9705 -0.0643 0.2324
vn 0.9654 -0.1086 0.2369
vn -0.6235 -0.2871 0.7272
vn -0.5468 -0.2746 0.7910
vn -0.7740 -0.2625 0.5762
vn -0.9222 -0.3006 0.2431
vn -0.9219 -0.2986 0.2469
vn 0.9775 -0.1602 -0.1371
vn 0.9244 -0.3289 -0.1931
vn 0.8823 -0.3022 -0.3608
vn 0.7176 -0.5730 -0.3959
vn 0.6983 -0.5393 -0.4706
vn 0.6738 -0.5796 -0.4582
vn 0.4756 -0.2714 -0.8368
vn 0.6334 -0.1073 -0.7663
vn 0.5499 -0.1111 -0.8278
vn 0.1948 -0.1025 -0.9755
vn 0.0477 -0.0534 -0.9974
vn -0.8149 -0.1188 -0.5673
vn -0.7285 -0.0963 -0.6783
vn 0.6870 -0.5646 -0.4575
vn 0.6700 -0.5216 -0.5283
vn 0.6448 -0.5614 -0.5187
vt 0.714104 0.393350
vt 0.730051 0.400785
vt 0.711182 0.409912
vt 0.721436 0.412354
vt 0.727293 0.424077
vt 0.733541 0.405453
vt 0.745354 0.425533
vt 0.735596 0.427490
vt 0.729591 0.396220
vt 0.732178 0.398682
vt 0.750371 0.413586
vt 0.742640 0.400119
vt 0.749195 0.401152
vt 0.740972 0.402596
vt 0.739014 0.406494
vt 0.739014 0.403076
vt 0.927490 0.753174
vt 0.919069 0.741688
vt 0.939209 0.742432
vt 0.909912 0.784912
vt 0.898134 0.777205
vt 0.919678 0.782959
vt 0.928467 0.766846
vt 0.904077 0.749290
vt 0.904124 0.743984
vt 0.890869 0.761963
vt 0.882161 0.770171
vt 0.897189 0.758097
vt 0.890869 0.757080
vt 0.698185 0.414876
vt 0.678099 0.416595
vt 0.684524 0.405726
vt 0.774219 0.557295
vt 0.770264 0.555908
vt 0.772705 0.543701
vt 0.781006 0.535400
vt 0.786838 0.539293
vt 0.648232 0.424347
vt 0.660571 0.414415
vt 0.654574 0.440460
vt 0.650521 0.401934
vt 0.670543 0.439794
vt 0.651123 0.386475
vt 0.653381 0.379167
vt 0.689860 0.385401
vt 0.673980 0.381534
vt 0.721392 0.412472
vt 0.727280 0.424346
vt 0.700652 0.460612
vt 0.711168 0.409991
vt 0.714107 0.393334
vt 0.704952 0.391064
vt 0.608154 0.477295
vt 0.603271 0.479248
vt 0.596925 0.469970
vt 0.603271 0.467041
vt 0.965088 0.750244
vt 0.978482 0.770364
vt 0.957355 0.765641
vt 0.951904 0.743408
vt 0.919701 0.826370
vt 0.922841 0.812166
vt 0.925049 0.822998
vt 0.919660 0.782962
vt 0.929879 0.824499
vt 0.941650 0.817139
vt 0.973733 0.801697
vt 0.980713 0.790283
vt 0.958116 0.812023
vt 0.793310 0.419410
vt 0.797119 0.420166
vt 0.799011 0.423145
vt 0.782206 0.423191
vt 0.802668 0.437979
vt 0.803624 0.426671
vt 0.809326 0.433350
vt 0.795883 0.448250
vt 0.771772 0.437496
vt 0.780783 0.413820
vt 0.778035 0.411370
vt 0.770537 0.408720
vt 0.756561 0.418653
vt 0.745268 0.437489
vt 0.766359 0.407462
vt 0.745378 0.425484
vt 0.735594 0.427495
vt 0.750311 0.413685
vt 0.749269 0.401142
vt 0.751793 0.402597
vt 0.761848 0.404892
vt 0.898190 0.811192
vt 0.882415 0.800204
vt 0.874915 0.788193
vt 0.889117 0.806517
vt 0.909932 0.784926
vt 0.908935 0.824464
vt 0.899532 0.817459
vt 0.876819 0.773648
vt 0.882003 0.770228
vt 0.614022 0.462166
vt 0.639338 0.444245
vt 0.630847 0.479773
vt 0.653026 0.474528
vt 0.675218 0.471429
vt 0.645783 0.496945
vt 0.663984 0.509375
vt 0.682926 0.519888
vt 0.711333 0.476063
vt 0.708300 0.533740
vt 0.719283 0.495065
vt 0.730214 0.542463
vt 0.745783 0.507564
vt 0.740479 0.543701
vt 0.752524 0.539507
vt 0.732229 0.494531
vt 0.755235 0.460623
vt 0.788095 0.459472
vt 0.762996 0.477257
vt 0.777133 0.475062
vt 0.770102 0.496608
vt 0.774109 0.525178
vt 0.902762 0.744145
vt 0.904057 0.749263
vt 0.890870 0.757078
vt 0.897217 0.758057
vt 0.733423 0.405371
vt 0.730225 0.400635
vt 0.732278 0.398690
vt 0.740925 0.401092
vt 0.740967 0.402588
vt 0.746302 0.571715
vt 0.757080 0.577881
vt 0.760241 0.589180
vt 0.770379 0.555699
vt 0.761963 0.577393
vt 0.756006 0.558612
vt 0.742166 0.596413
vt 0.774170 0.525146
vt 0.780974 0.535364
vt 0.759082 0.535630
vt 0.743597 0.542921
vt 0.729057 0.542033
vt 0.722418 0.606717
vt 0.709409 0.535347
vt 0.684375 0.550773
vt 0.682554 0.519710
vt 0.702881 0.600342
vt 0.690048 0.584312
vt 0.603348 0.467003
vt 0.614068 0.462230
vt 0.608159 0.477292
vt 0.601829 0.491939
vt 0.638058 0.490275
vt 0.597172 0.471061
vt 0.601824 0.504152
vt 0.605994 0.518678
vt 0.649168 0.499758
vt 0.650386 0.550208
vt 0.662093 0.508320
vt 0.628937 0.533927
vt 0.786865 0.539307
vt 0.780029 0.548096
vt 0.783936 0.537842
vt 0.774170 0.557373
vt 0.776611 0.546631
vt 0.751994 0.578939
vt 0.755088 0.590589
vt 0.760498 0.589111
vt 0.764893 0.566162
vt 0.760010 0.565674
vt 0.744546 0.595547
vt 0.739563 0.584789
vt 0.765381 0.553955
vt 0.718506 0.587646
vt 0.722412 0.606689
vt 0.697487 0.570506
vt 0.687678 0.582036
vt 0.596924 0.469971
vt 0.599365 0.480713
vt 0.606689 0.490967
vt 0.601807 0.491943
vt 0.601807 0.504150
vt 0.610107 0.505127
vt 0.605884 0.518594
vt 0.620159 0.514536
vt 0.645338 0.533202
vt 0.637958 0.540834
s 1
usemtl African_Elephant_Male_Skin.001
f 158/1/1 160/2/2 167/3/3
f 160/2/2 166/4/4 167/3/3
f 166/4/4 160/2/2 165/5/5
f 160/2/2 161/6/6 165/5/5
f 165/5/5 161/6/6 162/7/7
f 162/7/7 164/8/8 165/5/5
f 159/9/9 163/10/10 160/2/2
f 162/7/7 161/6/6 153/11/11
f 159/9/9 160/2/2 158/1/1
f 157/12/12 152/13/13 155/14/14
f 154/15/15 156/16/16 155/14/14
f 155/14/14 152/13/13 154/15/15
f 152/13/13 161/6/6 154/15/15
f 152/13/13 153/11/11 161/6/6
f 147/17/17 146/18/18 151/19/19
f 150/20/20 142/21/21 149/22/22
f 149/22/22 142/21/21 148/23/23
f 147/17/17 148/23/23 142/21/21
f 143/24/24 147/17/17 142/21/21
f 147/17/17 143/24/24 146/18/18
f 146/18/18 143/24/24 145/25/25
f 141/26/26 142/21/21 144/27/27
f 141/26/26 139/28/28 142/21/21
f 139/28/28 143/24/24 142/21/21
f 141/26/26 140/29/29 139/28/28
f 124/30/30 62/31/31 131/32/32
f 136/33/33 134/34/34 138/35/35
f 136/33/33 138/35/35 137/36/36
f 135/37/37 136/33/33 137/36/36
f 73/38/38 129/39/39 72/40/40
f 73/38/38 132/41/41 129/39/39
f 63/42/42 72/40/40 129/39/39
f 133/43/43 130/44/44 129/39/39
f 132/41/41 133/43/43 129/39/39
f 62/31/31 63/42/42 129/39/39
f 124/30/30 131/32/32 125/45/45
f 125/45/45 131/32/32 128/46/46
f 131/32/32 62/31/31 128/46/46
f 62/31/31 129/39/39 128/46/46
f 128/46/46 129/39/39 130/44/44
f 96/47/47 97/48/48 59/49/49
f 59/49/49 60/50/50 96/47/47
f 127/51/51 60/50/50 124/30/30
f 126/52/52 127/51/51 124/30/30
f 126/52/52 124/30/30 125/45/45
f 121/53/53 123/54/54 120/55/55
f 122/56/56 121/53/53 120/55/55
f 119/57/57 111/58/58 112/59/59
f 112/59/59 118/60/60 119/57/57
f 112/59/59 117/19/61 118/60/60
f 112/59/59 116/17/62 117/19/61
f 115/23/63 116/17/62 112/59/59
f 85/61/64 81/62/65 114/63/66
f 86/64/67 115/23/63 112/59/59
f 81/62/65 86/64/67 112/59/59
f 114/63/66 81/62/65 113/65/68
f 113/65/68 81/62/65 107/66/69
f 81/62/65 112/59/59 109/67/70
f 112/59/59 111/58/58 109/67/70
f 111/58/58 110/68/71 109/67/70
f 81/62/65 109/67/70 108/69/72
f 108/69/72 107/66/69 81/62/65
f 105/70/73 106/71/74 104/72/75
f 105/70/73 104/72/75 57/73/76
f 104/72/75 101/74/77 57/73/76
f 101/74/77 104/72/75 103/75/78
f 103/75/78 102/76/79 101/74/77
f 56/77/80 55/78/81 101/74/77
f 101/74/77 55/78/81 57/73/76
f 100/79/82 105/70/73 57/73/76
f 99/80/83 100/79/82 57/73/76
f 99/80/83 57/73/76 98/81/84
f 55/78/81 90/82/85 57/73/76
f 90/82/85 55/78/81 54/83/86
f 98/81/84 57/73/76 94/84/87
f 94/84/87 57/73/76 90/82/85
f 90/82/85 54/83/86 89/85/88
f 54/83/86 58/86/89 89/85/88
f 91/87/90 92/88/91 95/89/92
f 91/87/90 95/89/92 93/90/93
f 93/90/93 94/84/87 90/82/85
f 93/90/93 90/82/85 91/87/90
f 91/87/90 90/82/85 89/85/88
f 80/91/94 88/92/95 79/93/96
f 80/91/94 87/94/97 88/92/95
f 81/62/65 77/95/98 86/64/67
f 81/62/65 85/61/64 84/96/99
f 84/96/99 82/97/100 81/62/65
f 78/98/101 83/99/102 77/95/98
f 81/62/65 82/97/100 80/91/94
f 80/91/94 77/95/98 81/62/65
f 77/95/98 80/91/94 79/93/96
f 79/93/96 78/98/101 77/95/98
f 76/100/103 75/101/104 74/102/105
f 75/101/104 72/40/40 74/102/105
f 75/101/104 73/38/38 72/40/40
f 71/103/106 74/102/105 72/40/40
f 61/104/107 70/105/108 71/103/106
f 69/106/109 70/105/108 61/104/107
f 63/42/42 71/103/106 72/40/40
f 63/42/42 61/104/107 71/103/106
f 59/49/49 69/106/109 61/104/107
f 74/102/105 71/103/106 70/105/108
f 59/49/49 66/107/110 69/106/109
f 59/49/49 65/108/111 66/107/110
f 68/109/112 64/110/113 44/111/114
f 46/112/115 67/113/116 44/111/114
f 49/114/117 67/113/116 46/112/115
f 65/108/111 64/110/113 66/107/110
f 64/110/113 68/109/112 66/107/110
f 97/48/48 64/110/113 65/108/111
f 54/83/86 45/115/118 64/110/113
f 97/48/48 54/83/86 64/110/113
f 97/48/48 65/108/111 59/49/49
f 124/30/30 60/50/50 59/49/49
f 124/30/30 59/49/49 61/104/107
f 62/31/31 61/104/107 63/42/42
f 61/104/107 62/31/31 124/30/30
f 58/86/89 54/83/86 97/48/48
f 50/116/119 54/83/86 55/78/81
f 56/77/80 52/117/120 55/78/81
f 52/117/120 51/118/121 55/78/81
f 51/118/121 50/116/119 55/78/81
f 50/116/119 45/115/118 54/83/86
f 53/119/122 47/120/123 51/118/121
f 53/119/122 51/118/121 52/117/120
f 48/121/124 49/114/117 46/112/115
f 47/120/123 48/121/124 46/112/115
f 47/120/123 46/112/115 51/118/121
f 51/118/121 46/112/115 50/116/119
f 50/116/119 46/112/115 45/115/118
f 44/111/114 64/110/113 45/115/118
f 46/112/115 44/111/114 45/115/118
f 43/122/125 42/123/126 40/124/127
f 42/123/126 41/125/128 40/124/127
f 33/126/129 38/127/130 39/128/131
f 33/126/129 39/128/131 35/16/132
f 39/128/131 36/129/133 35/16/132
f 37/130/134 35/16/132 36/129/133
f 35/16/132 34/15/135 33/126/129
f 22/131/136 31/132/137 30/133/138
f 28/134/139 32/135/140 24/136/141
f 32/135/140 31/132/137 24/136/141
f 31/132/137 22/131/136 24/136/141
f 30/133/138 1/137/142 22/131/136
f 29/138/143 26/139/144 25/140/145
f 25/140/145 24/136/141 23/141/146
f 28/134/139 24/136/141 25/140/145
f 21/142/147 22/131/136 1/137/142
f 27/35/148 28/134/139 25/140/145
f 26/139/144 27/35/148 25/140/145
f 24/136/141 22/131/136 23/141/146
f 23/141/146 22/131/136 21/142/147
f 2/143/149 21/142/147 1/137/142
f 19/144/150 7/145/151 10/146/152
f 21/142/147 2/143/149 19/144/150
f 2/143/149 20/147/153 19/144/150
f 20/147/153 6/148/154 19/144/150
f 19/144/150 6/148/154 7/145/151
f 17/149/155 18/150/156 16/151/157
f 16/151/157 13/152/158 15/54/159
f 13/152/158 16/151/157 18/150/156
f 13/152/158 18/150/156 11/153/160
f 14/154/161 15/54/159 13/152/158
f 11/153/160 12/155/162 13/152/158
f 11/153/160 3/156/163 12/155/162
f 11/153/160 9/157/164 3/156/163
f 10/146/152 5/158/165 8/159/166
f 7/145/151 5/158/165 10/146/152
f 9/157/164 4/160/167 3/156/163
f 9/157/164 8/159/166 4/160/167
f 4/160/167 8/159/166 5/158/165
f 7/145/151 6/148/154 5/158/165
f 200/161/168 198/162/169 196/163/170
f 198/162/171 199/164/172 197/165/173
f 199/164/172 195/34/174 197/165/173
f 191/166/175 192/132/176 190/167/177
f 192/132/176 194/168/178 190/167/177
f 188/169/179 193/135/180 189/170/181
f 193/135/180 192/132/182 189/170/181
f 169/171/183 168/172/184 191/166/175
f 190/167/177 169/171/183 191/166/175
f 187/34/185 188/169/186 186/173/187
f 168/172/184 169/171/183 185/174/188
f 169/171/183 170/175/189 185/174/188
f 185/174/188 184/147/190 176/176/191
f 184/147/190 185/174/188 170/175/189
f 184/147/190 175/177/192 176/176/191
f 183/178/193 182/54/194 181/179/195
f 181/179/196 180/180/197 179/181/198
f 178/182/199 179/181/200 177/183/201
f 178/182/199 177/183/201 172/184/202
f 172/184/202 177/183/201 171/185/203
f 176/176/191 175/177/192 174/186/204
f 175/177/192 173/187/205 174/186/204
f 171/185/203 174/186/204 173/187/205
f 171/185/203 173/187/205 172/184/202
f 203/179/206 202/180/207 201/181/208
