# Blender 4.5.2 LTS
# www.blender.org
mtllib elefante_pata_izq_atras.mtl
o elefante_pata_izq_atras
v 0.287937 0.065701 -0.674958
v 0.341373 0.086396 -0.703274
v 0.349755 0.005142 -0.698088
v 0.230992 0.006948 -0.682379
v 0.188188 0.004362 -0.702467
v 0.141065 0.010102 -0.774105
v 0.207527 0.126257 -0.714587
v 0.358943 -0.001474 -0.723983
v 0.143045 0.080927 -0.740799
v 0.096314 -0.001023 -0.768344
v 0.100604 0.108284 -0.792404
v 0.346084 0.133858 -0.714661
v 0.052689 0.077490 -0.863382
v 0.059200 0.001094 -0.837291
v 0.044538 0.027176 -0.865084
v 0.124546 0.006547 -0.756387
v 0.153867 0.004136 -0.758312
v 0.098262 -0.017464 -0.834263
v 0.261412 -0.037264 -0.836974
v 0.279960 0.006468 -0.671332
v 0.345260 0.002024 -0.696052
v 0.195533 0.014798 -0.722305
v 0.229399 0.009551 -0.686551
v 0.351032 0.001199 -0.725902
v 0.187000 -0.029015 -0.874714
v 0.083244 -0.000355 -0.789179
v 0.059072 -0.001642 -0.839703
v 0.257456 -0.032760 -0.881667
v 0.192923 -0.036006 -1.035967
v 0.254365 -0.039134 -0.986775
v 0.323324 -0.035324 -0.938862
v 0.316790 -0.037621 -0.991364
v 0.255113 -0.036615 -1.034699
v 0.393099 -0.009657 -0.802283
v 0.402095 0.005260 -0.775505
v 0.425406 -0.004150 -0.844727
v 0.449321 0.005907 -0.845893
v 0.448206 1.232658 -0.453810
v 0.511157 1.205487 -0.733621
v 0.399805 1.223385 -1.047263
v 0.498478 1.210901 -0.905974
v 0.211577 1.246359 -1.065714
v 0.070340 1.135129 -0.954428
v 0.043608 1.094499 -0.798383
v 0.115077 1.057251 -0.918354
v 0.058623 1.096524 -0.874393
v 0.125232 0.765003 -0.961944
v 0.135938 0.337168 -1.070696
v 0.246812 0.336709 -1.114744
v 0.146233 0.533456 -1.022514
v 0.210683 0.956715 -1.035424
v 0.276530 0.765953 -1.033758
v 0.376813 0.737965 -0.972370
v 0.433653 0.786274 -0.854583
v 0.469374 1.214985 -0.541036
v 0.307203 0.880966 -0.534998
v 0.217604 0.686299 -0.667184
v 0.391438 0.751329 -0.702665
v 0.300229 0.602824 -0.730046
v 0.383772 0.523498 -0.915857
v 0.362754 0.535853 -0.800293
v 0.344119 0.330460 -1.068216
v 0.400917 0.323827 -0.959002
v 0.351946 0.320204 -0.797712
v 0.158161 0.593214 -0.753149
v 0.092628 0.792186 -0.775205
v 0.084686 0.925544 -0.799506
v 0.110705 0.564007 -0.903042
v 0.193867 0.325674 -0.762414
v 0.104517 0.328353 -0.873321
v 0.102118 0.331542 -0.962473
v 0.123287 1.088690 -0.406186
v 0.238412 1.109223 -0.373584
v 0.110889 1.071906 -0.475570
v 0.097988 1.100801 -0.487000
v 0.091419 1.083930 -0.559455
v 0.097970 1.053037 -0.549789
v 0.051514 1.078041 -0.795417
v 0.057345 1.080727 -0.716486
v 0.081571 1.020000 -0.789763
v 0.068470 1.054796 -0.713550
v 0.138897 0.978754 -0.555828
v 0.350659 1.189229 -0.364941
v 0.450208 0.019325 -0.850089
v 0.454893 0.003821 -0.843181
v 0.446398 0.025405 -0.828403
v 0.416510 0.027034 -0.789074
v 0.431166 0.058275 -0.812462
v 0.405162 0.050700 -0.788929
v 0.399969 0.007836 -0.778147
v 0.400598 0.021289 -0.779476
v 0.098951 0.332157 -0.962562
v 0.107024 0.590889 -0.895194
v 0.086778 0.940329 -0.794763
v 0.351172 0.004408 -0.725469
v 0.378594 0.001215 -0.773988
v 0.394191 -0.012916 -0.801796
v 0.398924 0.009016 -0.779238
v 0.262001 -0.034657 -0.836761
v 0.257456 -0.032760 -0.881667
v 0.323324 -0.035324 -0.938862
v 0.427345 -0.007543 -0.844334
v 0.438258 0.014696 -0.850193
v 0.445372 0.001013 -0.921955
v 0.308637 -0.033115 -1.094239
v 0.399610 0.007290 -1.063360
v 0.316790 -0.037621 -0.991364
v 0.255113 -0.036615 -1.034699
v 0.193050 -0.033951 -1.036115
v 0.254450 -0.037969 -0.986795
v 0.355764 0.008470 -1.115915
v 0.254524 0.015148 -1.155012
v 0.116283 -0.000341 -1.108815
v 0.099661 -0.014137 -0.834796
v 0.087861 0.003924 -0.944344
v 0.062446 0.003547 -0.884275
v 0.072031 -0.004076 -0.863808
v 0.162334 0.008784 -1.145966
v 0.086641 0.004960 -1.023251
v 0.187007 -0.028883 -0.874720
v 0.062991 0.003982 -0.839600
v 0.102652 0.339895 -1.037041
v 0.086253 0.336099 -0.964396
v 0.152724 0.341549 -1.102059
v 0.088493 0.158624 -0.982244
v 0.144967 0.008958 -1.140373
v 0.075171 0.008056 -0.990029
v 0.078251 0.067734 -0.978731
v 0.310010 0.333473 -1.098033
v 0.425090 0.164265 -0.984978
v 0.467062 0.059618 -0.909918
v 0.295110 0.169319 -1.127107
v 0.274191 0.005261 -1.162624
v 0.218660 0.231321 -1.138782
v 0.392121 0.190820 -0.847146
v 0.434929 0.059163 -0.809949
v 0.293102 0.216682 -0.753914
v 0.381280 0.328140 -1.026683
v 0.434873 0.017000 -0.844382
v 0.405162 0.050700 -0.788929
v 0.396618 0.320710 -0.893475
v 0.311167 0.321956 -0.764152
v 0.180148 0.326669 -0.782506
v 0.114770 0.159218 -0.842978
v 0.075346 0.332952 -0.957076
v 0.076984 0.253109 -0.976191
v 0.108002 0.103122 -0.793536
v 0.344296 0.129492 -0.720469
v 0.065551 0.072477 -0.863859
v 0.144864 0.079628 -0.745664
v 0.192258 0.117186 -0.724864
v 0.049517 0.026172 -0.869770
v 0.073899 0.071967 -0.979808
v 0.063050 0.007382 -0.838753
v 0.060355 -0.002582 -0.874112
v 0.081246 0.000183 -0.923021
v 0.089472 0.011377 -0.986981
v 0.358423 0.000056 -0.722285
v 0.399648 0.021506 -0.780501
v 0.377677 0.008279 -0.798246
v 0.415377 0.027039 -0.790097
v 0.342369 0.087791 -0.701469
v 0.443516 -0.001174 -0.870338
v 0.399280 0.008686 -1.076310
v 0.448206 1.369292 -0.453810
v 0.517324 1.318387 -0.685789
v 0.302892 1.372250 -1.072979
v 0.255883 1.231490 -1.070992
v 0.443395 1.209922 -1.007939
v 0.469871 1.339030 -0.975232
v 0.223639 1.391617 -1.048676
v 0.075420 1.217951 -0.944844
v 0.043125 1.142869 -0.802987
v 0.074490 1.108768 -0.873203
v 0.051514 1.112525 -0.795417
v 0.058462 1.142985 -0.874541
v 0.100308 1.179757 -0.945234
v 0.171246 1.225094 -1.023799
v 0.451529 1.154828 -0.578948
v 0.475489 1.335473 -0.552025
v 0.152745 1.048508 -0.458302
v 0.150992 1.103526 -0.396780
v 0.120952 1.133436 -0.404993
v 0.110889 1.102338 -0.475570
v 0.097988 1.150322 -0.487000
v 0.098884 1.071830 -0.550054
v 0.051514 1.112525 -0.795417
v 0.057345 1.116986 -0.716486
v 0.068141 1.075471 -0.713771
v 0.076447 1.039073 -0.790813
v 0.077640 1.028334 -0.708541
v 0.093878 1.120892 -0.559808
v 0.245470 1.071382 -0.413304
v 0.380076 1.163788 -0.441811
v 0.346462 1.299896 -0.368984
v 0.214102 1.136425 -0.377951
vn 0.7323 -0.6315 0.2549
vn 0.7285 0.2350 -0.6435
vn 0.9999 0.0029 -0.0121
vn 0.9312 -0.1752 0.3197
vn 0.8765 -0.0358 0.4800
vn 0.6676 0.4196 0.6150
vn 0.8265 0.1274 0.5483
vn 0.6425 -0.0226 0.7660
vn 0.7853 -0.1931 0.5882
vn 0.4778 0.0908 0.8738
vn 0.2380 -0.9075 -0.3462
vn 0.8623 0.2028 0.4641
vn -0.8720 -0.4784 -0.1035
vn -0.7217 -0.6433 -0.2554
vn -0.9996 0.0265 -0.0026
vn -0.9774 -0.1356 -0.1619
vn -0.8891 0.4577 0.0084
vn -0.7312 -0.6753 -0.0965
vn -0.8834 -0.2554 0.3930
vn -0.8317 0.2682 0.4861
vn -0.9716 -0.0915 0.2183
vn -0.5011 0.5240 0.6887
vn 0.1926 0.2684 0.9439
vn -0.6405 0.5537 0.5322
vn -0.6509 0.2666 0.7109
vn -0.5380 -0.0003 0.8429
vn -0.9191 0.0307 0.3927
vn 0.3847 0.0010 0.9230
vn 0.8631 0.2253 0.4520
vn 0.9639 0.1432 0.2244
vn 0.9345 0.1703 -0.3125
vn 0.8613 0.0979 -0.4986
vn 0.4339 0.0842 -0.8970
vn 0.4770 0.1864 -0.8589
vn -0.9160 0.0709 -0.3950
vn -0.8985 -0.0080 -0.4390
vn -0.5198 0.1373 -0.8432
vn -0.5625 0.1270 -0.8170
vn -0.0107 0.1461 -0.9892
vn 0.1819 0.2026 -0.9622
vn -0.9953 0.0888 -0.0394
vn -0.9769 0.1202 0.1769
vn -0.9905 0.0943 -0.1003
vn -0.3347 -0.9140 -0.2293
vn -0.3181 -0.9468 -0.0479
vn -0.8406 -0.5417 0.0058
vn -0.1593 -0.9870 0.0210
vn -0.1931 -0.9732 -0.1246
vn -0.9502 -0.3072 -0.0527
vn -0.7222 -0.6707 -0.1690
vn -0.1886 -0.9557 -0.2261
vn -0.1107 -0.7999 -0.5898
vn 0.0501 -0.4096 -0.9109
vn -0.6128 -0.7876 -0.0648
vn 0.1751 -0.8927 -0.4153
vn 0.5667 -0.3122 -0.7625
vn 0.7413 -0.5028 -0.4446
vn -0.0085 -0.9989 -0.0460
vn -0.0197 -0.9996 -0.0203
vn 0.6303 -0.7733 -0.0697
vn 0.1945 -0.9800 0.0433
vn 0.2417 -0.9703 0.0129
vn 0.1395 -0.9852 0.1000
vn 0.2242 -0.9575 0.1813
vn 0.6781 -0.7125 0.1802
vn -0.7980 0.2325 -0.5561
vn 0.1809 -0.9384 0.2944
vn -0.1177 -0.9930 0.0012
vn 0.8399 -0.0347 0.5416
vn 0.4504 -0.3666 0.8141
vn -0.8082 0.0136 -0.5888
vn -0.9755 -0.0989 -0.1964
vn -0.8679 -0.3601 -0.3421
vn -0.9824 0.0180 -0.1860
vn -0.7343 0.1762 -0.6556
vn -0.9535 0.0647 -0.2944
vn -0.7070 0.1912 -0.6809
vn 0.0151 0.1880 -0.9820
vn 0.0728 0.0201 -0.9971
vn 0.7028 0.1379 -0.6979
vn 0.7654 -0.0569 -0.6411
vn 0.8180 -0.3447 0.4605
vn 0.2701 -0.3841 0.8829
vn 0.8827 -0.1567 0.4430
vn -0.1937 -0.5332 0.8235
vn -0.6699 -0.2770 0.6889
vn -0.9979 -0.0386 -0.0514
vn -0.9669 -0.1965 0.1630
vn -0.9606 -0.1942 -0.1988
vn 0.2649 -0.4326 0.8618
vn 0.7022 -0.0440 0.7106
vn 0.4726 -0.0193 0.8811
vn 0.9623 -0.2692 0.0383
vn 0.7822 0.0686 0.6192
vn 0.6939 0.1909 0.6943
vn 0.8682 0.0772 0.4902
vn 0.9332 0.3591 0.0144
vn 0.5907 -0.7498 0.2981
vn 0.6275 -0.4966 0.5997
vn 0.8307 -0.3832 0.4039
vn 0.3841 -0.5245 0.7599
vn 0.0870 -0.6248 0.7759
vn -0.1424 -0.8256 0.5460
vn -0.6945 -0.4752 0.5402
vn -0.8905 -0.3547 0.2849
vn -0.9186 -0.3200 0.2318
vn -0.9129 -0.3299 0.2403
vn -0.9712 -0.1736 0.1634
vn -0.9617 -0.2640 0.0743
vn -0.9067 -0.4196 0.0437
vn -0.9167 -0.3944 -0.0642
vn 0.9850 0.0995 -0.1412
vn 0.9971 -0.0421 -0.0635
vn 0.7175 -0.1200 0.6862
vn -0.9531 -0.0015 0.3026
vn -0.3494 -0.1435 0.9259
vn -0.9590 -0.0946 0.2672
vn -0.9996 -0.0274 -0.0041
vn 0.9804 -0.1887 -0.0574
vn 0.9742 -0.2157 0.0661
vn 0.9250 -0.1617 -0.3439
vn 0.5005 -0.1194 -0.8575
vn -0.7227 -0.3995 -0.5640
vn -0.2015 -0.1142 -0.9728
vn -0.5075 -0.1221 -0.8529
vn -0.6360 -0.7340 -0.2383
vn -0.9038 -0.3122 -0.2927
vn 0.7180 -0.6961 0.0018
vn 0.3669 -0.6449 0.6705
vn 0.3851 -0.8999 0.2046
vn 0.4438 -0.8703 0.2138
vn 0.0193 -0.9965 -0.0817
vn -0.0418 -0.9980 0.0480
vn -0.0649 -0.9968 -0.0459
vn 0.1379 -0.9904 0.0094
vn 0.1004 -0.9943 0.0353
vn -0.0013 -0.9997 0.0247
vn -0.0338 -0.9993 -0.0180
vn -0.0976 -0.9844 0.1466
vn -0.1823 -0.9422 0.2812
vn -0.1794 -0.9384 0.2952
vn -0.6956 -0.7099 -0.1100
vn -0.0403 -0.9494 0.3115
vn 0.2692 -0.9531 0.1379
vn 0.1232 -0.9727 0.1966
vn -0.5854 -0.3346 0.7385
vn -0.0804 -0.9678 0.2386
vn -0.2868 -0.8847 0.3675
vn -0.1296 -0.9357 0.3280
vn -0.9046 0.0545 0.4228
vn -0.8450 0.1296 0.5188
vn -0.8166 0.0994 0.5686
vn -0.6287 0.0725 0.7742
vn -0.7012 -0.0397 0.7119
vn -0.8114 -0.1141 0.5733
vn 0.4880 0.2354 0.8405
vn 0.2907 0.4038 0.8674
vn 0.0448 0.1457 0.9883
vn -0.3029 0.2471 0.9204
vn -0.5896 0.0719 0.8045
vn -0.2717 -0.3911 0.8793
vn 0.9236 0.1213 0.3635
vn 0.7164 0.0698 0.6941
vn -0.0951 0.2092 0.9732
vn -0.1955 -0.7731 0.6034
vn -0.4597 -0.5966 0.6578
vn 0.2593 -0.4907 0.8319
vn 0.0405 -0.4278 0.9030
vn 0.6404 -0.2812 0.7147
vn 0.5844 -0.2775 0.7626
vn 0.8331 -0.2192 0.5078
vn 0.9302 -0.1938 0.3117
vn 0.9330 -0.2604 0.2485
vn -0.9560 -0.1834 0.2289
vn -0.9479 -0.2151 0.2351
vn -0.9495 -0.1840 0.2540
vn -0.9897 -0.0610 0.1291
vn -0.9815 -0.1170 0.1518
vn -0.9712 -0.1214 0.2050
vn -0.9571 -0.1748 0.2313
vn -0.8944 -0.4468 -0.0189
vn -0.9686 -0.2484 -0.0070
vn -0.9577 -0.2840 0.0471
vn -0.9655 -0.2541 -0.0575
vn -0.7814 -0.5211 0.3432
vn -0.6932 -0.5840 0.4225
vn 0.9441 -0.3265 0.0452
vn 0.7688 -0.0779 -0.6347
vn -0.8633 -0.3848 -0.3267
vn -0.8097 -0.4171 -0.4129
vn -0.6381 -0.2683 -0.7217
vn -0.4113 0.0093 -0.9114
vn 0.0926 -0.0193 -0.9955
vn -0.1428 0.0159 -0.9896
vn -0.6648 0.1180 -0.7377
vn -0.4796 -0.3099 -0.8209
vn -0.5979 -0.7727 -0.2133
vn -0.8892 -0.4285 -0.1601
vn 0.8441 -0.0554 -0.5332
vt 0.272295 0.396230
vt 0.294626 0.391702
vt 0.277728 0.403252
vt 0.269904 0.400382
vt 0.252749 0.400653
vt 0.254220 0.418660
vt 0.251709 0.413330
vt 0.262451 0.406494
vt 0.260978 0.402108
vt 0.262939 0.402588
vt 0.259342 0.399977
vt 0.266381 0.406559
vt 0.192139 0.432861
vt 0.198042 0.425982
vt 0.199053 0.438272
vt 0.206312 0.424049
vt 0.211151 0.429006
vt 0.203500 0.421369
vt 0.208252 0.419071
vt 0.222796 0.439002
vt 0.212253 0.457000
vt 0.235989 0.423317
vt 0.253447 0.432579
vt 0.222451 0.427054
vt 0.227783 0.421143
vt 0.245786 0.455427
vt 0.218372 0.464461
vt 0.263012 0.449985
vt 0.272775 0.426423
vt 0.283506 0.442372
vt 0.287497 0.414643
vt 0.300289 0.436296
vt 0.312220 0.407973
vt 0.313795 0.431860
vt 0.349059 0.379655
vt 0.342106 0.423416
vt 0.330722 0.424265
vt 0.328143 0.382022
vt 0.322674 0.414142
vt 0.312093 0.385400
vt 0.351318 0.387451
vt 0.351130 0.399463
vt 0.352784 0.421653
vt 0.072021 0.822998
vt 0.078877 0.818231
vt 0.076416 0.826416
vt 0.074951 0.798096
vt 0.042348 0.788856
vt 0.054932 0.817139
vt 0.038667 0.812511
vt 0.022847 0.802194
vt 0.015869 0.791260
vt 0.018100 0.770853
vt 0.066697 0.824988
vt 0.037055 0.765749
vt 0.031006 0.750732
vt 0.044189 0.743896
vt 0.045166 0.777100
vt 0.054932 0.779053
vt 0.056396 0.766357
vt 0.067627 0.766846
vt 0.076221 0.741755
vt 0.086126 0.784459
vt 0.099319 0.758045
vt 0.091577 0.743983
vt 0.091502 0.749223
vt 0.113525 0.769782
vt 0.076416 0.782959
vt 0.105225 0.761963
vt 0.105225 0.757080
vt 0.362342 0.469768
vt 0.392940 0.466315
vt 0.392322 0.484728
vt 0.362617 0.445790
vt 0.345623 0.449117
vt 0.352782 0.421625
vt 0.337601 0.424706
vt 0.322011 0.429025
vt 0.341746 0.481608
vt 0.308129 0.433753
vt 0.324692 0.489593
vt 0.290344 0.519438
vt 0.272820 0.494819
vt 0.283609 0.479077
vt 0.264349 0.513493
vt 0.251607 0.494785
vt 0.224474 0.528358
vt 0.236783 0.518439
vt 0.217852 0.536406
vt 0.261019 0.400613
vt 0.262953 0.402588
vt 0.260986 0.402100
vt 0.269693 0.398200
vt 0.266357 0.406494
vt 0.268311 0.401123
vt 0.270389 0.400300
vt 0.297607 0.600342
vt 0.278071 0.606717
vt 0.307484 0.587348
vt 0.273176 0.551004
vt 0.258671 0.597762
vt 0.240344 0.588715
vt 0.246667 0.559339
vt 0.235615 0.566147
vt 0.238525 0.577393
vt 0.234131 0.577393
vt 0.231201 0.566650
vt 0.220458 0.547602
vt 0.217041 0.549072
vt 0.211182 0.540283
vt 0.292303 0.439213
vt 0.298887 0.468736
vt 0.269700 0.447485
vt 0.229244 0.460331
vt 0.247906 0.454875
vt 0.229708 0.487961
vt 0.218008 0.464585
vt 0.311586 0.511957
vt 0.327604 0.568209
vt 0.349616 0.550470
vt 0.368714 0.536385
vt 0.403094 0.494346
vt 0.394006 0.519654
vt 0.368447 0.495120
vt 0.404542 0.484619
vt 0.409604 0.476035
vt 0.092509 0.743885
vt 0.105195 0.757037
vt 0.091555 0.749270
vt 0.099365 0.758057
vt 0.054934 0.779053
vt 0.042389 0.788870
vt 0.074951 0.798096
vt 0.086142 0.784450
vt 0.078863 0.818305
vt 0.088135 0.823975
vt 0.076406 0.826417
vt 0.097041 0.817467
vt 0.113596 0.769740
vt 0.119268 0.773142
vt 0.108407 0.805218
vt 0.121660 0.787739
vt 0.116943 0.798096
vt 0.098390 0.811190
vt 0.206348 0.424011
vt 0.208437 0.418483
vt 0.211117 0.429020
vt 0.218021 0.413650
vt 0.227809 0.421142
vt 0.222081 0.427214
vt 0.251644 0.413201
vt 0.254141 0.418706
vt 0.244360 0.411543
vt 0.238027 0.423340
vt 0.230056 0.408678
vt 0.222035 0.412288
vt 0.252683 0.400665
vt 0.250149 0.402109
vt 0.235896 0.406760
vt 0.245344 0.590243
vt 0.246843 0.578146
vt 0.255518 0.595399
vt 0.260831 0.584767
vt 0.281982 0.587646
vt 0.278076 0.606689
vt 0.307373 0.587158
vt 0.301078 0.571974
vt 0.235596 0.566162
vt 0.231176 0.566601
vt 0.223933 0.546224
vt 0.220459 0.547607
vt 0.216549 0.537355
vt 0.239990 0.588623
vt 0.322886 0.572229
vt 0.356396 0.532808
vt 0.401123 0.483643
vt 0.404541 0.484619
vt 0.398682 0.493896
vt 0.393829 0.519680
vt 0.382410 0.527260
vt 0.379798 0.515505
vt 0.389893 0.506104
vt 0.403076 0.494385
vt 0.409912 0.476318
vt 0.407959 0.474365
vt 0.358195 0.544075
s 1
usemtl African_Elephant_Male_Skin.001
f 163/1/1 164/2/2 131/3/3
f 139/4/4 163/1/1 131/3/3
f 158/5/5 148/6/6 162/7/7
f 140/8/8 159/9/9 161/10/10
f 158/5/5 160/11/11 159/9/9
f 158/5/5 159/9/9 140/8/8
f 148/6/6 158/5/5 140/8/8
f 136/12/12 148/6/6 140/8/8
f 157/13/13 156/14/14 153/15/15
f 153/15/15 152/16/16 149/17/17
f 156/14/14 152/16/16 153/15/15
f 156/14/14 155/18/18 152/16/16
f 155/18/18 154/19/19 152/16/16
f 144/20/20 146/21/21 153/15/15
f 149/17/17 144/20/20 153/15/15
f 151/22/22 148/6/6 137/23/23
f 147/24/24 151/22/22 137/23/23
f 150/25/25 151/22/22 147/24/24
f 149/17/17 147/24/24 144/20/20
f 137/23/23 144/20/20 147/24/24
f 144/20/20 137/23/23 143/26/26
f 145/27/27 146/21/21 144/20/20
f 143/26/26 145/27/27 144/20/20
f 137/23/23 142/28/28 143/26/26
f 135/29/29 142/28/28 137/23/23
f 142/28/28 135/29/29 141/30/30
f 141/30/30 130/31/31 138/32/32
f 132/33/33 129/34/34 138/32/32
f 141/30/30 135/29/29 130/31/31
f 139/4/4 131/3/3 136/12/12
f 130/31/31 132/33/33 138/32/32
f 148/6/6 136/12/12 137/23/23
f 136/12/12 135/29/29 137/23/23
f 136/12/12 131/3/3 135/29/29
f 131/3/3 130/31/31 135/29/29
f 127/35/35 122/36/36 124/37/37
f 126/38/38 127/35/35 124/37/37
f 124/37/37 134/39/39 126/38/38
f 134/39/39 132/33/33 126/38/38
f 132/33/33 133/40/40 126/38/38
f 164/2/2 133/40/40 132/33/33
f 164/2/2 132/33/33 130/31/31
f 131/3/3 164/2/2 130/31/31
f 134/39/39 129/34/34 132/33/33
f 124/37/37 129/34/34 134/39/39
f 128/41/41 125/42/42 122/36/36
f 127/35/35 128/41/41 122/36/36
f 125/42/42 123/43/43 122/36/36
f 117/44/44 114/45/45 121/46/46
f 120/47/47 114/45/45 109/48/48
f 115/49/49 119/50/50 114/45/45
f 119/50/50 113/51/51 114/45/45
f 118/52/52 112/53/53 113/51/51
f 116/54/54 114/45/45 117/44/44
f 116/54/54 115/49/49 114/45/45
f 114/45/45 113/51/51 109/48/48
f 105/55/55 109/48/48 113/51/51
f 112/53/53 105/55/55 113/51/51
f 112/53/53 111/56/56 105/55/55
f 111/56/56 106/57/57 105/55/55
f 108/58/58 105/55/55 110/59/59
f 105/55/55 107/60/60 110/59/59
f 108/58/58 109/48/48 105/55/55
f 107/60/60 105/55/55 101/61/61
f 105/55/55 104/62/62 101/61/61
f 101/61/61 104/62/62 99/63/63
f 104/62/62 97/64/64 99/63/63
f 104/62/62 105/55/55 106/57/57
f 97/64/64 104/62/62 103/65/65
f 102/66/66 97/64/64 103/65/65
f 99/63/63 97/64/64 95/67/67
f 101/61/61 99/63/63 100/68/68
f 96/69/69 97/64/64 98/70/70
f 96/69/69 95/67/67 97/64/64
f 47/71/71 94/72/72 45/73/73
f 93/74/74 94/72/72 47/71/71
f 50/75/75 93/74/74 47/71/71
f 93/74/74 50/75/75 92/76/76
f 50/75/75 48/77/77 92/76/76
f 49/78/78 52/79/79 62/80/80
f 52/79/79 53/81/81 62/80/80
f 58/82/82 59/83/83 61/84/84
f 59/83/83 57/85/85 65/86/86
f 67/87/87 66/88/88 80/89/89
f 90/90/90 87/91/91 91/92/92
f 90/90/90 85/93/93 87/91/91
f 87/91/91 88/94/94 89/8/95
f 87/91/91 86/95/96 88/94/94
f 87/91/91 85/93/93 86/95/96
f 86/95/96 85/93/93 84/96/97
f 38/97/98 83/98/99 55/99/100
f 83/98/99 56/100/101 55/99/100
f 56/100/101 83/98/99 73/101/102
f 72/102/103 82/103/104 73/101/102
f 82/103/104 72/102/103 77/104/105
f 72/102/103 74/105/106 77/104/105
f 74/105/106 75/106/107 77/104/105
f 77/104/105 76/107/108 81/108/109
f 73/101/102 57/85/85 56/100/101
f 73/101/102 82/103/104 57/85/85
f 82/103/104 65/86/86 57/85/85
f 65/86/86 82/103/104 66/88/88
f 82/103/104 77/104/105 66/88/88
f 77/104/105 81/108/109 66/88/88
f 66/88/88 81/108/109 80/89/89
f 80/89/89 81/108/109 79/109/110
f 78/110/111 80/89/89 79/109/110
f 63/111/112 60/112/113 61/84/84
f 63/111/112 61/84/84 64/113/114
f 65/86/86 70/114/115 69/115/116
f 65/86/86 68/116/117 70/114/115
f 68/116/117 71/117/118 70/114/115
f 66/88/88 68/116/117 65/86/86
f 59/83/83 69/115/116 64/113/114
f 65/86/86 69/115/116 59/83/83
f 68/116/117 66/88/88 67/87/87
f 61/84/84 59/83/83 64/113/114
f 62/80/80 53/81/81 60/112/113
f 62/80/80 60/112/113 63/111/112
f 60/112/113 58/82/82 61/84/84
f 54/118/119 60/112/113 53/81/81
f 60/112/113 54/118/119 58/82/82
f 57/85/85 59/83/83 56/100/101
f 56/100/101 59/83/83 58/82/82
f 39/119/120 58/82/82 54/118/119
f 55/99/100 58/82/82 39/119/120
f 58/82/82 55/99/100 56/100/101
f 41/120/121 39/119/120 54/118/119
f 54/118/119 53/81/81 41/120/121
f 53/81/81 52/79/79 40/121/122
f 43/122/123 42/123/124 51/124/125
f 51/124/125 42/123/124 52/79/79
f 42/123/124 40/121/122 52/79/79
f 53/81/81 40/121/122 41/120/121
f 47/71/71 52/79/79 50/75/75
f 52/79/79 47/71/71 51/124/125
f 45/73/73 43/122/123 51/124/125
f 45/73/73 51/124/125 47/71/71
f 50/75/75 52/79/79 48/77/77
f 52/79/79 49/78/78 48/77/77
f 45/73/73 46/125/126 43/122/123
f 45/73/73 44/126/127 46/125/126
f 94/72/72 44/126/127 45/73/73
f 37/127/128 35/128/129 36/129/130
f 35/128/129 34/130/131 36/129/130
f 33/58/132 30/131/133 29/132/134
f 32/60/135 31/61/136 30/131/133
f 30/131/133 31/61/136 28/68/137
f 30/131/133 28/68/137 29/132/134
f 28/68/137 25/133/138 29/132/134
f 19/134/139 25/133/138 28/68/137
f 18/135/140 26/136/141 27/137/142
f 26/136/141 18/135/140 16/138/143
f 18/135/140 25/133/138 19/134/139
f 24/139/144 21/140/145 19/134/139
f 22/141/146 20/142/147 23/143/148
f 22/141/146 17/144/149 20/142/147
f 17/144/149 19/134/139 20/142/147
f 21/140/145 20/142/147 19/134/139
f 17/144/149 18/135/140 19/134/139
f 18/135/140 17/144/149 16/138/143
f 15/145/150 14/146/151 13/147/152
f 14/146/151 10/148/153 13/147/152
f 9/149/154 11/150/155 13/147/152
f 13/147/152 10/148/153 9/149/154
f 2/151/156 12/152/157 1/153/158
f 7/154/159 1/153/158 12/152/157
f 7/154/159 9/149/154 5/155/160
f 5/155/160 9/149/154 6/156/161
f 10/148/153 6/156/161 9/149/154
f 8/157/162 2/151/156 3/158/163
f 1/153/158 7/154/159 4/159/164
f 5/155/160 4/159/164 7/154/159
f 3/158/163 1/153/158 4/159/164
f 3/158/163 2/151/156 1/153/158
f 182/160/165 181/161/166 196/162/167
f 181/161/166 193/163/168 196/162/167
f 196/162/167 193/163/168 194/164/169
f 195/165/170 196/162/167 194/164/169
f 194/164/169 165/97/171 195/165/170
f 180/166/172 165/97/171 179/167/173
f 165/97/171 194/164/169 179/167/173
f 184/105/174 185/106/175 186/168/176
f 186/168/177 192/169/178 191/170/179
f 189/171/180 191/170/179 192/169/178
f 190/172/181 189/171/182 188/109/183
f 187/110/184 190/172/181 188/109/183
f 184/105/185 181/161/166 183/173/186
f 183/173/186 181/161/166 182/160/165
f 166/174/187 180/166/172 179/167/173
f 166/174/187 179/167/173 169/175/188
f 174/176/189 176/177/190 177/178/191
f 171/179/192 167/180/193 168/181/194
f 178/182/195 171/179/192 168/181/194
f 171/179/192 178/182/195 177/178/191
f 171/179/192 177/178/191 172/183/196
f 177/178/191 176/177/190 172/183/196
f 173/184/197 176/177/190 174/176/189
f 175/185/198 173/184/197 174/176/189
f 170/186/199 166/174/187 169/175/188
f 170/186/199 169/175/188 167/180/193
f 169/175/188 168/181/194 167/180/193
