# Blender 4.5.2 LTS
# www.blender.org
mtllib cebra_pata_izq_enfr.mtl
o cebra_pata_izq_enfr
v 7.651264 -0.063519 9.557380
v 9.465733 0.030540 10.600100
v 9.133823 1.119747 8.655940
v 7.851185 2.238546 6.044701
v 10.193512 -0.073172 8.385010
v 10.304443 0.000429 5.468740
v 5.724474 0.023611 7.476780
v 4.441364 0.005457 5.716149
v 10.210863 -0.101961 3.906410
v 6.319735 8.527691 0.680485
v 6.975325 13.941399 0.513392
v 6.796585 8.511570 1.374832
v 7.412474 13.945099 1.002205
v 7.562674 15.149002 1.151916
v 7.486784 15.117500 1.477526
v 7.669933 15.895100 1.559868
v 7.758663 15.874100 1.119278
v 6.873034 15.169300 0.658507
v 5.999535 14.034901 0.287178
v 5.759434 8.446831 1.295202
v 5.779175 2.044930 1.482690
v 6.044615 2.500111 1.898310
v 6.088715 8.437260 1.843552
v 6.822704 2.179399 1.482230
v 6.382414 1.916010 1.365830
v 5.456535 1.518690 1.889810
v 6.047794 1.671270 1.621840
v 6.857544 1.902611 1.220440
v 6.114634 1.700199 1.575730
v 5.528324 1.543900 2.032470
v 5.958544 1.638809 1.730180
v 6.634304 1.856730 1.339610
v 6.429224 2.145067 2.282240
v 6.770035 1.683308 5.484380
v 7.466064 2.213387 5.043740
v 8.382744 1.684498 4.759820
v 6.929193 1.359818 3.411520
v 7.046055 1.109556 4.268100
v 6.971064 0.035238 3.683660
v 6.299494 23.787699 -0.795301
v 7.371143 23.465599 -0.516624
v 8.671822 23.582100 0.777762
v 8.585964 20.706799 1.015928
v 6.954353 18.297100 0.023181
v 8.278515 18.343000 1.012588
v 7.745674 18.448900 1.823638
v 6.822765 18.399700 2.680158
v 8.004044 21.281599 2.090889
v 7.947504 23.597198 2.231770
v 4.817043 18.275299 1.410698
v 4.911934 18.129002 2.289338
v 4.620594 23.867100 3.259650
v 5.924904 18.181599 2.842038
v 6.101114 23.653900 3.855230
v 7.228865 23.529900 3.101030
v 4.432335 23.306002 1.600150
v 6.005985 18.205700 -0.359352
v 5.864784 15.896000 0.303389
v 6.889225 15.923901 0.490682
v 5.893635 15.167500 0.372730
v 5.212013 15.802399 1.195958
v 5.611654 15.883301 1.905208
v 6.602955 15.889500 2.091207
v 6.588614 15.019199 1.922317
v 5.583023 15.011600 1.747626
v 5.379345 15.087399 1.064347
v 5.410994 13.906500 1.217565
v 5.540203 13.875198 1.789415
v 6.562504 13.790501 2.089525
v 7.279293 13.842600 1.354625
v 6.326303 25.872467 -0.644382
v 7.280327 25.550369 -0.383306
v 8.438242 25.666870 0.829326
v 8.361809 22.791569 1.052449
v 6.909284 20.381868 0.122404
v 6.792139 20.484470 2.611566
v 7.843760 23.366367 2.059516
v 7.793426 25.681969 2.191499
v 5.006566 20.360069 1.422285
v 5.091042 20.213772 2.245430
v 4.831680 25.951870 3.154458
v 5.992828 20.266369 2.763222
v 6.149697 25.738670 3.712421
v 7.153666 25.614670 3.005856
v 4.664084 25.390770 1.599772
v 6.065009 20.290468 -0.235968
vn -0.5787 -0.3202 0.7501
vn 0.3050 -0.1449 0.9413
vn 0.3001 0.8984 0.3207
vn 0.2633 0.4543 0.8511
vn 0.9137 -0.3939 0.0999
vn 0.9443 -0.3290 -0.0073
vn -0.7308 -0.3280 0.5986
vn 0.9559 0.2893 0.0517
vn -0.6881 0.2968 0.6622
vn -0.7738 0.6191 -0.1342
vn 0.5801 0.5694 -0.5825
vn -0.2778 -0.4008 -0.8730
vn 0.0636 -0.0978 -0.9932
vn 0.5037 -0.0051 -0.8638
vn 0.9787 -0.0743 0.1916
vn 0.9648 -0.1158 -0.2360
vn 0.9310 -0.1567 -0.3297
vn 0.7699 -0.2055 0.6042
vn 0.7803 -0.2197 0.5856
vn 0.9065 -0.2358 -0.3503
vn 0.4346 -0.0395 -0.8997
vn -0.3518 -0.0053 -0.9361
vn -0.9929 -0.0550 -0.1053
vn -0.8969 -0.3390 -0.2840
vn -0.2273 -0.1110 0.9675
vn -0.2189 -0.0508 0.9744
vn 0.6713 -0.7339 -0.1034
vn 0.2388 -0.5833 -0.7764
vn -0.8713 -0.3644 -0.3286
vn -0.2403 0.8047 0.5429
vn -0.4830 0.2865 0.8274
vn -0.0425 -0.7968 -0.6028
vn -0.9204 -0.3457 0.1827
vn -0.0147 -0.9304 -0.3663
vn 0.5668 0.4493 0.6905
vn -0.1357 0.9854 -0.1024
vn -0.6501 0.7561 0.0752
vn -0.0463 0.9989 -0.0074
vn 0.5820 0.7020 -0.4104
vn 0.0861 -0.9879 -0.1292
vn -0.5315 -0.0289 -0.8465
vn -0.0567 0.6247 -0.7788
vn 0.1140 0.9537 0.2783
vn -0.3459 0.6374 -0.6885
vn -0.2636 -0.4044 -0.8758
vn 0.9844 -0.0435 -0.1705
vn 0.9829 -0.1153 -0.1434
vn 0.4676 -0.0981 -0.8785
vn 0.4947 -0.1452 -0.8569
vn 0.9714 -0.1512 -0.1830
vn 0.7555 -0.1106 0.6458
vn 0.4546 -0.1723 0.8739
vn 0.7807 -0.0740 0.6206
vn 0.8346 -0.0075 0.5508
vn -0.9656 -0.0966 -0.2415
vn -0.8185 -0.2007 0.5384
vn -0.7422 -0.1415 0.6551
vn -0.1333 -0.2380 0.9621
vn 0.0345 -0.1560 0.9872
vn 0.6448 -0.0812 0.7600
vn -0.9740 -0.0545 -0.2201
vn -0.2889 -0.1498 -0.9456
vn -0.3952 -0.1591 -0.9047
vn 0.4087 -0.2002 -0.8905
vn -0.3568 -0.0627 -0.9321
vn -0.9794 -0.1762 -0.0990
vn -0.5412 -0.2615 0.7992
vn 0.1559 -0.2505 0.9555
vn 0.1917 -0.0752 0.9786
vn -0.6727 -0.0594 0.7375
vn -0.9646 -0.1231 -0.2332
vn -0.9865 -0.0378 -0.1591
vn -0.7331 0.0026 0.6802
vn 0.2632 0.0203 0.9645
vn 0.8312 -0.0864 0.5492
vn -0.3336 -0.0560 -0.9411
vn 0.9856 -0.0390 -0.1648
vn 0.9035 -0.0898 -0.4192
vn 0.4815 -0.0900 -0.8718
vn 0.4762 -0.1194 -0.8712
vn 0.7872 -0.0548 0.6143
vn 0.8473 -0.0066 0.5311
vn -0.9723 -0.0530 -0.2275
vn -0.8407 -0.1216 0.5276
vn -0.7513 -0.1297 0.6470
vn -0.1815 -0.1745 0.9678
vn 0.0313 -0.1463 0.9887
vn 0.3426 -0.1575 0.9262
vn 0.6645 -0.0738 0.7436
vn -0.9757 -0.0481 -0.2140
vn -0.3335 -0.0884 -0.9386
vn -0.3470 -0.0523 -0.9364
vt 0.384600 0.010800
vt 0.355000 0.010800
vt 0.377600 0.036200
vt 0.410300 0.064400
vt 0.406200 0.010700
vt 0.429900 0.010700
vt 0.500400 0.156600
vt 0.502900 0.217200
vt 0.478500 0.156200
vt 0.488800 0.217100
vt 0.490400 0.232900
vt 0.480100 0.232800
vt 0.480100 0.246500
vt 0.490900 0.246500
vt 0.503500 0.232900
vt 0.503300 0.217200
vt 0.478500 0.150000
vt 0.476800 0.083000
vt 0.450400 0.083100
vt 0.453400 0.154100
vt 0.476600 0.083000
vt 0.497000 0.083300
vt 0.475100 0.074400
vt 0.448800 0.079600
vt 0.475000 0.074600
vt 0.497000 0.065800
vt 0.458400 0.060700
vt 0.470400 0.046600
vt 0.458400 0.060800
vt 0.446600 0.076600
vt 0.444100 0.054400
vt 0.431000 0.071100
vt 0.444000 0.054600
vt 0.456700 0.039000
vt 0.445900 0.032900
vt 0.437100 0.000900
vt 0.424900 0.058600
vt 0.456300 0.015800
vt 0.493700 0.386000
vt 0.490400 0.351600
vt 0.502700 0.386100
vt 0.503000 0.322700
vt 0.487500 0.322900
vt 0.479900 0.322500
vt 0.465200 0.323500
vt 0.479900 0.357400
vt 0.479800 0.385800
vt 0.478600 0.322500
vt 0.461400 0.324400
vt 0.466100 0.386300
vt 0.461500 0.323000
vt 0.466400 0.386300
vt 0.473100 0.386100
vt 0.477300 0.378800
vt 0.507600 0.323100
vt 0.503800 0.246600
vt 0.503300 0.246600
vt 0.503900 0.232900
vt 0.480200 0.246400
vt 0.455400 0.246600
vt 0.455500 0.246600
vt 0.455400 0.232900
vt 0.455300 0.232900
vt 0.480200 0.232800
vt 0.480300 0.217000
vt 0.455900 0.217200
vt 0.456100 0.217200
vt 0.480100 0.217100
vt 0.510700 0.386100
s 1
usemtl mat0
f 1/1/1 2/2/2 3/3/3
f 3/3/3 4/4/4 1/1/1
f 3/3/3 5/1/5 4/4/4
f 2/2/2 5/1/5 3/3/3
f 5/1/5 6/5/6 4/4/4
f 6/5/6 5/1/5 7/5/7
f 7/5/7 5/1/5 1/1/1
f 5/1/5 2/2/2 1/1/1
f 1/1/1 4/4/4 7/5/7
f 4/4/4 8/6/8 7/5/7
f 7/5/7 8/6/8 6/5/6
f 6/5/6 8/6/8 9/6/9
f 9/6/10 8/6/11 4/4/12
f 4/4/4 6/5/6 9/6/9
f 10/7/13 11/8/14 12/9/15
f 12/9/15 11/8/14 13/10/16
f 11/8/14 14/11/17 13/10/16
f 13/10/16 14/11/17 15/12/18
f 14/11/17 16/13/19 15/12/18
f 16/13/19 14/11/17 17/14/20
f 17/14/20 14/11/17 18/15/21
f 14/11/17 11/8/14 18/15/21
f 18/15/21 11/8/14 19/16/22
f 11/8/14 10/7/13 19/16/22
f 19/16/22 10/7/13 20/17/23
f 10/7/13 21/18/24 20/17/23
f 21/18/24 22/19/25 20/17/23
f 20/17/23 22/19/25 23/20/26
f 23/20/26 22/19/25 12/9/15
f 22/19/25 24/21/27 12/9/15
f 12/9/15 24/21/27 10/7/13
f 24/21/27 25/22/28 10/7/13
f 10/7/13 25/22/28 21/18/24
f 25/22/28 26/23/29 21/18/24
f 26/23/29 27/24/30 21/18/24
f 21/18/24 27/24/30 22/19/25
f 27/24/30 28/25/31 22/19/25
f 22/19/25 28/25/31 24/21/27
f 28/25/31 29/26/32 24/21/27
f 24/21/27 29/26/32 25/22/28
f 29/26/32 26/23/29 25/22/28
f 26/23/29 29/26/32 30/27/33
f 30/27/33 29/26/32 31/28/34
f 29/26/32 28/25/31 31/28/34
f 31/28/34 28/25/31 32/29/35
f 32/29/35 27/24/30 33/30/36
f 27/24/30 26/23/29 33/30/36
f 33/30/36 26/23/29 30/27/33
f 30/27/33 34/31/37 33/30/36
f 34/31/37 35/32/38 33/30/36
f 35/32/38 36/33/39 33/30/36
f 33/30/36 36/33/39 32/29/35
f 36/33/39 37/34/40 32/29/35
f 32/29/35 37/34/40 31/28/34
f 37/34/40 30/27/33 31/28/34
f 30/27/33 37/34/40 34/31/37
f 34/31/37 37/34/40 38/35/41
f 37/34/40 36/33/39 38/35/41
f 38/35/41 36/33/39 9/36/42
f 9/36/42 36/33/39 4/37/43
f 36/33/39 35/32/38 4/37/43
f 35/32/38 34/31/37 4/37/43
f 4/37/43 34/31/37 8/36/44
f 34/31/37 38/35/41 8/36/44
f 8/36/44 38/35/41 39/38/45
f 38/35/41 9/36/42 39/38/45
f 39/38/45 9/36/42 8/36/44
f 42/39/46 43/40/47 41/41/48
f 41/41/48 43/40/47 44/42/49
f 43/40/47 45/43/50 44/42/49
f 44/42/49 45/43/50 17/14/20
f 17/14/20 45/43/50 16/13/19
f 45/43/50 46/44/51 16/13/19
f 16/13/19 46/44/51 47/45/52
f 47/45/52 46/44/51 48/46/53
f 46/44/51 45/43/50 48/46/53
f 45/43/50 43/40/47 48/46/53
f 48/46/53 43/40/47 49/47/54
f 43/40/47 42/39/46 49/47/54
f 50/48/55 51/49/56 52/50/57
f 51/49/56 53/51/58 52/50/57
f 52/50/57 53/51/58 54/52/59
f 53/51/58 47/45/52 54/52/59
f 54/52/59 47/45/52 55/53/60
f 47/45/52 48/46/53 55/53/60
f 55/53/60 48/46/53 49/47/54
f 52/50/57 56/54/61 50/48/55
f 56/54/61 57/55/62 50/48/55
f 50/48/55 57/55/62 58/56/63
f 57/55/62 59/57/64 58/56/63
f 58/56/63 59/57/64 60/58/65
f 60/58/65 61/59/66 58/56/63
f 58/56/63 61/59/66 50/48/55
f 50/48/55 61/59/66 51/49/56
f 61/59/66 62/60/67 51/49/56
f 51/49/56 62/60/67 53/51/58
f 62/60/67 63/61/68 53/51/58
f 53/51/58 63/61/68 47/45/52
f 63/61/68 16/13/19 47/45/52
f 16/13/19 63/61/68 15/12/18
f 15/12/18 63/61/68 64/62/69
f 63/61/68 62/60/67 64/62/69
f 64/62/69 62/60/67 65/63/70
f 62/60/67 61/59/66 65/63/70
f 65/63/70 61/59/66 66/64/71
f 61/59/66 60/58/65 66/64/71
f 60/58/65 67/65/72 66/64/71
f 66/64/71 67/65/72 65/63/70
f 67/65/72 68/66/73 65/63/70
f 68/66/73 69/67/74 65/63/70
f 65/63/70 69/67/74 64/62/69
f 69/67/74 70/68/75 64/62/69
f 64/62/69 70/68/75 15/12/18
f 70/68/75 13/10/16 15/12/18
f 13/10/16 70/68/75 12/9/15
f 70/68/75 69/67/74 12/9/15
f 12/9/15 69/67/74 23/20/26
f 69/67/74 68/66/73 23/20/26
f 23/20/26 68/66/73 20/17/23
f 68/66/73 67/65/72 20/17/23
f 20/17/23 67/65/72 19/16/22
f 67/65/72 60/58/65 19/16/22
f 19/16/22 60/58/65 18/15/21
f 60/58/65 59/57/64 18/15/21
f 18/15/21 59/57/64 17/14/20
f 17/14/20 59/57/64 44/42/49
f 59/57/64 57/55/62 44/42/49
f 44/42/49 57/55/62 41/41/48
f 41/41/48 57/55/62 40/69/76
f 57/55/62 56/54/61 40/69/76
f 73/39/77 74/40/78 72/41/79
f 72/41/79 74/40/78 75/42/80
f 77/46/81 74/40/78 78/47/82
f 74/40/78 73/39/77 78/47/82
f 79/48/83 80/49/84 81/50/85
f 80/49/84 82/51/86 81/50/85
f 81/50/85 82/51/86 83/52/87
f 82/51/86 76/45/88 83/52/87
f 83/52/87 76/45/88 84/53/89
f 76/45/88 77/46/81 84/53/89
f 84/53/89 77/46/81 78/47/82
f 81/50/85 85/54/90 79/48/83
f 85/54/90 86/55/91 79/48/83
f 75/42/80 86/55/91 72/41/79
f 72/41/79 86/55/91 71/69/92
f 86/55/91 85/54/90 71/69/92
