# Blender 4.5.2 LTS
# www.blender.org
mtllib cebra_pata_izq_atras.mtl
o cebra_pata_izq_atras
v 12.799114 1.017246 -21.430700
v 13.733013 0.027679 -20.056700
v 14.077213 0.056646 -22.348200
v 11.471613 2.548300 -24.783499
v 11.779613 0.037531 -21.179300
v 9.686264 0.057787 -22.878000
v 14.029510 0.097055 -25.313900
v 13.953114 0.172281 -26.803499
v 10.555332 0.175606 -26.970200
v 8.085314 0.128683 -24.220600
v 9.787392 1.577480 -26.497599
v 9.816292 1.392809 -26.091799
v 10.556904 2.050350 -26.570299
v 9.769684 1.919262 -27.793400
v 9.985134 1.893242 -28.575699
v 11.166912 1.596170 -27.116299
v 11.636612 1.229031 -26.794001
v 11.167713 2.047230 -25.861599
v 10.261093 1.229872 -27.006899
v 9.261713 1.888603 -28.247499
v 8.702774 1.889252 -27.954100
v 9.345604 1.987223 -28.299500
v 8.220314 1.897242 -27.812099
v 8.999783 3.603153 -29.379099
v 8.498363 2.822113 -29.392799
v 9.294163 1.930923 -28.297100
v 10.397963 1.991922 -28.781898
v 9.728634 3.303743 -29.595098
v 9.269642 2.736813 -29.693899
v 8.499073 5.646474 -31.668800
v 8.044495 8.495954 -33.784298
v 8.173473 5.849574 -31.316601
v 8.633635 6.135434 -31.028896
v 7.468864 8.907344 -32.886898
v 8.287785 9.020906 -32.229797
v 7.944054 10.632413 -33.161499
v 7.494373 10.970914 -33.535400
v 6.968815 10.448915 -33.943600
v 6.768925 11.035914 -34.154900
v 7.426033 10.487313 -34.658897
v 7.368755 11.069715 -34.841499
v 8.135195 11.102614 -34.992001
v 8.088844 10.455815 -34.800301
v 8.201124 11.007714 -33.617001
v 8.652893 11.205714 -34.007599
v 8.737873 10.473115 -34.002701
v 8.801914 8.852904 -33.153000
v 9.017603 5.900002 -31.341896
v 7.586824 20.554310 -22.112289
v 9.125053 20.064110 -22.703390
v 7.608034 21.916010 -20.942190
v 8.769363 22.594809 -21.240992
v 9.717224 22.233509 -22.252590
v 10.566444 21.997910 -23.698690
v 10.807413 23.687710 -25.060690
v 9.858273 19.553209 -27.416090
v 8.642815 17.825609 -25.627291
v 6.783203 17.483509 -25.218596
v 6.391525 20.960609 -21.649990
v 4.742434 21.564110 -22.269791
v 5.145285 18.385609 -25.952789
v 5.892714 15.883112 -28.483997
v 4.432514 17.821011 -28.903690
v 5.031555 16.183914 -30.794796
v 3.856144 19.375814 -30.003590
v 5.226944 16.967215 -32.150288
v 3.174414 22.302916 -30.256992
v 4.863594 21.011814 -32.017189
v 6.457294 22.853415 -31.740789
v 8.280704 24.352615 -29.953991
v 6.409365 17.249615 -32.134991
v 7.579853 13.772814 -33.128788
v 6.975803 13.226017 -33.236187
v 6.690245 12.494715 -32.327087
v 7.261684 12.019413 -31.773096
v 8.110125 12.490612 -31.413895
v 8.321495 13.902712 -32.074287
v 3.518505 21.327608 -26.331089
v 2.383755 22.184608 -25.501089
v 3.553965 19.945808 -26.465490
v 3.442274 22.169510 -23.715389
v 7.062525 15.221012 -27.945196
v 8.361975 15.518013 -28.560696
v 8.823343 16.709017 -29.876795
v 7.929115 18.452415 -30.870289
v 7.563869 21.597267 -22.472431
v 9.071700 21.202404 -23.091831
v 7.584660 22.799400 -21.156572
v 8.723040 23.595425 -21.257195
v 9.652168 23.432865 -22.207695
v 10.484608 23.502295 -23.502047
v 10.720814 25.621809 -24.282734
v 9.790430 21.704706 -27.251081
v 6.776128 18.990616 -25.840906
v 6.392190 21.930712 -21.982744
v 4.775688 22.717432 -22.375954
v 5.170578 20.123699 -26.263758
v 4.471892 20.175297 -28.924225
v 3.906912 22.091290 -29.511065
v 5.250623 19.982113 -31.904631
v 3.238654 25.292988 -29.057171
v 4.894454 24.298347 -30.862972
v 6.456659 26.215490 -30.203588
v 8.244036 27.427799 -28.327253
v 6.409678 20.282141 -31.826750
v 3.575945 23.369267 -25.913572
v 2.463620 24.104965 -25.005154
v 3.610705 21.914503 -26.345720
v 3.501221 23.690405 -23.477018
v 7.899395 21.292431 -30.466187
vn 0.0786 0.8852 0.4586
vn 0.4619 -0.1957 0.8651
vn 0.9376 -0.3389 0.0779
vn 0.0054 0.9995 0.0312
vn -0.5682 -0.3976 0.7205
vn -0.5945 -0.3839 0.7065
vn 0.9247 -0.3783 -0.0426
vn 0.7616 -0.2459 -0.5995
vn -0.2412 -0.6553 -0.7158
vn -0.9498 -0.2444 0.1952
vn -0.9536 0.1679 0.2497
vn -0.7496 0.6598 -0.0519
vn -0.0270 0.9973 0.0682
vn -0.0833 0.9892 0.1203
vn -0.0814 -0.8159 -0.5725
vn 0.6766 0.2462 -0.6940
vn 0.3399 0.5519 -0.7614
vn -0.0068 0.9564 -0.2918
vn -0.3201 -0.6152 -0.7204
vn -0.2084 -0.8128 -0.5440
vn -0.0407 -0.3440 0.9381
vn 0.1667 0.8490 0.5014
vn -0.5769 -0.4292 0.6950
vn -0.0962 0.6040 0.7912
vn -0.9043 -0.2980 -0.3057
vn -0.2386 -0.6973 -0.6759
vn 0.9261 -0.2219 -0.3050
vn 0.9934 0.1127 -0.0221
vn 0.2449 -0.7084 -0.6619
vn -0.1132 -0.5599 -0.8208
vn -0.1045 -0.5962 -0.7960
vn -0.9824 -0.0923 0.1623
vn 0.0422 0.4835 0.8743
vn -0.9538 -0.0999 0.2832
vn 0.1705 0.4642 0.8691
vn 0.1000 0.4905 0.8657
vn 0.1129 0.9511 -0.2875
vn -0.9675 -0.2270 0.1112
vn -0.9698 -0.0590 0.2368
vn -0.5042 -0.3952 -0.7678
vn -0.4592 -0.2202 -0.8606
vn 0.3772 -0.1236 -0.9178
vn 0.2932 -0.3586 -0.8862
vn -0.1658 0.9860 0.0186
vn 0.6393 0.6318 0.4384
vn 0.9985 0.0273 -0.0481
vn 0.9911 0.0054 -0.1330
vn 0.9891 0.0544 -0.1366
vn 0.0638 -0.6971 0.7141
vn 0.5014 -0.6420 0.5800
vn 0.2638 -0.5406 0.7988
vn 0.5189 -0.3719 0.7697
vn 0.7078 -0.3237 0.6279
vn 0.9144 -0.3584 0.1879
vn 0.9591 -0.0789 -0.2717
vn 0.9673 -0.1769 -0.1815
vn 0.6256 -0.6326 0.4566
vn -0.1715 -0.7588 0.6284
vn -0.1704 -0.6961 0.6974
vn -0.6010 -0.6221 0.5018
vn -0.6624 -0.6231 0.4159
vn -0.7124 -0.5947 0.3727
vn -0.8839 -0.4456 0.1422
vn -0.9133 -0.4058 -0.0359
vn -0.9549 -0.2723 -0.1186
vn -0.6219 -0.0889 -0.7780
vn -0.9529 -0.1899 -0.2366
vn -0.3455 0.0141 -0.9383
vn 0.8205 0.0324 -0.5707
vn 0.2232 0.2155 -0.9507
vn 0.5572 0.0535 -0.8287
vn 0.3466 0.4167 -0.8404
vn -0.6547 0.1692 -0.7367
vn -0.2140 0.9179 0.3342
vn 0.0593 0.9760 0.2095
vn -0.9317 -0.3587 0.0575
vn -0.0664 0.9869 -0.1472
vn -0.3125 -0.7825 0.5385
vn 0.0683 -0.9675 0.2436
vn 0.6724 -0.5646 0.4786
vn 0.1862 -0.9030 0.3873
vn 0.7073 0.6575 -0.2596
vn 0.9548 0.1056 -0.2780
vn -0.8295 -0.0444 -0.5567
vn -0.9261 -0.3764 0.0263
vn -0.8313 -0.5196 0.1974
vn -0.7140 -0.5628 0.4165
vn -0.1084 -0.7728 0.6253
vn 0.7615 -0.5267 0.3778
vn 0.9716 -0.0551 -0.2301
vn 0.7369 0.1460 -0.6601
vn -0.3548 -0.1991 0.9135
vn -0.8450 -0.5341 -0.0284
vn 0.4815 -0.2527 0.8392
vn 0.9285 -0.3386 0.1524
vn -0.5420 -0.1562 -0.8257
vn 0.3949 -0.4162 -0.8190
vn 0.0599 -0.7588 0.6486
vn 0.6720 -0.5688 0.4741
vn 0.2619 -0.6343 0.7274
vn 0.5058 -0.4772 0.7186
vn 0.6929 -0.4142 0.5901
vn 0.9311 -0.3448 0.1189
vn 0.9425 0.0129 -0.3341
vn 0.9274 0.0135 -0.3739
vn -0.4821 -0.7384 0.4716
vn -0.1824 -0.7746 0.6056
vn -0.6275 -0.6644 0.4058
vn -0.6468 -0.6615 0.3795
vn -0.9614 -0.1989 -0.1902
vn -0.9484 -0.1068 -0.2984
vn -0.2976 0.1735 -0.9388
vn -0.3238 0.2080 -0.9230
vn 0.7935 0.1538 -0.5888
vn 0.2189 0.2472 -0.9439
vn 0.5326 0.2194 -0.8174
vn -0.8235 0.0675 -0.5633
vn -0.9585 -0.2716 -0.0865
vn -0.8541 -0.5099 0.1024
vn -0.7307 -0.5961 0.3327
vn -0.9742 -0.2179 -0.0588
vn 0.6717 0.2175 -0.7082
vt 0.819200 0.028600
vt 0.797500 0.003200
vt 0.833100 0.003100
vt 0.846100 0.055900
vt 0.818900 0.003100
vt 0.837500 0.003100
vt 0.856100 0.003100
vt 0.872800 0.003700
vt 0.865500 0.003400
vt 0.858900 0.003100
vt 0.881900 0.051200
vt 0.874300 0.045400
vt 0.881200 0.058700
vt 0.896200 0.064200
vt 0.904200 0.058200
vt 0.887200 0.051400
vt 0.881400 0.045600
vt 0.867200 0.052300
vt 0.884300 0.008800
vt 0.884200 0.009100
vt 0.858800 0.048500
vt 0.893300 0.008400
vt 0.888600 0.038700
vt 0.910900 0.046800
vt 0.900600 0.058100
vt 0.898300 0.067200
vt 0.907200 0.062000
vt 0.902000 0.073800
vt 0.910700 0.069200
vt 0.922300 0.053400
vt 0.912200 0.062200
vt 0.914500 0.069300
vt 0.923100 0.064900
vt 0.939400 0.120400
vt 0.955800 0.175900
vt 0.926000 0.124500
vt 0.916300 0.128900
vt 0.941300 0.179700
vt 0.930700 0.183900
vt 0.928900 0.196200
vt 0.920500 0.206700
vt 0.942400 0.200900
vt 0.936800 0.215900
vt 0.966700 0.206200
vt 0.963200 0.225500
vt 0.965400 0.224800
vt 0.970400 0.206000
vt 0.923800 0.206100
vt 0.943300 0.215800
vt 0.953100 0.201000
vt 0.945100 0.179900
vt 0.928900 0.121200
vt 0.816000 0.330500
vt 0.832200 0.325500
vt 0.807500 0.349000
vt 0.811900 0.356200
vt 0.823500 0.353000
vt 0.835300 0.348400
vt 0.847400 0.368200
vt 0.877800 0.309700
vt 0.855100 0.297400
vt 0.842700 0.295900
vt 0.804400 0.341500
vt 0.792400 0.347800
vt 0.835000 0.300000
vt 0.865100 0.266300
vt 0.847000 0.295200
vt 0.863100 0.275000
vt 0.897300 0.316200
vt 0.951900 0.299400
vt 0.987000 0.313800
vt 0.973800 0.318500
vt 0.875800 0.387400
vt 0.937900 0.317800
vt 0.923600 0.364600
vt 0.950900 0.239900
vt 0.950800 0.239800
vt 0.922400 0.223500
vt 0.909700 0.216200
vt 0.917200 0.220500
vt 0.934700 0.230600
vt 0.828900 0.311900
vt 0.810000 0.307600
vt 0.790500 0.317400
vt 0.784600 0.340800
vt 0.872400 0.260600
vt 0.886100 0.258900
vt 0.906200 0.270100
vt 0.908800 0.301700
s 1
usemtl mat0
f 1/1/1 2/2/2 3/3/3
f 1/1/1 3/3/3 4/4/4
f 4/4/4 5/5/5 1/1/1
f 5/5/5 2/2/2 1/1/1
f 2/2/2 5/5/5 3/3/3
f 5/5/5 6/6/6 7/7/7
f 6/6/6 5/5/5 4/4/4
f 3/3/3 5/5/5 7/7/7
f 3/3/3 7/7/7 4/4/4
f 4/4/4 7/7/7 8/8/8
f 8/8/8 7/7/7 9/9/9
f 7/7/7 6/6/6 9/9/9
f 9/9/9 6/6/6 10/10/10
f 10/10/10 6/6/6 4/4/4
f 11/11/11 12/12/12 13/13/13
f 13/13/13 14/14/14 11/11/11
f 14/14/14 13/13/13 15/15/15
f 15/15/15 13/13/13 16/16/16
f 13/13/13 17/17/17 16/16/16
f 13/13/13 18/18/18 17/17/17
f 12/12/12 18/18/18 13/13/13
f 12/12/12 10/19/10 18/18/18
f 18/18/18 8/20/8 17/17/17
f 18/18/18 4/21/4 8/20/8
f 10/19/10 4/21/4 18/18/18
f 9/22/9 10/19/10 19/23/19
f 19/23/19 10/19/10 12/12/12
f 19/23/19 20/24/20 16/16/16
f 16/16/16 17/17/17 19/23/19
f 17/17/17 8/20/8 19/23/19
f 20/24/20 19/23/19 21/25/21
f 21/25/21 19/23/19 11/11/11
f 19/23/19 12/12/12 11/11/11
f 8/20/8 9/22/9 19/23/19
f 11/11/11 14/14/14 21/25/21
f 14/14/14 22/26/22 21/25/21
f 21/25/21 22/26/22 23/27/23
f 23/27/23 20/24/20 21/25/21
f 22/26/22 24/28/24 23/27/23
f 23/27/23 24/28/24 25/29/25
f 25/29/25 26/30/26 23/27/23
f 26/30/26 20/24/20 23/27/23
f 20/24/20 26/30/26 15/15/15
f 15/15/15 26/30/26 27/31/27
f 27/31/27 26/30/26 28/32/28
f 26/30/26 29/33/29 28/32/28
f 29/33/29 26/30/26 25/29/25
f 29/33/29 30/34/30 28/32/28
f 30/34/30 29/33/29 25/29/25
f 31/35/31 30/34/30 32/36/32
f 32/36/32 30/34/30 25/29/25
f 25/29/25 24/28/24 32/36/32
f 24/28/24 33/37/33 32/36/32
f 32/36/32 33/37/33 34/38/34
f 34/38/34 31/35/31 32/36/32
f 33/37/33 35/39/35 34/38/34
f 34/38/34 35/39/35 36/40/36
f 36/40/36 37/41/37 34/38/34
f 34/38/34 37/41/37 38/42/38
f 31/35/31 34/38/34 38/42/38
f 37/41/37 39/43/39 38/42/38
f 38/42/38 39/43/39 40/44/40
f 40/44/40 31/35/31 38/42/38
f 39/43/39 41/45/41 40/44/40
f 40/44/40 41/45/41 42/46/42
f 42/46/42 43/47/43 40/44/40
f 43/47/43 31/35/31 40/44/40
f 44/48/44 37/41/37 36/40/36
f 45/49/45 44/48/44 46/50/46
f 46/50/46 44/48/44 47/51/47
f 47/51/47 44/48/44 36/40/36
f 47/51/47 35/39/35 48/52/48
f 35/39/35 47/51/47 36/40/36
f 48/52/48 31/35/31 47/51/47
f 31/35/31 43/47/43 47/51/47
f 47/51/47 43/47/43 46/50/46
f 43/47/43 42/46/42 46/50/46
f 46/50/46 42/46/42 45/49/45
f 30/34/30 31/35/31 48/52/48
f 35/39/35 33/37/33 48/52/48
f 48/52/48 33/37/33 28/32/28
f 28/32/28 30/34/30 48/52/48
f 33/37/33 24/28/24 28/32/28
f 28/32/28 24/28/24 27/31/27
f 24/28/24 22/26/22 27/31/27
f 22/26/22 14/14/14 27/31/27
f 27/31/27 14/14/14 15/15/15
f 16/16/16 20/24/20 15/15/15
f 49/53/49 50/54/50 51/55/51
f 50/54/50 52/56/52 51/55/51
f 52/56/52 50/54/50 53/57/53
f 50/54/50 54/58/54 53/57/53
f 55/59/55 54/58/54 56/60/56
f 54/58/54 50/54/50 56/60/56
f 56/60/56 50/54/50 57/61/57
f 50/54/50 49/53/49 57/61/57
f 57/61/57 49/53/49 58/62/58
f 58/62/58 49/53/49 59/63/59
f 49/53/49 51/55/51 59/63/59
f 59/63/59 60/64/60 58/62/58
f 60/64/60 61/65/61 58/62/58
f 58/62/58 61/65/61 62/66/62
f 61/65/61 63/67/63 62/66/62
f 62/66/62 63/67/63 64/68/64
f 63/67/63 65/69/65 64/68/64
f 64/68/64 65/69/65 66/70/66
f 65/69/65 67/71/67 66/70/66
f 66/70/66 67/71/67 68/72/68
f 70/73/69 71/74/70 69/75/71
f 69/75/71 71/74/70 68/72/68
f 68/72/68 71/74/70 66/70/66
f 71/74/70 72/76/72 66/70/66
f 66/70/66 72/76/72 73/77/73
f 72/76/72 42/46/74 73/77/73
f 42/46/74 41/45/75 73/77/73
f 73/77/73 41/45/75 74/78/76
f 41/45/75 39/43/77 74/78/76
f 74/78/76 39/43/77 75/79/78
f 39/43/77 37/41/79 75/79/78
f 75/79/78 37/41/79 76/80/80
f 37/41/79 44/48/81 76/80/80
f 44/48/81 45/49/82 76/80/80
f 76/80/80 45/49/82 77/81/83
f 77/81/83 45/49/82 72/76/72
f 45/49/82 42/46/74 72/76/72
f 78/82/84 80/83/85 79/84/86
f 80/83/85 81/85/87 79/84/86
f 60/64/60 81/85/87 61/65/61
f 81/85/87 80/83/85 61/65/61
f 61/65/61 80/83/85 63/67/63
f 80/83/85 78/82/84 63/67/63
f 63/67/63 78/82/84 65/69/65
f 65/69/65 78/82/84 67/71/67
f 75/79/78 76/80/80 82/86/88
f 82/86/88 76/80/80 83/87/89
f 83/87/89 76/80/80 84/88/90
f 76/80/80 77/81/83 84/88/90
f 84/88/90 77/81/83 85/89/91
f 77/81/83 72/76/72 85/89/91
f 85/89/91 72/76/72 71/74/70
f 71/74/70 70/73/69 85/89/91
f 70/73/69 55/59/55 85/89/91
f 55/59/55 56/60/56 85/89/91
f 85/89/91 56/60/56 84/88/90
f 84/88/90 56/60/56 83/87/89
f 56/60/56 57/61/57 83/87/89
f 83/87/89 57/61/57 82/86/88
f 57/61/57 58/62/58 82/86/88
f 58/62/58 62/66/62 82/86/88
f 82/86/88 62/66/62 75/79/78
f 62/66/62 64/68/64 75/79/78
f 75/79/78 64/68/64 74/78/76
f 64/68/64 66/70/66 74/78/76
f 74/78/76 66/70/66 73/77/73
f 42/46/92 45/49/93 41/45/94
f 41/45/94 45/49/93 39/43/95
f 45/49/93 44/48/96 39/43/95
f 39/43/95 44/48/96 37/41/97
f 86/53/98 87/54/99 88/55/100
f 87/54/99 89/56/101 88/55/100
f 89/56/101 87/54/99 90/57/102
f 87/54/99 91/58/103 90/57/102
f 92/59/104 91/58/103 93/60/105
f 91/58/103 87/54/99 93/60/105
f 94/62/106 86/53/98 95/63/107
f 86/53/98 88/55/100 95/63/107
f 95/63/107 96/64/108 94/62/106
f 96/64/108 97/65/109 94/62/106
f 99/69/110 101/71/111 100/70/112
f 100/70/112 101/71/111 102/72/113
f 104/73/114 105/74/115 103/75/116
f 103/75/116 105/74/115 102/72/113
f 102/72/113 105/74/115 100/70/112
f 106/82/117 108/83/118 107/84/119
f 108/83/118 109/85/120 107/84/119
f 96/64/108 109/85/120 97/65/109
f 109/85/120 108/83/118 97/65/109
f 108/83/118 106/82/117 98/67/121
f 98/67/121 106/82/117 99/69/110
f 99/69/110 106/82/117 101/71/111
f 105/74/115 104/73/114 110/89/122
f 104/73/114 92/59/104 110/89/122
f 92/59/104 93/60/105 110/89/122
