# Blender 4.5.2 LTS
# www.blender.org
mtllib cebra_pata_der_atras.mtl
o cebra_pata_der_atras
v -12.310387 1.115242 -26.183100
v -13.732886 0.270842 -26.996500
v -13.226987 0.218821 -24.735498
v -11.097687 2.508633 -29.638000
v -11.367287 0.048429 -25.995800
v -13.896986 0.296444 -29.958300
v -9.409587 -0.126446 -27.841002
v -13.922586 0.359211 -31.450199
v -10.559386 0.055109 -31.861198
v -7.910537 -0.204903 -29.296099
v -7.777157 11.202016 -35.277000
v -8.064497 11.909913 -33.933990
v -8.209697 9.714542 -35.103600
v -7.537366 12.297513 -35.098488
v -8.582767 11.146914 -34.167099
v -8.783227 11.972615 -33.977188
v -9.567487 9.868905 -35.216698
v -9.546487 11.750014 -35.359089
v -9.400287 12.555114 -34.903889
v -9.150757 12.765914 -36.469589
v -9.079157 11.674514 -36.433300
v -8.920607 9.726545 -36.046898
v -9.646987 6.423724 -34.763798
v -9.187146 6.342054 -35.235798
v -10.208487 3.373314 -34.169498
v -9.796686 2.937576 -34.589100
v -9.655586 1.479223 -33.801701
v -9.012477 2.800045 -34.318600
v -8.809377 6.392333 -34.880199
v -8.393436 11.596215 -36.304600
v -8.348657 12.680614 -36.299889
v -9.451587 3.512024 -33.936600
v -9.215857 6.518605 -34.438099
v -10.858087 1.743385 -33.864002
v -8.481836 1.390785 -33.619301
v -9.732387 1.655144 -33.682098
v -9.076716 1.433422 -33.442101
v -9.985188 1.713974 -32.994099
v -10.535087 1.442135 -33.486599
v -10.363487 1.923883 -31.481001
v -9.636387 1.383644 -31.459099
v -9.652187 1.203842 -31.050600
v -10.175087 1.078503 -31.929501
v -9.705987 1.455744 -33.567799
v -11.049887 1.524704 -31.977100
v -11.526087 1.202583 -31.618099
v -10.919086 1.978354 -30.730200
v -8.927087 9.622895 -34.371799
v -7.183126 24.074415 -29.792789
v -10.089087 23.840408 -26.000891
v -9.988287 23.553709 -22.736090
v -10.510886 21.763510 -24.455589
v -9.873787 21.878309 -22.964390
v -9.211097 19.753510 -23.250690
v -9.030227 22.133909 -21.864491
v -3.440987 21.599010 -23.244690
v -4.411205 21.893614 -31.240589
v -2.216717 22.294016 -30.012690
v -5.655676 18.597315 -31.847090
v -3.998556 20.054815 -29.438890
v -5.620115 17.485016 -31.172895
v -4.664526 18.562710 -28.909290
v -3.391735 20.048908 -25.941992
v -4.940516 21.070509 -22.249290
v -5.090595 18.515209 -25.954689
v -6.126526 16.481709 -29.195196
v -7.623156 13.045916 -32.665886
v -7.216326 13.747215 -33.197689
v -7.750257 14.677713 -33.999786
v -9.329787 17.135216 -30.052595
v -8.475157 13.313116 -32.351589
v -8.543117 15.814612 -29.059195
v -7.130316 15.600311 -28.677895
v -6.694656 17.536909 -25.470396
v -6.600426 20.516310 -21.982491
v -1.795977 21.259809 -26.202991
v -2.369057 21.778210 -24.059790
v -8.388717 15.007616 -33.826088
v -8.949817 14.753515 -32.764088
v -8.610267 19.266714 -30.606993
v -7.073726 18.762215 -32.057190
v -5.501066 22.614716 -30.991590
v -9.848987 19.486109 -27.377390
v -8.586657 17.812710 -25.861090
v -7.746627 20.174910 -22.553991
v -7.878696 21.391109 -21.448191
v -6.936769 26.519226 -29.417860
v -9.732840 26.165588 -25.769352
v -9.635852 25.732319 -22.628010
v -10.138689 23.026905 -24.282486
v -9.525681 23.200394 -22.847677
v -8.888051 19.989321 -23.123150
v -8.714021 23.586666 -21.789370
v -3.336139 22.778309 -23.117378
v -4.269668 23.223522 -30.810909
v -2.158165 23.828625 -29.629444
v -5.467079 18.242037 -31.394476
v -3.872623 20.444664 -29.077343
v -3.288749 20.435738 -25.712681
v -6.376103 21.142092 -21.902908
v -1.753336 22.265696 -25.963810
v -2.304744 23.049120 -23.901653
v -8.309941 19.253656 -30.201275
v -6.831505 18.491240 -31.596630
v -5.318316 24.313276 -30.571329
v -9.501819 19.585215 -27.093800
v -7.478960 20.626156 -22.452797
v -7.606035 22.464121 -21.388813
vn 0.0346 0.8903 0.4541
vn -0.9561 -0.2526 0.1486
vn -0.4136 -0.1502 0.8980
vn 0.0866 0.9960 0.0215
vn 0.5810 -0.4447 0.6817
vn -0.9556 -0.2934 0.0279
vn 0.6074 -0.4336 0.6656
vn -0.8222 -0.1783 -0.5406
vn 0.1287 -0.6769 -0.7248
vn 0.9357 -0.3284 0.1287
vn 0.9544 -0.2460 -0.1693
vn 0.3688 -0.8934 0.2566
vn 0.9591 -0.2797 0.0434
vn 0.7086 0.2148 -0.6722
vn -0.0812 -0.3576 0.9304
vn -0.9330 -0.1313 0.3350
vn -0.9994 -0.0282 0.0196
vn -0.9991 0.0344 0.0253
vn -0.7704 0.4119 0.4866
vn -0.5271 0.1822 -0.8300
vn -0.4459 -0.1026 -0.8892
vn -0.0129 -0.2831 -0.9590
vn -0.9958 0.0833 0.0374
vn -0.0187 -0.1761 -0.9842
vn -0.9768 0.1268 0.1727
vn -0.3475 -0.3169 -0.8825
vn -0.0350 -0.7719 -0.6348
vn 0.8429 -0.0560 -0.5352
vn 0.9900 -0.1384 -0.0285
vn 0.5448 -0.1368 -0.8273
vn 0.5688 0.1605 -0.8066
vn 0.2295 0.2070 0.9511
vn 0.0933 0.0758 0.9927
vn -0.9464 -0.0013 -0.3229
vn 0.7901 -0.5772 0.2063
vn 0.0807 0.7395 0.6683
vn 0.6941 -0.2098 0.6887
vn 0.0724 0.9973 0.0080
vn -0.6671 -0.7318 0.1395
vn 0.1457 0.9890 0.0260
vn 0.9901 0.1131 0.0827
vn 0.8001 0.5892 -0.1123
vn 0.2380 -0.7239 -0.6476
vn -0.0393 -0.9913 -0.1255
vn -0.7480 0.3086 -0.5875
vn -0.3434 0.5777 -0.7405
vn 0.0714 0.9509 -0.3011
vn -0.0763 -0.0435 0.9961
vn -0.9448 0.1731 -0.2780
vn -0.9868 -0.1216 0.1066
vn -0.9333 0.0104 0.3588
vn -0.8292 -0.2248 0.5118
vn -0.5561 -0.6361 0.5349
vn -0.6675 -0.2948 0.6838
vn 0.2769 0.1066 -0.9550
vn 0.7370 -0.5316 -0.4175
vn 0.6038 -0.0389 -0.7962
vn 0.7994 -0.5722 -0.1831
vn 0.9090 -0.3494 -0.2272
vn 0.8413 -0.5380 -0.0528
vn 0.6410 -0.7424 0.1951
vn 0.5136 -0.7398 0.4346
vn 0.4791 -0.7155 0.5084
vn 0.6310 -0.7151 0.3008
vn 0.7919 -0.5921 0.1494
vn 0.5376 -0.7229 0.4341
vn 0.9609 -0.2251 -0.1611
vn 0.5549 0.3854 -0.7373
vn -0.9935 -0.0827 -0.0777
vn -0.5663 -0.6286 0.5331
vn -0.6434 -0.6394 0.4210
vn 0.2676 -0.8313 0.4872
vn 0.1928 -0.8287 0.5254
vn 0.0747 -0.7371 0.6716
vn 0.5147 -0.7522 0.4114
vn 0.6510 -0.7570 0.0553
vn 0.1034 -0.0011 -0.9946
vn 0.7822 -0.5580 -0.2770
vn -0.9634 -0.2454 -0.1078
vn -0.5296 -0.3719 0.7623
vn 0.4830 -0.3588 0.7988
vn 0.3215 0.7816 0.5345
vn -0.7083 0.6968 0.1127
vn -0.4693 0.5737 -0.6713
vn -0.9941 0.0553 -0.0934
vn -0.7796 0.2897 -0.5553
vn -0.2028 0.3831 -0.9012
vn -0.6254 0.3425 -0.7011
vn -0.1987 0.3358 -0.9207
vn 0.0423 0.9700 0.2394
vn -0.9779 -0.1929 -0.0812
vn -0.5689 -0.6997 0.4321
vn -0.1297 -0.7252 0.6762
vn -0.3428 -0.5567 0.7567
vn -0.9466 0.1352 -0.2927
vn -0.9994 0.0294 -0.0168
vn -0.9570 0.0421 0.2869
vn -0.8217 -0.1273 0.5556
vn -0.4573 -0.3672 0.8099
vn -0.7046 -0.1775 0.6870
vn 0.2451 0.0816 -0.9661
vn 0.7948 -0.3515 -0.4947
vn 0.3813 -0.0412 -0.9235
vn 0.8463 -0.4981 -0.1892
vn 0.6202 -0.5766 0.5318
vn 0.7419 -0.5976 0.3043
vn 0.6333 -0.5875 0.5037
vn 0.8060 -0.5878 0.0695
vn -0.7497 0.1632 -0.6414
vn -0.6675 0.2254 -0.7097
vn -0.2064 0.1592 -0.9654
vn -0.2343 0.2274 -0.9452
vn -0.1570 -0.5375 0.8285
vn 0.0936 -0.5682 0.8176
vn -0.4148 -0.3695 0.8316
vn -0.9413 0.0345 -0.3358
vt 0.819200 0.028600
vt 0.833100 0.003100
vt 0.797500 0.003200
vt 0.846100 0.055900
vt 0.818900 0.003100
vt 0.856100 0.003100
vt 0.837500 0.003100
vt 0.872800 0.003700
vt 0.865500 0.003400
vt 0.858900 0.003100
vt 0.942400 0.200900
vt 0.920500 0.206700
vt 0.941300 0.179700
vt 0.936800 0.215900
vt 0.928900 0.196200
vt 0.923800 0.206100
vt 0.945100 0.179900
vt 0.953100 0.201000
vt 0.943300 0.215800
vt 0.965400 0.224800
vt 0.970400 0.206000
vt 0.955800 0.175900
vt 0.928900 0.121200
vt 0.939400 0.120400
vt 0.914500 0.069300
vt 0.923100 0.064900
vt 0.922300 0.053400
vt 0.910700 0.069200
vt 0.926000 0.124500
vt 0.966700 0.206200
vt 0.963200 0.225500
vt 0.902000 0.073800
vt 0.916300 0.128900
vt 0.912200 0.062200
vt 0.907200 0.062000
vt 0.898300 0.067200
vt 0.900600 0.058100
vt 0.896200 0.064200
vt 0.904200 0.058200
vt 0.881200 0.058700
vt 0.881900 0.051200
vt 0.874300 0.045400
vt 0.888600 0.038700
vt 0.884300 0.008800
vt 0.910900 0.046800
vt 0.887200 0.051400
vt 0.881400 0.045600
vt 0.884200 0.009100
vt 0.893300 0.008400
vt 0.867200 0.052300
vt 0.858800 0.048500
vt 0.930700 0.183900
vt 0.847400 0.368200
vt 0.835300 0.348400
vt 0.815600 0.366600
vt 0.823500 0.353000
vt 0.832200 0.325500
vt 0.811900 0.356200
vt 0.973800 0.318500
vt 0.987000 0.313800
vt 0.951900 0.299400
vt 0.897300 0.316200
vt 0.863100 0.275000
vt 0.847000 0.295200
vt 0.810000 0.307600
vt 0.784600 0.340800
vt 0.792400 0.347800
vt 0.835000 0.300000
vt 0.865100 0.266300
vt 0.909700 0.216200
vt 0.922400 0.223500
vt 0.950800 0.239800
vt 0.906200 0.270100
vt 0.917200 0.220500
vt 0.886100 0.258900
vt 0.872400 0.260600
vt 0.842700 0.295900
vt 0.804400 0.341500
vt 0.790500 0.317400
vt 0.828900 0.311900
vt 0.950900 0.239900
vt 0.934700 0.230600
vt 0.908800 0.301700
vt 0.937900 0.317800
vt 0.875800 0.387400
vt 0.923600 0.364600
vt 0.877800 0.309700
vt 0.855100 0.297400
vt 0.816000 0.330500
vt 0.811900 0.356300
s 1
usemtl mat0
f 1/1/1 2/2/2 3/3/3
f 1/1/1 4/4/4 2/2/2
f 4/4/4 1/1/1 5/5/5
f 5/5/5 1/1/1 3/3/3
f 3/3/3 2/2/2 5/5/5
f 5/5/5 6/6/6 7/7/7
f 7/7/7 4/4/4 5/5/5
f 2/2/2 6/6/6 5/5/5
f 2/2/2 4/4/4 6/6/6
f 4/4/4 8/8/8 6/6/6
f 8/8/8 9/9/9 6/6/6
f 6/6/6 9/9/9 7/7/7
f 9/9/9 10/10/10 7/7/7
f 10/10/10 4/4/4 7/7/7
f 11/11/11 12/12/12 13/13/13
f 12/12/12 11/11/11 14/14/14
f 13/13/13 12/12/12 15/15/15
f 12/12/12 16/16/16 15/15/15
f 15/15/15 16/16/16 17/17/17
f 17/17/17 16/16/16 18/18/18
f 16/16/16 19/19/19 18/18/18
f 18/18/18 19/19/19 20/20/20
f 20/20/20 21/21/21 18/18/18
f 18/18/18 21/21/21 17/17/17
f 21/21/21 22/22/22 17/17/17
f 17/17/17 22/22/22 23/23/23
f 22/22/22 24/24/24 23/23/23
f 23/23/23 24/24/24 25/25/25
f 24/24/24 26/26/26 25/25/25
f 25/25/25 26/26/26 27/27/27
f 27/27/27 26/26/26 28/28/28
f 26/26/26 24/24/24 28/28/28
f 28/28/28 24/24/24 29/29/29
f 24/24/24 22/22/22 29/29/29
f 21/21/21 30/30/30 22/22/22
f 30/30/30 11/11/11 22/22/22
f 22/22/22 11/11/11 13/13/13
f 22/22/22 13/13/13 29/29/29
f 11/11/11 30/30/30 14/14/14
f 14/14/14 30/30/30 31/31/31
f 30/30/30 20/20/20 31/31/31
f 20/20/20 30/30/30 21/21/21
f 29/29/29 32/32/32 28/28/28
f 29/29/29 13/13/13 33/33/33
f 33/33/33 32/32/32 29/29/29
f 25/25/25 34/34/34 32/32/32
f 25/25/25 32/32/32 33/33/33
f 32/32/32 35/35/35 28/28/28
f 32/32/32 36/36/36 35/35/35
f 34/34/34 36/36/36 32/32/32
f 36/36/36 37/37/37 35/35/35
f 37/37/37 36/36/36 38/38/38
f 36/36/36 34/34/34 38/38/38
f 38/38/38 34/34/34 39/39/39
f 39/39/39 40/40/40 38/38/38
f 38/38/38 40/40/40 41/41/41
f 41/41/41 37/37/37 38/38/38
f 40/40/40 42/42/42 41/41/41
f 41/41/41 42/42/42 43/43/43
f 43/43/43 37/37/37 41/41/41
f 42/42/42 10/44/10 43/43/43
f 37/37/37 43/43/43 44/45/44
f 44/45/44 43/43/43 45/46/45
f 43/43/43 46/47/46 45/46/45
f 43/43/43 8/48/8 46/47/46
f 10/44/10 9/49/9 43/43/43
f 9/49/9 8/48/8 43/43/43
f 46/47/46 8/48/8 47/50/47
f 8/48/8 4/51/4 47/50/47
f 47/50/47 4/51/4 10/44/10
f 46/47/46 47/50/47 40/40/40
f 40/40/40 47/50/47 42/42/42
f 47/50/47 10/44/10 42/42/42
f 45/46/45 46/47/46 40/40/40
f 44/45/44 45/46/45 39/39/39
f 45/46/45 40/40/40 39/39/39
f 35/35/35 37/37/37 44/45/44
f 35/35/35 44/45/44 27/27/27
f 27/27/27 44/45/44 39/39/39
f 34/34/34 27/27/27 39/39/39
f 27/27/27 34/34/34 25/25/25
f 28/28/28 35/35/35 27/27/27
f 33/33/33 13/13/13 48/52/48
f 48/52/48 23/23/23 33/33/33
f 23/23/23 25/25/25 33/33/33
f 13/13/13 15/15/15 48/52/48
f 48/52/48 15/15/15 17/17/17
f 17/17/17 23/23/23 48/52/48
f 50/53/49 52/54/50 51/55/51
f 51/55/51 52/54/50 53/56/52
f 52/54/50 54/57/53 53/56/52
f 54/57/53 55/58/54 53/56/52
f 53/56/52 55/58/54 51/55/51
f 57/59/55 58/60/56 59/61/57
f 58/60/56 60/62/58 59/61/57
f 59/61/57 60/62/58 61/63/59
f 61/63/59 60/62/58 62/64/60
f 60/62/58 63/65/61 62/64/60
f 56/66/62 64/67/63 63/65/61
f 64/67/63 65/68/64 63/65/61
f 63/65/61 65/68/64 62/64/60
f 65/68/64 66/69/65 62/64/60
f 62/64/60 66/69/65 61/63/59
f 66/69/65 67/70/66 61/63/59
f 67/70/66 68/71/67 61/63/59
f 61/63/59 68/71/67 59/61/57
f 68/71/67 69/72/68 59/61/57
f 70/73/69 71/74/70 72/75/71
f 72/75/71 71/74/70 73/76/72
f 71/74/70 67/70/66 73/76/72
f 67/70/66 66/69/65 73/76/72
f 73/76/72 66/69/65 74/77/73
f 66/69/65 65/68/64 74/77/73
f 65/68/64 64/67/63 74/77/73
f 74/77/73 64/67/63 75/78/74
f 56/66/62 63/65/61 77/79/75
f 77/79/75 63/65/61 76/80/76
f 63/65/61 60/62/58 76/80/76
f 60/62/58 58/60/56 76/80/76
f 16/16/77 19/19/78 14/14/79
f 14/14/79 19/19/78 31/31/80
f 19/19/78 20/20/81 31/31/80
f 20/20/82 19/19/83 78/81/84
f 19/19/83 79/82/85 78/81/84
f 79/82/85 80/83/86 78/81/84
f 78/81/84 80/83/86 81/84/87
f 80/83/86 49/85/88 81/84/87
f 81/84/87 49/85/88 82/86/89
f 82/86/89 57/59/55 81/84/87
f 57/59/55 59/61/57 81/84/87
f 81/84/87 59/61/57 78/81/84
f 59/61/57 69/72/68 78/81/84
f 78/81/84 69/72/68 20/20/82
f 20/20/82 69/72/68 31/31/90
f 69/72/68 68/71/67 31/31/90
f 31/31/90 68/71/67 14/14/14
f 68/71/67 67/70/66 14/14/14
f 14/14/14 67/70/66 12/12/12
f 67/70/66 71/74/70 12/12/12
f 12/12/12 71/74/70 16/16/16
f 71/74/70 19/19/83 16/16/16
f 19/19/83 71/74/70 79/82/85
f 71/74/70 70/73/69 79/82/85
f 79/82/85 70/73/69 80/83/86
f 80/83/86 70/73/69 83/87/91
f 70/73/69 72/75/71 83/87/91
f 83/87/91 72/75/71 84/88/92
f 72/75/71 73/76/72 84/88/92
f 73/76/72 74/77/73 84/88/92
f 84/88/92 74/77/73 85/89/93
f 74/77/73 75/78/74 85/89/93
f 85/89/93 75/78/74 86/90/94
f 55/58/54 54/57/53 86/90/94
f 86/90/94 54/57/53 85/89/93
f 54/57/53 84/88/92 85/89/93
f 84/88/92 54/57/53 83/87/91
f 54/57/53 52/54/50 83/87/91
f 52/54/50 50/53/49 83/87/91
f 83/87/91 50/53/49 80/83/86
f 50/53/49 49/85/88 80/83/86
f 88/53/95 90/54/96 89/55/97
f 89/55/97 90/54/96 91/56/98
f 92/57/99 93/58/100 91/56/98
f 91/56/98 93/58/100 89/55/97
f 95/59/101 96/60/102 97/61/103
f 96/60/102 98/62/104 97/61/103
f 94/66/105 99/65/106 102/79/107
f 102/79/107 99/65/106 101/80/108
f 99/65/106 98/62/104 101/80/108
f 98/62/104 96/60/102 101/80/108
f 103/83/109 87/85/110 104/84/111
f 104/84/111 87/85/110 105/86/112
f 105/86/112 95/59/101 104/84/111
f 95/59/101 97/61/103 104/84/111
f 107/89/113 100/78/114 108/90/115
f 93/58/100 92/57/99 108/90/115
f 108/90/115 92/57/99 107/89/113
f 90/54/96 88/53/95 106/87/116
f 106/87/116 88/53/95 103/83/109
f 88/53/95 87/85/110 103/83/109
