# Blender 4.5.3 LTS
# www.blender.org
mtllib aletaderechapingu.mtl
g aletaderechapingu_Mesh
v -0.183788 1.634703 -0.674412
v 0.157759 1.646555 -0.701701
v 0.161638 1.685167 -0.777828
v -0.179908 1.673315 -0.750538
v 0.178344 0.569538 -1.372958
v 0.114418 0.418318 -1.480194
v 0.115030 0.424365 -1.492115
v 0.180709 0.593078 -1.419373
v 0.060931 0.416462 -1.475917
v 0.061537 0.422509 -1.487839
v -0.218113 1.407876 -0.792945
v -0.213072 1.458079 -0.891928
v -0.027526 0.585852 -1.402739
v 0.225962 1.423286 -0.828434
v -0.029891 0.562312 -1.356324
v 0.219602 0.872635 -1.174910
v -0.121940 0.860783 -1.147618
v 0.252767 1.087870 -1.033521
v -0.191313 1.072460 -0.998034
v 0.231007 1.473489 -0.927414
v 0.257812 1.138073 -1.132501
v -0.186268 1.122663 -1.097014
v 0.223482 0.911247 -1.251036
v -0.118065 0.899395 -1.223747
vn -0.5215 0.2618 0.8121
vn 0.5045 0.2987 0.8101
vn 0.4840 0.8530 -0.1954
vn -0.5461 0.8184 -0.1788
vn 0.7130 -0.5119 0.4791
vn 0.4755 -0.8675 0.1462
vn 0.4473 -0.3242 -0.8336
vn 0.6887 0.1645 -0.7061
vn -0.4092 -0.8986 0.1581
vn -0.4404 -0.3451 -0.8288
vn -0.7084 -0.3259 0.6261
vn -0.7356 0.3777 -0.5624
vn -0.6989 0.1001 -0.7082
vn 0.7302 -0.2363 0.6410
vn -0.6473 -0.6165 0.4482
vn 0.7102 -0.4553 0.5369
vn -0.6549 -0.5633 0.5037
vn 0.7355 -0.3777 0.5624
vn -0.6927 -0.4819 0.5366
vn 0.6927 0.4819 -0.5366
vn 0.7084 0.3259 -0.6261
vn -0.7302 0.2363 -0.6410
vn 0.6859 0.2594 -0.6799
vn -0.7029 0.1824 -0.6874
vt 0.620469 0.379314
vt 0.610239 0.379454
vt 0.609819 0.372014
vt 0.620049 0.371874
vt 0.657718 0.587208
vt 0.657161 0.615984
vt 0.656697 0.614815
vt 0.655909 0.582657
vt 0.583512 0.616129
vt 0.581909 0.616107
vt 0.581975 0.614936
vt 0.583577 0.614958
vt 0.641167 0.422847
vt 0.641860 0.379335
vt 0.644838 0.371874
vt 0.645038 0.413146
vt 0.579753 0.582776
vt 0.585990 0.582862
vt 0.622067 0.422836
vt 0.608767 0.423018
vt 0.615977 0.616085
vt 0.614375 0.616106
vt 0.612153 0.587389
vt 0.618390 0.587304
vt 0.610239 0.529209
vt 0.620468 0.529069
vt 0.608766 0.487921
vt 0.622067 0.487739
vt 0.577839 0.371874
vt 0.588068 0.372014
vt 0.589667 0.413338
vt 0.576366 0.413156
vt 0.589667 0.478242
vt 0.576366 0.478060
vt 0.588068 0.521769
vt 0.577839 0.521629
vt 0.643809 0.616128
vt 0.642762 0.587334
vt 0.644578 0.582786
vt 0.644275 0.614960
vt 0.641860 0.529088
vt 0.644838 0.521627
vt 0.641167 0.487750
vt 0.645038 0.478049
vt 0.658197 0.379339
vt 0.658565 0.422823
vt 0.654709 0.413117
vt 0.655231 0.371874
vt 0.658565 0.487685
vt 0.654709 0.477978
vt 0.658197 0.528998
vt 0.655231 0.521532
s 1
g off
g aletaderechapingu_Material.002
usemtl Material.002
f 1/1/1 2/2/2 3/3/3
f 1/1/1 3/3/3 4/4/4
f 5/5/5 6/6/6 7/7/7
f 5/5/5 7/7/7 8/8/8
f 6/9/6 9/10/9 10/11/10
f 6/9/6 10/11/10 7/12/7
f 11/13/11 1/14/1 4/15/4
f 11/13/11 4/15/4 12/16/12
f 13/17/13 8/18/8 7/12/7
f 13/17/13 7/12/7 10/11/10
f 11/19/11 14/20/14 2/2/2
f 11/19/11 2/2/2 1/1/1
f 9/21/9 6/22/6 5/23/5
f 9/21/9 5/23/5 15/24/15
f 15/24/15 5/23/5 16/25/16
f 15/24/15 16/25/16 17/26/17
f 17/26/17 16/25/16 18/27/18
f 17/26/17 18/27/18 19/28/19
f 19/28/19 18/27/18 14/20/14
f 19/28/19 14/20/14 11/19/11
f 4/29/4 3/30/3 20/31/20
f 4/29/4 20/31/20 12/32/12
f 12/32/12 20/31/20 21/33/21
f 12/32/12 21/33/21 22/34/22
f 22/34/22 21/33/21 23/35/23
f 22/34/22 23/35/23 24/36/24
f 24/36/24 23/35/23 8/18/8
f 24/36/24 8/18/8 13/17/13
f 9/37/9 15/38/15 13/39/13
f 9/37/9 13/39/13 10/40/10
f 15/38/15 17/41/17 24/42/24
f 15/38/15 24/42/24 13/39/13
f 17/41/17 19/43/19 22/44/22
f 17/41/17 22/44/22 24/42/24
f 19/43/19 11/13/11 12/16/12
f 19/43/19 12/16/12 22/44/22
f 2/45/2 14/46/14 20/47/20
f 2/45/2 20/47/20 3/48/3
f 14/46/14 18/49/18 21/50/21
f 14/46/14 21/50/21 20/47/20
f 18/49/18 16/51/16 23/52/23
f 18/49/18 23/52/23 21/50/21
f 16/51/16 5/5/5 8/8/8
f 16/51/16 8/8/8 23/52/23
