# Blender 4.5.3 LTS
# www.blender.org
mtllib pataderechapingu.mtl
g pataderechapingu_Mesh
v -0.632029 -0.471436 -0.974541
v 0.130719 -0.410188 -0.439911
v -0.084300 -0.410188 0.021266
v -0.984162 -0.471436 -0.219278
v -0.119346 -0.321134 0.088052
v -1.020991 -0.332919 -0.153323
v -1.016412 -0.459951 -0.151188
v -0.116550 -0.398703 0.089355
v -0.989569 -0.321433 -0.221798
v -0.087924 -0.309649 0.019576
v 0.127095 -0.309649 -0.441601
v -0.637435 -0.321433 -0.977062
v -1.060707 -0.333681 -0.239644
v -0.696838 -0.333681 -1.020080
v -0.692107 -0.464946 -1.017874
v -1.055976 -0.464946 -0.237439
v 0.188239 -0.320039 -0.400188
v -0.016895 -0.320039 0.039788
v -0.014228 -0.394041 0.041032
v 0.190907 -0.394041 -0.398945
v -0.600604 -0.459951 -1.043021
v -0.605183 -0.332919 -1.045156
v 0.162143 -0.398703 -0.508391
v 0.159347 -0.321134 -0.509695
vn -0.5009 -0.6142 -0.6098
vn 0.1752 -0.5846 -0.7922
vn 0.0341 -0.9972 -0.0669
vn -0.5430 0.5558 -0.6295
vn -0.0377 0.9942 -0.1004
vn 0.1336 0.5688 -0.8116
vn 0.8348 -0.5425 0.0940
vn 0.1716 -0.9852 -0.0019
vn 0.6906 -0.5613 -0.4560
vn 0.1003 0.9943 -0.0352
vn 0.7935 0.6040 0.0747
vn 0.6490 0.5940 -0.4755
vn -0.7891 -0.6142 0.0084
vn -0.0293 -0.9972 0.0691
vn -0.4941 -0.5846 0.6435
vn -0.1011 0.9942 0.0357
vn -0.8313 0.5558 -0.0113
vn -0.5357 0.5688 0.6241
vn 0.0946 -0.5613 0.8222
vn 0.1088 -0.9852 0.1327
vn 0.6087 -0.5424 0.5790
vn 0.0375 0.9943 0.0994
vn 0.0530 0.5940 0.8027
vn 0.5674 0.6040 0.5598
vt 0.669077 0.747025
vt 0.664241 0.744972
vt 0.669077 0.741772
vt 0.658914 0.747025
vt 0.654079 0.744972
vt 0.658914 0.741772
vt 0.728137 0.064457
vt 0.731037 0.069960
vt 0.725238 0.069960
vt 0.720635 0.681131
vt 0.723534 0.675628
vt 0.726433 0.681131
vt 0.586248 0.742573
vt 0.590629 0.739674
vt 0.590629 0.745472
vt 0.735882 0.667708
vt 0.731501 0.664809
vt 0.735882 0.661910
vt 0.737300 0.611442
vt 0.731501 0.611442
vt 0.734401 0.605940
vt 0.574467 0.688020
vt 0.568668 0.688020
vt 0.571567 0.682517
vt 0.644673 0.253381
vt 0.653502 0.202128
vt 0.681193 0.202128
vt 0.690022 0.253381
vt 0.486156 0.616197
vt 0.494985 0.667449
vt 0.449635 0.667449
vt 0.458464 0.616197
vt 0.601593 0.671120
vt 0.610423 0.619867
vt 0.638114 0.619867
vt 0.646943 0.671120
vt 0.647785 0.049524
vt 0.647785 0.002663
vt 0.694646 0.002663
vt 0.694646 0.049524
vt 0.644673 0.285126
vt 0.644673 0.258707
vt 0.671091 0.258707
vt 0.671091 0.285126
vt 0.740847 0.197737
vt 0.740847 0.244598
vt 0.735648 0.243842
vt 0.735648 0.198493
vt 0.720634 0.726271
vt 0.726433 0.726271
vt 0.742119 0.517835
vt 0.742119 0.491416
vt 0.748306 0.490780
vt 0.748306 0.518471
vt 0.731037 0.115100
vt 0.725238 0.115100
vt 0.748306 0.523798
vt 0.748306 0.551489
vt 0.742119 0.550853
vt 0.742119 0.524434
vt 0.748305 0.556816
vt 0.748305 0.584507
vt 0.742119 0.583871
vt 0.742119 0.557452
vt 0.748472 0.675628
vt 0.748472 0.703319
vt 0.742285 0.702683
vt 0.742285 0.676265
vt 0.574467 0.733160
vt 0.568668 0.733160
vt 0.740847 0.249925
vt 0.740847 0.296786
vt 0.735648 0.296030
vt 0.735648 0.250680
vt 0.731501 0.656583
vt 0.737300 0.656583
vt 0.735648 0.191655
vt 0.735648 0.146305
vt 0.740847 0.145550
vt 0.740847 0.192411
vt 0.731760 0.721734
vt 0.731760 0.676384
vt 0.736959 0.675628
vt 0.736959 0.722489
vt 0.644673 0.196802
vt 0.653502 0.145550
vt 0.681193 0.145550
vt 0.690023 0.196802
s 1
g off
g pataderechapingu_Material.008
usemtl Material.008
f 15/1/1 21/2/2 1/3/3
f 14/4/4 12/5/5 22/6/6
f 20/7/7 2/8/8 23/9/9
f 11/10/10 17/11/11 24/12/12
f 16/13/13 4/14/14 7/15/15
f 9/16/16 13/17/17 6/18/18
f 8/19/19 3/20/20 19/21/21
f 10/22/22 5/23/23 18/24/24
f 1/25/3 2/26/8 3/27/20
f 1/25/3 3/27/20 4/28/14
f 5/29/23 6/30/18 7/31/15
f 5/29/23 7/31/15 8/32/19
f 9/33/16 10/34/22 11/35/10
f 9/33/16 11/35/10 12/36/5
f 13/37/17 14/38/4 15/39/1
f 13/37/17 15/39/1 16/40/13
f 17/41/11 18/42/24 19/43/21
f 17/41/11 19/43/21 20/44/7
f 15/45/1 14/46/4 22/47/6
f 15/45/1 22/47/6 21/48/2
f 12/49/5 11/10/10 24/12/12
f 12/49/5 24/12/12 22/50/6
f 17/51/11 20/52/7 23/53/9
f 17/51/11 23/53/9 24/54/12
f 2/8/8 1/55/3 21/56/2
f 2/8/8 21/56/2 23/9/9
f 11/57/10 10/58/22 18/59/24
f 11/57/10 18/59/24 17/60/11
f 5/61/23 8/62/19 19/63/21
f 5/61/23 19/63/21 18/64/24
f 3/65/20 2/66/8 20/67/7
f 3/65/20 20/67/7 19/68/21
f 10/22/22 9/69/16 6/70/18
f 10/22/22 6/70/18 5/23/23
f 13/71/17 16/72/13 7/73/15
f 13/71/17 7/73/15 6/74/18
f 4/75/14 3/20/20 8/19/19
f 4/75/14 8/19/19 7/76/15
f 9/77/16 12/78/5 14/79/4
f 9/77/16 14/79/4 13/80/17
f 1/81/3 4/82/14 16/83/13
f 1/81/3 16/83/13 15/84/1
f 22/85/6 24/86/12 23/87/9
f 22/85/6 23/87/9 21/88/2
