# Blender 4.5.2 LTS
# www.blender.org
mtllib colaJirafa.mtl
o colaJirafa
v -0.015036 -0.289822 -0.440664
v 0.042455 -0.280356 -0.426988
v 0.066409 -0.256180 -0.418565
v 0.076483 -0.238392 -0.312575
v 0.105001 -0.106536 -0.233880
v 0.113590 -0.198847 -0.288458
v 0.076048 -0.013892 -0.142991
v 0.053403 -0.071813 -0.292829
v 0.012302 -1.435339 -1.195534
v 0.058408 -1.477355 -1.135416
v 0.000122 -0.440594 -0.589652
v 0.038280 -0.355485 -0.530165
v 0.020458 -0.485976 -0.625289
v 0.031660 -0.489820 -0.666666
v 0.026580 -1.176551 -0.996010
v 0.009557 -0.763016 -0.782885
v 0.040049 -1.056341 -0.981498
v 0.028318 -0.773170 -0.819311
v 0.086932 -1.443353 -1.134797
v 0.055291 -1.211549 -1.036508
v 0.022002 -0.161819 -0.393440
v 0.008186 -0.040352 -0.283816
v 0.013918 -0.246573 -0.500621
v 0.044622 -0.282706 -0.509804
v 0.011992 -0.468069 -0.669778
v 0.013216 -0.916665 -0.929532
v 0.086759 -1.406990 -1.164975
v 0.044542 -1.414738 -1.194097
v -0.096520 -0.204693 -0.291505
v -0.035348 -0.250391 -0.312807
v -0.084857 -0.104948 -0.234111
v -0.073338 -0.023787 -0.144507
v -0.037587 -0.153387 -0.353234
v -0.031996 -0.064871 -0.288358
v -0.035567 -1.464960 -1.156284
v -0.068604 -1.406761 -1.164584
v -0.069652 -1.441417 -1.134887
v -0.005895 -1.488726 -1.132352
v -0.035433 -0.281763 -0.469143
v -0.021446 -0.279714 -0.515962
v -0.003914 -0.835353 -0.837919
v -0.014762 -1.175094 -0.999891
v -0.011445 -0.956037 -0.935699
v -0.012062 -0.501892 -0.678007
v -0.031700 -1.413532 -1.191198
v -0.030055 -1.141452 -1.013548
vn 0.6861 -0.7259 0.0488
vn 0.6681 -0.7387 -0.0889
vn 0.7155 -0.6943 0.0769
vn 0.9171 0.2633 -0.2993
vn 0.9144 0.2780 -0.2943
vn 0.9180 0.2690 -0.2914
vn 0.7559 0.5654 -0.3300
vn 0.7577 0.5626 -0.3307
vn 0.7579 0.5600 -0.3345
vn 0.7893 0.3792 -0.4828
vn 0.7970 0.3966 -0.4555
vn 0.8099 0.3459 -0.4738
vn 0.4003 -0.5784 -0.7108
vn 0.4006 -0.5770 -0.7117
vn 0.4008 -0.5776 -0.7111
vn 0.5466 -0.5053 -0.6678
vn 0.5519 -0.5005 -0.6670
vn 0.5541 -0.5054 -0.6614
vn 0.3593 -0.6379 0.6812
vn 0.3592 -0.6357 0.6833
vn 0.3582 -0.6387 0.6810
vn -0.0067 -0.8084 0.5885
vn -0.0076 -0.8073 0.5901
vn -0.0098 -0.8092 0.5874
vn 0.9730 -0.0334 -0.2286
vn 0.9683 -0.0287 -0.2481
vn 0.9763 -0.0121 -0.2163
vn 0.3577 -0.4723 0.8056
vn 0.3577 -0.4650 0.8098
vn 0.3538 -0.4775 0.8042
vn 0.9938 -0.1007 0.0469
vn 0.9938 -0.0963 0.0551
vn 0.9933 -0.1047 0.0492
vn 0.9213 -0.1492 0.3592
vn 0.9225 -0.1519 0.3548
vn 0.9221 -0.1413 0.3603
vn 0.3965 -0.3495 0.8489
vn 0.3997 -0.3522 0.8463
vn 0.4004 -0.3483 0.8475
vn 0.5698 0.4126 -0.7107
vn 0.5680 0.4144 -0.7110
vn 0.5693 0.4135 -0.7105
vn 0.9074 0.1876 -0.3760
vn 0.9097 0.1938 -0.3672
vn 0.9094 0.1857 -0.3722
vn 0.4519 0.4417 -0.7750
vn 0.4537 0.4409 -0.7744
vn 0.4539 0.4383 -0.7758
vn -0.6237 -0.7807 0.0393
vn -0.5376 -0.8282 0.1584
vn -0.5638 -0.8031 0.1928
vn -0.7724 0.5171 -0.3687
vn -0.7692 0.5202 -0.3712
vn -0.7710 0.5162 -0.3728
vn -0.7776 0.4090 -0.4775
vn -0.7752 0.4346 -0.4585
vn -0.7644 0.3993 -0.5063
vn -0.8298 0.3390 -0.4433
vn -0.8350 0.3608 -0.4154
vn -0.8231 0.3412 -0.4540
vn -0.3329 -0.5125 -0.7915
vn -0.3316 -0.5122 -0.7923
vn -0.3299 -0.5158 -0.7906
vn -0.5793 -0.4260 -0.6949
vn -0.5747 -0.4321 -0.6950
vn -0.5834 -0.4288 -0.6898
vn -0.6796 -0.4647 -0.5677
vn -0.6780 -0.4662 -0.5684
vn -0.6774 -0.4688 -0.5669
vn -0.7700 -0.4846 0.4149
vn -0.7729 -0.4870 0.4067
vn -0.7686 -0.4874 0.4143
vn -0.5485 -0.8184 0.1712
vn -0.5800 -0.7994 0.1568
vn -0.5439 -0.8259 0.1487
vn -0.9357 0.2279 -0.2693
vn -0.9317 0.2324 -0.2793
vn -0.9355 0.2236 -0.2735
vn -0.5369 -0.4405 0.7195
vn -0.5453 -0.4416 0.7125
vn -0.5370 -0.4511 0.7128
vn -0.9479 0.1659 -0.2721
vn -0.9465 0.1603 -0.2800
vn -0.9487 0.1575 -0.2742
vn -0.0991 -0.4649 0.8798
vn -0.0969 -0.4530 0.8862
vn -0.1033 -0.4579 0.8830
vn -0.8587 -0.2044 0.4699
vn -0.8575 -0.1964 0.4755
vn -0.8609 -0.1906 0.4717
vn -0.9570 -0.1390 0.2548
vn -0.9578 -0.1408 0.2506
vn -0.9571 -0.1486 0.2489
vn -0.2201 0.5933 -0.7743
vn -0.2182 0.5929 -0.7751
vn -0.5168 0.4388 -0.7351
vn -0.5165 0.4406 -0.7342
vn -0.5166 0.4382 -0.7356
vn -0.4670 0.4458 -0.7637
vn -0.4690 0.4434 -0.7638
vn -0.4694 0.4451 -0.7626
vn -0.0257 0.4678 -0.8835
vn -0.0262 0.4677 -0.8835
vn 0.7357 -0.1565 0.6590
vn 0.7334 -0.1616 0.6603
vn 0.7338 -0.1648 0.6591
vn -0.8043 -0.1322 0.5793
vn -0.8037 -0.1318 0.5803
vn -0.8029 -0.1268 0.5825
vn 0.0994 -0.9456 0.3098
vn 0.0900 -0.9435 0.3188
vn 0.0830 -0.9544 0.2869
vn 0.8196 0.3554 -0.4493
vn 0.8307 0.3505 -0.4326
vn 0.8236 0.3346 -0.4580
vn 0.7276 -0.6851 0.0354
vn 0.7149 -0.6958 0.0692
vn 0.7076 -0.7056 0.0389
vn 0.6138 -0.5014 -0.6098
vn 0.6124 -0.5055 -0.6078
vn 0.6124 -0.5026 -0.6102
vn 0.1063 -0.7745 -0.6235
vn 0.1075 -0.7741 -0.6239
vn 0.1075 -0.7752 -0.6225
vn 0.5313 -0.6940 0.4860
vn 0.5301 -0.6965 0.4836
vn 0.5342 -0.6939 0.4829
vn 0.8016 -0.3162 0.5074
vn 0.8039 -0.3236 0.4990
vn 0.8095 -0.3105 0.4983
vn 0.0778 -0.5892 0.8042
vn 0.0756 -0.5974 0.7984
vn 0.0797 -0.5917 0.8022
vn 0.9494 -0.1571 0.2719
vn 0.9493 -0.1590 0.2711
vn 0.9497 -0.1586 0.2700
vn 0.9050 -0.3257 0.2737
vn 0.9056 -0.3222 0.2757
vn 0.9050 -0.3229 0.2770
vn 0.8292 -0.2547 0.4975
vn 0.8321 -0.2541 0.4930
vn 0.8304 -0.2494 0.4983
vn 0.1153 -0.4076 0.9059
vn 0.1155 -0.4072 0.9060
vn 0.1146 -0.4067 0.9064
vn 0.7181 -0.1837 0.6713
vn 0.7185 -0.1898 0.6692
vn 0.7197 -0.1881 0.6683
vn 0.9905 0.0903 0.1036
vn 0.9903 0.0926 0.1036
vn 0.9904 0.0899 0.1051
vn 0.1989 0.6981 -0.6878
vn 0.1989 0.6999 -0.6860
vn 0.1995 0.6983 -0.6874
vn 0.3190 0.6547 -0.6853
vn 0.4716 0.7852 -0.4013
vn 0.4710 0.7981 -0.3756
vn 0.4822 0.7919 -0.3747
vn 0.5719 0.6214 -0.5356
vn 0.5715 0.6228 -0.5342
vn 0.5725 0.6217 -0.5346
vn 0.6065 0.4535 -0.6530
vn 0.6049 0.4586 -0.6510
vn 0.6083 0.4566 -0.6492
vn 0.4277 0.5479 -0.7189
vn 0.4282 0.5446 -0.7212
vn 0.4258 0.5454 -0.7220
vn 0.7479 0.3485 -0.5650
vn 0.7476 0.3570 -0.5600
vn 0.7500 0.3554 -0.5578
vn 0.8886 0.2990 -0.3478
vn 0.8887 0.3017 -0.3452
vn 0.8893 0.2978 -0.3471
vn -0.7887 0.4014 -0.4657
vn -0.7816 0.3985 -0.4799
vn -0.7875 0.3939 -0.4741
vn -0.0734 -0.7508 -0.6564
vn -0.0728 -0.7514 -0.6559
vn -0.0734 -0.7521 -0.6550
vn -0.9658 -0.1326 0.2227
vn -0.9655 -0.1303 0.2256
vn -0.9657 -0.1305 0.2244
vn -0.7323 -0.5045 0.4575
vn -0.7336 -0.5062 0.4534
vn -0.7322 -0.5091 0.4524
vn -0.8628 -0.2043 0.4625
vn -0.9857 0.1378 -0.0967
vn -0.9860 0.1398 -0.0908
vn -0.9853 0.1424 -0.0943
vn -0.0997 -0.3895 0.9156
vn -0.0988 -0.3896 0.9157
vn -0.0996 -0.3884 0.9161
vn -0.3112 -0.3765 0.8726
vn -0.3149 -0.3747 0.8720
vn -0.3143 -0.3787 0.8705
vn -0.3156 0.5861 -0.7462
vn -0.3731 0.5908 -0.7154
vn -0.2667 0.5808 -0.7691
vn -0.3133 0.7491 -0.5837
vn -0.3862 0.7127 -0.5856
vn -0.4042 0.7028 -0.5854
vn -0.4612 0.8109 -0.3602
vn -0.4551 0.8163 -0.3558
vn -0.4437 0.8095 -0.3844
vn -0.3771 0.4633 -0.8019
vn -0.3772 0.4637 -0.8017
vn -0.4686 0.5081 -0.7227
vn -0.4665 0.5107 -0.7222
vn -0.4666 0.5061 -0.7253
vn -0.4939 0.4336 -0.7536
vn -0.4947 0.4260 -0.7575
vn -0.4980 0.4265 -0.7551
vn 0.9784 0.0275 0.2049
vn 0.9792 0.0210 0.2017
vn 0.9789 0.0241 0.2027
vn -0.5940 -0.8021 -0.0611
vn -0.5947 -0.8015 -0.0625
vn -0.5892 -0.8056 -0.0630
vn -0.9917 0.0980 0.0838
vn -0.9918 0.0994 0.0798
vn -0.9920 0.0981 0.0798
vn -0.9575 -0.0258 0.2874
vn -0.9570 -0.0224 0.2892
vn -0.9575 -0.0256 0.2874
vn -0.0340 0.1267 -0.9914
vn -0.0328 0.1238 -0.9918
vn -0.0373 0.1243 -0.9915
vn 0.0847 -0.9481 0.3066
vn -0.3919 0.5918 -0.7044
vn -0.2844 0.7623 -0.5814
vt 0.576654 0.922181
vt 0.578252 0.937368
vt 0.573447 0.921147
vt 0.385327 0.043251
vt 0.378949 0.073711
vt 0.368901 0.081031
vt 0.395952 0.045562
vt 0.400498 0.029292
vt 0.333377 0.265047
vt 0.342290 0.271431
vt 0.331690 0.268123
vt 0.338986 0.262644
vt 0.490032 0.475174
vt 0.483880 0.502814
vt 0.481315 0.489688
vt 0.566072 0.919336
vt 0.572236 0.906676
vt 0.368623 0.091978
vt 0.482697 0.555331
vt 0.481382 0.511139
vt 0.358267 0.115983
vt 0.477893 0.604804
vt 0.483509 0.621179
vt 0.479618 0.665106
vt 0.483643 0.668880
vt 0.355948 0.113168
vt 0.343131 0.185643
vt 0.351070 0.161338
vt 0.563998 0.937619
vt 0.556578 0.940557
vt 0.388407 0.913239
vt 0.398395 0.908759
vt 0.402798 0.921643
vt 0.385355 0.899616
vt 0.378253 0.879444
vt 0.396677 0.893689
vt 0.335145 0.702637
vt 0.343358 0.699390
vt 0.339634 0.706215
vt 0.345280 0.707906
vt 0.348093 0.703385
vt 0.482659 0.836389
vt 0.487243 0.863950
vt 0.482771 0.862936
vt 0.563482 0.915218
vt 0.373300 0.878917
vt 0.480292 0.770860
vt 0.482514 0.783712
vt 0.363321 0.844532
vt 0.482391 0.717099
vt 0.485823 0.718169
vt 0.478309 0.720386
vt 0.477134 0.749473
vt 0.476950 0.823202
vt 0.361022 0.849299
vt 0.370394 0.883594
vt 0.347719 0.781034
vt 0.350312 0.775506
vt 0.331690 0.705334
vt 0.479410 0.628581
vt 0.479938 0.673340
vt 0.393761 0.060480
vt 0.583255 0.940557
vt 0.343229 0.266539
vt 0.442289 0.948720
vt 0.446706 0.940804
vt 0.451908 0.948720
vt 0.499311 0.679714
vt 0.499311 0.697607
vt 0.496484 0.694998
vt 0.478635 0.558941
vt 0.477293 0.513929
vt 0.490032 0.668453
vt 0.344058 0.230624
vt 0.375626 0.059815
vt 0.382233 0.038737
vt 0.366659 0.075792
vt 0.343902 0.206966
vt 0.451370 0.939539
vt 0.487243 0.668880
vt 0.384323 0.916475
vt 0.622721 0.792812
vt 0.627499 0.792474
vt 0.636031 0.809141
vt 0.475543 0.661673
vt 0.451673 0.933960
vt 0.475543 0.676300
vt 0.376411 0.897287
s 1
usemtl Material.001
f 3/1/1 4/2/2 2/3/3
f 8/4/4 3/5/5 24/6/6
f 5/7/7 8/4/8 7/8/9
f 5/7/10 3/5/11 8/4/12
f 28/9/13 10/10/14 9/11/15
f 27/12/16 10/10/17 28/9/18
f 1/13/19 11/14/20 12/15/21
f 1/16/22 12/17/23 2/3/24
f 24/6/25 3/5/26 12/18/27
f 11/14/28 16/19/29 13/20/30
f 12/18/31 14/21/32 24/6/33
f 17/22/34 16/19/35 15/23/36
f 19/24/37 15/23/38 10/25/39
f 25/26/40 14/21/41 26/27/42
f 18/28/43 26/27/44 14/21/45
f 27/12/46 28/9/47 26/27/48
f 30/29/49 29/30/50 1/16/51
f 34/31/52 31/32/53 32/33/54
f 33/34/55 39/35/56 31/32/57
f 31/32/58 39/35/59 29/36/60
f 9/37/61 35/38/62 45/39/63
f 35/38/64 36/40/65 45/39/66
f 35/38/67 37/41/68 36/40/69
f 11/42/70 1/43/71 39/44/72
f 39/45/73 1/16/74 29/30/75
f 40/46/76 39/35/77 33/34/78
f 41/47/79 16/48/80 11/42/81
f 44/49/82 39/35/83 40/46/84
f 16/48/85 42/50/86 15/51/87
f 41/47/88 46/52/89 42/50/90
f 43/53/91 41/47/92 44/54/93
f 25/55/94 40/46/95 23/56/94
f 26/57/96 36/40/97 43/58/98
f 36/40/99 26/57/100 45/39/101
f 45/39/102 26/57/103 28/59/103
f 15/23/104 20/60/105 17/22/106
f 42/50/107 46/52/108 37/61/109
f 30/29/110 2/3/111 4/2/112
f 6/62/113 3/5/114 5/7/115
f 4/2/116 3/1/117 6/63/118
f 10/10/119 27/12/120 19/64/121
f 10/65/122 38/66/123 9/67/124
f 12/68/125 3/69/126 2/70/127
f 18/71/128 13/20/129 16/19/130
f 13/20/131 12/15/132 11/14/133
f 18/71/134 14/72/135 13/20/136
f 12/15/137 13/20/138 14/72/139
f 18/71/140 16/19/141 17/22/142
f 15/23/143 38/73/144 10/25/145
f 19/24/146 20/60/147 15/23/148
f 20/74/149 19/64/150 27/12/151
f 8/4/152 24/6/153 21/75/154
f 21/75/155 22/76/155 8/4/155
f 7/8/156 8/4/157 22/76/158
f 21/75/159 24/6/160 23/77/161
f 24/6/162 14/21/163 25/26/164
f 25/26/165 23/77/166 24/6/167
f 18/28/168 17/78/169 26/27/170
f 17/78/171 27/12/172 26/27/173
f 33/34/174 31/32/175 34/31/176
f 38/66/177 35/79/178 9/67/179
f 11/42/180 44/54/181 41/47/182
f 44/54/183 11/42/184 39/44/185
f 16/48/186 41/47/88 42/50/90
f 41/47/187 43/53/188 46/52/189
f 15/51/190 42/50/191 38/80/192
f 37/61/193 38/80/194 42/50/195
f 22/81/196 33/34/197 34/31/198
f 33/34/199 23/56/200 40/46/201
f 22/82/202 34/83/203 32/84/204
f 25/55/205 26/57/206 44/49/205
f 25/55/207 44/49/208 40/46/209
f 43/58/210 44/49/211 26/57/212
f 27/85/213 17/22/214 20/60/215
f 35/79/216 38/66/217 37/86/218
f 36/87/219 37/61/220 46/52/221
f 43/53/222 36/87/223 46/52/224
f 9/37/225 45/39/226 28/59/227
f 30/29/110 1/16/228 2/3/111
f 22/81/196 21/88/229 33/34/197
f 33/34/199 21/88/230 23/56/200
